<?xml version="1.0" standalone="no"?>
<!DOCTYPE svg PUBLIC "-//W3C//DTD SVG 1.1//EN" "http://www.w3.org/Graphics/SVG/1.1/DTD/svg11.dtd" >
<svg xmlns="http://www.w3.org/2000/svg" xmlns:xlink="http://www.w3.org/1999/xlink" version="1.1">
<metadata>
Created by FontForge 20170731 at Sat Feb  9 04:35:30 2019
 By Aleksey,,,
Copyright (c) 2004-2019, Phil's Fonts, Inc. &#38; Joshua Darden  All rights reserved. Published by Garagefonts USA 301-879-9222 www.garagefonts.com
</metadata>
<defs>
<font id="FreightSansLFProMedium-Regular" horiz-adv-x="1146" >
  <font-face 
    font-family="FreightSansLF Pro Medium"
    font-weight="500"
    font-stretch="normal"
    units-per-em="2000"
    panose-1="2 0 6 6 3 0 0 2 0 4"
    ascent="1600"
    descent="-400"
    x-height="1050"
    cap-height="1433"
    bbox="-454 -617 2777 2283"
    underline-thickness="40"
    underline-position="-306"
    unicode-range="U+000D-FB04"
  />
<missing-glyph 
 />
    <glyph glyph-name="ff" unicode="ff" horiz-adv-x="1472" 
d="M390 0h-188v878l-184 14l10 119l171 51l3 110q1 110 26.5 186.5t70.5 124t108.5 69t140.5 21.5q29 0 58.5 -4.5t57 -12t52 -16.5t43.5 -18q0 -1 -3.5 -14.5t-8.5 -33t-11 -41.5t-11 -41t-8.5 -31t-3.5 -11q-18 8 -39 16t-43 15t-44 11t-41 4q-80 0 -118 -51.5t-38 -170.5
v-124h557l2 145q2 110 27.5 186.5t70.5 124t108 69t140 21.5q29 0 58.5 -4.5t57.5 -12t52 -16.5t43 -18q0 -1 -3.5 -14.5t-8.5 -33t-10.5 -41.5t-10.5 -41t-8.5 -31t-3.5 -11q-37 16 -82.5 31t-85.5 15q-79 0 -117.5 -51.5t-38.5 -170.5v-147h333l-7 -170h-326v-880h-188
v880h-559v-880z" />
    <glyph glyph-name="fi" unicode="fi" horiz-adv-x="1231" 
d="M1105 1417q0 -27 -7.5 -51t-22.5 -43t-38.5 -30t-55.5 -11t-55 11t-38 30t-22.5 43t-7.5 51t7.5 51t22.5 43t38 30t55 11t55.5 -11t38.5 -30t22.5 -43t7.5 -51zM759 1545q0 -1 -3.5 -14.5t-8.5 -33t-11 -41.5t-11 -41t-8.5 -31t-3.5 -11q-18 8 -39 16t-43 15t-44 11
t-41 4q-80 0 -118 -51.5t-38 -170.5v-147h332l-7 -170h-325v-880h-188v878l-184 14l10 119l171 51l3 133q1 110 26.5 186.5t70.5 124t108.5 69t140.5 21.5q29 0 58.5 -4.5t57 -12t52 -16.5t43.5 -18zM887 0v1055l188 29v-1084h-188z" />
    <glyph glyph-name="fl" unicode="fl" horiz-adv-x="1238" 
d="M759 1545q0 -1 -3.5 -14.5t-8.5 -33t-11 -41.5t-11 -41t-8.5 -31t-3.5 -11q-18 8 -39 16t-43 15t-44 11t-41 4q-80 0 -118 -51.5t-38 -170.5v-147h332l-7 -170h-325v-880h-188v878l-184 14l10 119l171 51l3 133q1 110 26.5 186.5t70.5 124t108.5 69t140.5 21.5
q29 0 58.5 -4.5t57 -12t52 -16.5t43.5 -18zM887 0v1545l188 30v-1575h-188z" />
    <glyph glyph-name="ffi" unicode="ffi" horiz-adv-x="1979" 
d="M1853 1417q0 -27 -7.5 -51t-22.5 -43t-38.5 -30t-55.5 -11t-55.5 11t-38.5 30t-22.5 43t-7.5 51t7.5 51t22.5 43t38.5 30t55.5 11t55.5 -11t38.5 -30t22.5 -43t7.5 -51zM390 0h-188v878l-184 14l10 119l171 51l3 110q1 110 26.5 186.5t70.5 124t108.5 69t140.5 21.5
q29 0 58.5 -4.5t57 -12t52 -16.5t43.5 -18q0 -1 -3.5 -14.5t-8.5 -33t-11 -41.5t-11 -41t-8.5 -31t-3.5 -11q-18 8 -39 16t-43 15t-44 11t-41 4q-80 0 -118 -51.5t-38 -170.5v-124h557l2 145q2 110 27.5 186.5t70.5 124t108 69t140 21.5q29 0 58.5 -4.5t57.5 -12t52 -16.5
t43 -18q0 -1 -3.5 -14.5t-8.5 -33t-10.5 -41.5t-10.5 -41t-8.5 -31t-3.5 -11q-37 16 -82.5 31t-85.5 15q-79 0 -117.5 -51.5t-38.5 -170.5v-147h333l-7 -170h-326v-880h-188v880h-559v-880zM1635 0v1055l188 29v-1084h-188z" />
    <glyph glyph-name="ffl" unicode="ffl" horiz-adv-x="1986" 
d="M390 0h-188v878l-184 14l10 119l171 51l3 110q1 110 26.5 186.5t70.5 124t108.5 69t140.5 21.5q29 0 58.5 -4.5t57 -12t52 -16.5t43.5 -18q0 -1 -3.5 -14.5t-8.5 -33t-11 -41.5t-11 -41t-8.5 -31t-3.5 -11q-18 8 -39 16t-43 15t-44 11t-41 4q-80 0 -118 -51.5t-38 -170.5
v-124h557l2 145q2 110 27.5 186.5t70.5 124t108 69t140 21.5q29 0 58.5 -4.5t57.5 -12t52 -16.5t43 -18q0 -1 -3.5 -14.5t-8.5 -33t-10.5 -41.5t-10.5 -41t-8.5 -31t-3.5 -11q-37 16 -82.5 31t-85.5 15q-79 0 -117.5 -51.5t-38.5 -170.5v-147h333l-7 -170h-326v-880h-188
v880h-559v-880zM1635 0v1545l188 30v-1575h-188z" />
    <glyph glyph-name=".notdef" 
 />
    <glyph glyph-name=".null" horiz-adv-x="0" 
 />
    <glyph glyph-name="nonmarkingreturn" unicode="&#xd;" horiz-adv-x="523" 
 />
    <glyph glyph-name="NULL" horiz-adv-x="0" 
 />
    <glyph glyph-name="NULL" horiz-adv-x="0" 
 />
    <glyph glyph-name="space" unicode=" " horiz-adv-x="523" 
 />
    <glyph glyph-name="exclam" unicode="!" horiz-adv-x="631" 
d="M204 1495h227l-57 -1050h-110zM463 115q0 -29 -10.5 -56t-29.5 -47.5t-45.5 -33t-58.5 -12.5q-33 0 -60.5 12.5t-48 33t-32 47.5t-11.5 56t11.5 55.5t32 46t48 31t60.5 11.5q32 0 58.5 -11.5t45.5 -31t29.5 -46t10.5 -55.5z" />
    <glyph glyph-name="quotedbl" unicode="&#x22;" horiz-adv-x="697" 
d="M332 913l264 566l172 -83l-358 -483h-78zM-11 913l263 566l172 -83l-358 -483h-77z" />
    <glyph glyph-name="numbersign" unicode="#" horiz-adv-x="1284" 
d="M87 835v133h319l135 504h138l-136 -504h367l136 504h137l-135 -504h204v-133h-241l-89 -335h284v-133h-319l-144 -537h-138l145 537h-367l-145 -537h-137l144 537h-204v133h239l91 335h-284zM507 835l-90 -335h367l92 335h-369z" />
    <glyph glyph-name="dollar" unicode="$" 
d="M546 140q69 0 126 17.5t98.5 49.5t64.5 76t23 98q0 49 -16 85t-49.5 64.5t-84.5 50.5t-121 43l-64 -484h23zM633 1674h110l-30 -218q81 -14 157.5 -42t147.5 -73l-69 -169q-57 38 -123.5 64.5t-135.5 40.5l-2.5 -19t-7 -51t-10 -73t-11.5 -84q-14 -100 -31 -229
q52 -14 103.5 -32t98 -43t86.5 -58t69.5 -76t46 -97t16.5 -121q0 -93 -37 -171.5t-104 -135.5t-160.5 -89t-205.5 -32h-43l-1 -10.5t-3.5 -28t-5.5 -40t-6 -45.5q-8 -55 -17 -124h-110l35 261q-88 14 -171 44.5t-155 77.5l64 176q64 -43 134.5 -75.5t150.5 -47.5l68 499
q-73 22 -143.5 51.5t-126 76.5t-90 115.5t-34.5 167.5q0 90 35 164.5t98 127.5t150.5 82t193.5 29h41zM582 1291h-16q-77 0 -131.5 -16.5t-89.5 -45.5t-51.5 -67.5t-16.5 -83.5q0 -46 16 -80t47 -60.5t77 -47t106 -39.5z" />
    <glyph glyph-name="percent" unicode="%" horiz-adv-x="1697" 
d="M793 1105q0 -77 -26 -145.5t-75.5 -120t-120 -82t-158.5 -30.5t-158.5 30.5t-120 82t-76 120t-26.5 145.5q0 78 26.5 148t76 122t120 82.5t158.5 30.5t158.5 -30.5t120 -82.5t75.5 -122t26 -148zM351 -34h-145l1142 1499h145zM1665 326q0 -78 -26.5 -148t-76 -122
t-120 -82.5t-158.5 -30.5q-89 0 -159.5 30.5t-119.5 82.5t-75.5 122t-26.5 148q0 76 26.5 145t75.5 120.5t119.5 82t159.5 30.5q88 0 158.5 -30.5t120 -82t76 -120.5t26.5 -145zM669 1105q0 55 -17.5 103t-50.5 84t-80.5 56.5t-107.5 20.5t-108 -20.5t-81 -56.5t-50.5 -84
t-17.5 -103q0 -51 17.5 -98t50.5 -83t81 -57t108 -21t107.5 21t80.5 57t50.5 83t17.5 98zM1541 326q0 51 -17.5 98t-51 83t-81 57t-107.5 21t-108 -21t-81 -57t-50.5 -83t-17.5 -98q0 -55 17.5 -103t50.5 -84t81 -56.5t108 -20.5t107.5 20.5t81 56.5t51 84t17.5 103z" />
    <glyph glyph-name="ampersand" unicode="&#x26;" horiz-adv-x="1426" 
d="M990 289q-51 -73 -107 -132.5t-118.5 -102t-131.5 -65.5t-145 -23q-104 0 -185 32t-136.5 87t-84.5 128t-29 156q0 71 27.5 133t74.5 112t110.5 86.5t135.5 56.5q-119 63 -177.5 145.5t-58.5 191.5q0 68 28.5 134.5t83 119t134 85t181.5 32.5q96 0 169 -29.5t122.5 -78
t75 -112t25.5 -131.5q0 -57 -20.5 -108t-57.5 -94t-87 -77t-108 -58q32 -15 69.5 -41.5t76.5 -60.5t78 -73t74 -79l220 344h220l-351 -447l349 -420l-204 -34zM592 835q45 19 83 45t65.5 58.5t42.5 72.5t15 87q0 45 -15.5 82.5t-45 65.5t-70.5 43.5t-92 15.5t-91.5 -16.5
t-68.5 -43.5t-42.5 -63t-14.5 -75q0 -49 14.5 -88t44 -72t73 -60t102.5 -52zM908 390q-47 54 -96.5 102.5t-99 88.5t-99.5 70.5t-99 47.5q-59 -27 -108 -60.5t-85 -72.5t-56 -84t-20 -97q0 -51 18 -97.5t52 -81t84 -55t115 -20.5q56 0 109 18t102.5 52t95.5 82t87 107z" />
    <glyph glyph-name="quotesingle" unicode="'" horiz-adv-x="353" 
d="M-11 913l263 566l172 -83l-358 -483h-77z" />
    <glyph glyph-name="parenleft" unicode="(" horiz-adv-x="835" 
d="M796 -589q-68 34 -142 88t-145.5 128t-136 166t-113 202t-77 237t-28.5 270t28.5 270t77 237.5t112.5 203t135 166.5t144.5 128.5t141.5 88.5l83 -119q-62 -34 -127.5 -86t-127.5 -120t-116.5 -151t-96 -180t-65.5 -207t-24 -231q0 -120 24 -229.5t65.5 -206.5t96 -180
t116.5 -151t127.5 -119.5t127.5 -85.5l-80 -119v0z" />
    <glyph glyph-name="parenright" unicode=")" horiz-adv-x="835" 
d="M-41 -470q62 34 128 85.5t127.5 119.5t116.5 151t96 180t65 206.5t24 229.5q0 121 -24 231t-65 207t-96 180t-116.5 151t-127.5 120t-128 86l82 119q68 -34 141.5 -88.5t144.5 -128.5t135.5 -166.5t113 -203t77 -237.5t28.5 -270t-28.5 -270t-77 -237t-113 -202
t-136 -166t-145.5 -128t-142 -88z" />
    <glyph glyph-name="asterisk" unicode="*" horiz-adv-x="786" 
d="M149 786l-126 161l323 140v11l-314 145l115 162l234 -265l9 2l43 344l186 -60l-179 -303l7 -6l330 66v-193l-330 69l-7 -7l172 -305l-186 -55l-39 347l-6 2z" />
    <glyph glyph-name="plus" unicode="+" 
d="M658 456v-390h-160v390h-388l7 163h381v388h160v-388h376l7 -163h-383z" />
    <glyph glyph-name="comma" unicode="," horiz-adv-x="504" 
d="M94 144q3 28 14.5 52.5t31 43t47 29.5t63.5 11q35 0 70 -15.5t62.5 -43.5t45 -67t17.5 -85q0 -71 -29 -133.5t-77 -118t-109 -104t-125 -91.5l-80 80q119 87 176.5 159t57.5 132q0 21 -8.5 39.5t-27.5 36t-51 36t-78 39.5z" />
    <glyph glyph-name="hyphen" unicode="-" horiz-adv-x="711" 
d="M76 468v176h564v-176h-564z" />
    <glyph glyph-name="period" unicode="." horiz-adv-x="504" 
d="M401 115q0 -29 -10.5 -56t-29.5 -47.5t-45.5 -33t-58.5 -12.5q-33 0 -60 12.5t-47 33t-31 47.5t-11 56t11 55.5t31 46t47 31t60 11.5q32 0 58.5 -11.5t45.5 -31t29.5 -46t10.5 -55.5z" />
    <glyph glyph-name="slash" unicode="/" horiz-adv-x="498" 
d="M18 -456h-137l557 2066h137z" />
    <glyph glyph-name="zero" unicode="0" 
d="M1066 720q0 -174 -35 -313.5t-100 -237.5t-157 -150.5t-205 -52.5q-114 0 -204.5 52t-153.5 149t-97 235.5t-34 312.5q0 173 35 312t100 237t157 150.5t206 52.5q113 0 203.5 -52t153.5 -148.5t97 -235t34 -311.5zM878 713q0 155 -24 266.5t-65.5 183t-98 105.5
t-121.5 34t-120 -33.5t-95 -104t-63 -181.5t-23 -265q0 -152 24 -262t66 -181t98.5 -105.5t121.5 -34.5t120 33.5t95 104t62.5 180t22.5 260.5z" />
    <glyph glyph-name="one" unicode="1" 
d="M575 1222l-357 -96l-7 174l543 151v-1451h-179v1222z" />
    <glyph glyph-name="two" unicode="2" 
d="M112 0l-9 186q108 102 201.5 187t170 158.5t136 137.5t100 124.5t61.5 119t21 121.5q0 58 -20 106t-56 82t-85.5 52.5t-108.5 18.5q-46 0 -92 -11.5t-90 -32t-85 -48.5t-75 -61l-66 165q33 31 79.5 59.5t101 51t115 36t123.5 13.5q100 0 183.5 -31t143 -87t92.5 -134.5
t33 -173.5q0 -102 -44 -194t-130 -191.5t-213 -215.5t-294 -266h715l9 -172h-917z" />
    <glyph glyph-name="three" unicode="3" 
d="M608 759q109 0 188 -29.5t130.5 -78.5t76 -112t24.5 -129q0 -102 -41 -184t-111.5 -140t-164 -89t-199.5 -31q-53 0 -109.5 7.5t-110.5 21t-102.5 31t-83.5 38.5l35 174q33 -18 75 -36.5t90.5 -33t101.5 -24t107 -9.5q63 0 121.5 16.5t102.5 49t70.5 80t26.5 109.5
q0 54 -21.5 100t-63 79t-102.5 52t-139 19q-24 0 -51.5 -1.5t-55 -4.5t-54.5 -7t-50 -8v156q106 25 194.5 55t153 69t100.5 87.5t36 109.5q0 45 -16.5 81.5t-48.5 62.5t-79 40.5t-108 14.5q-42 0 -88 -10t-91.5 -28.5t-88.5 -45.5t-79 -60l-71 167q38 30 86.5 57.5t103 47.5
t113 32t117.5 12q97 0 178 -23.5t139 -68t90.5 -109.5t32.5 -147q0 -128 -95 -219t-269 -141z" />
    <glyph glyph-name="four" unicode="4" 
d="M894 365v-365h-169v365h-652l-20 128l646 951h195v-917h218l7 -162h-225zM725 1220l-470 -693h470v693z" />
    <glyph glyph-name="five" unicode="5" 
d="M349 841q29 8 69.5 13.5t97.5 5.5q107 0 198 -28.5t157 -83t103 -133.5t37 -179q0 -104 -36.5 -190.5t-102.5 -148.5t-158 -96.5t-203 -34.5q-56 0 -112 7.5t-107.5 21t-96.5 31t-78 38.5l34 179q34 -21 76 -40t89.5 -33.5t97.5 -23t100 -8.5q69 0 126 18.5t98 54.5
t64 90t23 125q0 60 -21.5 110t-63 85t-101.5 54.5t-137 19.5q-47 0 -92 -5t-85 -14t-73 -20t-57 -23l-39 34l99 766h731l7 -179h-592l-52 -413v0z" />
    <glyph glyph-name="six" unicode="6" 
d="M96 559q0 99 21.5 195.5t64.5 186.5t108 171.5t152 149t196.5 119t241.5 82.5l46 -154q-126 -32 -232.5 -84.5t-188.5 -124.5t-139 -162.5t-84 -196.5l7 -3q71 68 167 107.5t202 39.5q85 0 159 -31.5t128.5 -89t85.5 -139.5t31 -182q0 -102 -33.5 -189t-95 -151
t-148.5 -100.5t-193 -36.5q-126 0 -219 48t-154.5 129.5t-92 189t-30.5 226.5zM277 507q0 -75 21 -143t62 -119t101.5 -81.5t139.5 -30.5q63 0 114 22.5t87 62.5t56 95t20 120q0 67 -18.5 120t-53.5 89.5t-84.5 56t-111.5 19.5q-49 0 -96 -10.5t-89 -28t-76.5 -40
t-59.5 -45.5q-5 -19 -8.5 -41t-3.5 -46z" />
    <glyph glyph-name="seven" unicode="7" 
d="M89 1254l7 179h929l21 -156l-642 -1277h-188l637 1254h-764z" />
    <glyph glyph-name="eight" unicode="8" 
d="M1055 378q0 -83 -31 -158t-91.5 -131.5t-151 -89.5t-210.5 -33q-124 0 -214.5 31.5t-150 85.5t-88.5 125.5t-29 151.5q0 74 26.5 133t68 104t91 78t94.5 54q-51 27 -97.5 58.5t-81 71t-55 88.5t-20.5 110q0 89 32 165t92.5 131t148 86t197.5 31q115 0 199.5 -32.5
t139.5 -87t81.5 -126t26.5 -149.5q0 -66 -22.5 -120.5t-58 -99t-79.5 -78t-88 -57.5q54 -29 103.5 -61.5t86.5 -73.5t59 -92t22 -115zM851 1057q0 58 -21.5 104t-58.5 78.5t-86.5 50t-106.5 17.5q-69 0 -121.5 -18.5t-87.5 -50t-53 -73t-18 -87.5q0 -55 28 -100.5
t76.5 -82.5t113 -64.5t137.5 -46.5q44 21 80.5 48.5t62.5 61.5t40.5 75t14.5 88zM871 355q0 61 -30 110t-80.5 87t-117.5 66.5t-141 48.5q-50 -21 -92.5 -49.5t-73 -64.5t-48 -80t-17.5 -95q0 -57 23 -103t64 -78.5t97.5 -50.5t124.5 -18q143 0 217 60t74 167z" />
    <glyph glyph-name="nine" unicode="9" 
d="M1048 874q0 -148 -48 -290.5t-145.5 -263t-245 -212.5t-345.5 -138l-46 154q127 32 233.5 84.5t188.5 124.5t138.5 162t83.5 197l-7 3q-71 -68 -167 -107.5t-202 -39.5q-85 0 -158.5 31.5t-127.5 89t-84.5 139t-30.5 182.5q0 102 33 189t94 151t147.5 100.5t193.5 36.5
q125 0 218 -48t154.5 -129.5t92 -189t30.5 -226.5zM867 926q0 75 -21 143t-61.5 119t-100.5 81.5t-138 30.5q-64 0 -115.5 -22.5t-88 -62.5t-56.5 -95t-20 -120q0 -67 18.5 -120t53.5 -89.5t84.5 -56t111.5 -19.5q49 0 96 10.5t89 28t76.5 40t59.5 45.5q5 19 8.5 41t3.5 46z
" />
    <glyph glyph-name="colon" unicode=":" horiz-adv-x="504" 
d="M401 821q0 -29 -10.5 -56t-29.5 -47.5t-45.5 -33t-58.5 -12.5q-33 0 -60 12.5t-47 33t-31 47.5t-11 56t11 55.5t31 46t47 31t60 11.5q32 0 58.5 -11.5t45.5 -31t29.5 -46t10.5 -55.5zM401 115q0 -29 -10.5 -56t-29.5 -47.5t-45.5 -33t-58.5 -12.5q-33 0 -60 12.5t-47 33
t-31 47.5t-11 56t11 55.5t31 46t47 31t60 11.5q32 0 58.5 -11.5t45.5 -31t29.5 -46t10.5 -55.5z" />
    <glyph glyph-name="semicolon" unicode=";" horiz-adv-x="504" 
d="M401 821q0 -29 -10.5 -56t-29.5 -47.5t-45.5 -33t-58.5 -12.5q-33 0 -60 12.5t-47 33t-31 47.5t-11 56t11 55.5t31 46t47 31t60 11.5q32 0 58.5 -11.5t45.5 -31t29.5 -46t10.5 -55.5zM94 144q3 28 14.5 52.5t31 43t47 29.5t63.5 11q35 0 70 -15.5t62.5 -43.5t45 -67
t17.5 -85q0 -71 -29 -133.5t-77 -118t-109 -104t-125 -91.5l-80 80q119 87 176.5 159t57.5 132q0 21 -8.5 39.5t-27.5 36t-51 36t-78 39.5z" />
    <glyph glyph-name="less" unicode="&#x3c;" 
d="M1027 39l-922 433v136l920 433v-181l-681 -310v-23l683 -307v-181z" />
    <glyph glyph-name="equal" unicode="=" 
d="M131 665l-12 163h913l-12 -163h-889zM119 248l12 162h889l12 -162h-913z" />
    <glyph glyph-name="greater" unicode="&#x3e;" 
d="M96 39v181l684 307v23l-681 310v181l919 -433v-136z" />
    <glyph glyph-name="question" unicode="?" horiz-adv-x="816" 
d="M727 1096q0 -76 -21.5 -126.5t-56 -84.5t-77.5 -55t-86 -37q-36 -14 -68 -26.5t-56 -29t-38 -38t-14 -52.5q0 -27 10.5 -52t28 -49t40.5 -47.5t47 -46.5l-90 -28q-32 19 -64 45.5t-57.5 59.5t-41.5 71.5t-16 82.5q0 58 20 98t52.5 68.5t74 48t83.5 35.5q37 14 70.5 28
t59 32.5t40.5 42.5t15 58q0 39 -19 73.5t-57 61t-95.5 42t-133.5 15.5q-45 0 -87 -6.5t-73 -11.5v176q32 9 73.5 15t100.5 6q96 0 176 -30t137.5 -80.5t90 -117.5t32.5 -141zM493 115q0 -29 -10.5 -56t-30 -47.5t-46.5 -33t-60 -12.5q-32 0 -59 12.5t-47 33t-31.5 47.5
t-11.5 56t11.5 55.5t31.5 46t47 31t59 11.5q33 0 60 -11.5t46.5 -31t30 -46t10.5 -55.5z" />
    <glyph glyph-name="at" unicode="@" horiz-adv-x="1898" 
d="M1254 472q-23 -115 10.5 -180t129.5 -65q66 0 125.5 30.5t104.5 90.5t71.5 149t26.5 205q0 102 -28.5 191.5t-79.5 164t-120.5 133t-152.5 99t-175 62t-187 21.5q-111 0 -212.5 -30t-189.5 -84t-160 -129.5t-123.5 -166t-79.5 -194t-28 -212.5q0 -104 24 -200.5
t69.5 -180.5t110 -152.5t145.5 -117.5t176 -76t202 -27q72 0 142.5 12.5t139.5 33.5l25 -85q-80 -26 -154 -39.5t-158 -13.5q-120 0 -227.5 29.5t-199 84t-165 131.5t-125 170.5t-79 202t-27.5 226.5q0 124 31.5 239.5t89 216t138.5 184t180 143t214 92.5t241 33
q112 0 218.5 -24t200 -69.5t172 -112t134.5 -151t87.5 -186t31.5 -218.5q0 -146 -38 -258t-101 -188t-145 -115.5t-170 -39.5q-94 0 -162.5 43t-101.5 124q-60 -69 -129.5 -102t-140.5 -33q-73 0 -134 29t-105.5 80t-69 119.5t-24.5 147.5q0 106 37.5 201t103 165.5
t154.5 112t191 41.5q56 0 113.5 -16t104.5 -36l158 52zM1172 812q-35 36 -87.5 60t-114.5 24q-70 0 -127 -32t-97.5 -84.5t-63 -118.5t-22.5 -134q0 -59 17.5 -107t47.5 -82t70.5 -52t87.5 -18q59 0 105.5 23.5t91.5 61.5z" />
    <glyph glyph-name="A" unicode="A" horiz-adv-x="1316" 
d="M1305 0h-200l-135 376h-621l-136 -376h-202l539 1433h223zM660 1231l-247 -678h493z" />
    <glyph glyph-name="B" unicode="B" horiz-adv-x="1298" 
d="M910 738q143 -36 217 -124t74 -208q0 -91 -31 -166t-96 -128t-165.5 -82.5t-239.5 -29.5h-488v1433h475q130 0 224 -28t155.5 -78t91 -120.5t29.5 -154.5q0 -110 -62.5 -189.5t-183.5 -124.5zM961 1036q0 104 -73.5 161t-215.5 57h-296v-449h266q77 0 136.5 16.5
t100 46.5t61.5 72.5t21 95.5zM1007 404q0 62 -26 104.5t-72.5 69t-110.5 38.5t-140 12h-282v-449h312q319 0 319 225z" />
    <glyph glyph-name="C" unicode="C" horiz-adv-x="1378" 
d="M1215 1172q-47 31 -93.5 53.5t-94 37.5t-98 22.5t-106.5 7.5q-117 0 -213 -39t-164 -113t-105.5 -180t-37.5 -239t38 -240.5t107 -183.5t165.5 -117t214.5 -41q57 0 113.5 11t109 30t99 44.5t84.5 54.5l32 -195q-44 -28 -96 -50t-109 -37.5t-117.5 -23.5t-120.5 -8
q-157 0 -289 52.5t-227 150t-148.5 235.5t-53.5 309t53.5 310t149 238t227.5 152.5t288 53.5q61 0 123 -8t121 -23.5t112.5 -37.5t97.5 -50z" />
    <glyph glyph-name="D" unicode="D" horiz-adv-x="1477" 
d="M1371 727q0 -166 -50.5 -300.5t-148.5 -229t-241 -146t-328 -51.5h-422v1433h431q178 0 319 -50.5t238.5 -143t149.5 -222.5t52 -290zM1176 713q0 132 -38.5 233t-112 169t-180 102.5t-242.5 34.5h-227v-1071h236q128 0 232.5 34t178 100.5t113.5 166t40 231.5z" />
    <glyph glyph-name="E" unicode="E" horiz-adv-x="1199" 
d="M181 0v1433h908v-181h-713v-443h594v-181h-594v-447h713v-181h-908z" />
    <glyph glyph-name="F" unicode="F" horiz-adv-x="1135" 
d="M181 1433h885v-183h-690v-466h571v-181h-571v-603h-195v1433z" />
    <glyph glyph-name="G" unicode="G" horiz-adv-x="1467" 
d="M1328 103q-56 -35 -120.5 -60.5t-130.5 -42.5t-131 -25.5t-123 -8.5q-157 0 -289 52.5t-227 150t-148.5 235.5t-53.5 309t53.5 310t149 238t227.5 152.5t288 53.5q63 0 128.5 -8.5t128 -24.5t119 -39t101.5 -51l-64 -179q-43 27 -92.5 50.5t-102 41t-108 27t-110.5 9.5
q-117 0 -213 -39t-164 -113t-105.5 -180t-37.5 -239t38 -240.5t107 -183.5t165.5 -117t214.5 -41q90 0 169 21t143 52v340h-402v181h590v-631v0z" />
    <glyph glyph-name="H" unicode="H" horiz-adv-x="1536" 
d="M1162 0v633h-786v-633h-195v1433h195v-624h786v624h193v-1433h-193z" />
    <glyph glyph-name="I" unicode="I" horiz-adv-x="566" 
d="M186 0v1433h192v-1433h-192z" />
    <glyph glyph-name="J" unicode="J" horiz-adv-x="958" 
d="M780 436q0 -105 -25 -191.5t-78 -148.5t-134.5 -96t-193.5 -34q-47 0 -91.5 7t-85 19.5t-76.5 28.5t-64 34l30 188q66 -45 135.5 -73t148.5 -28q125 0 183 75.5t58 227.5v988h193v-997v0z" />
    <glyph glyph-name="K" unicode="K" horiz-adv-x="1256" 
d="M378 750l608 683h245l-662 -708l669 -725h-250l-610 681h-2v-681h-195v1433h195v-683h2z" />
    <glyph glyph-name="L" unicode="L" horiz-adv-x="1133" 
d="M181 0v1433h195v-1250h692v-183h-887z" />
    <glyph glyph-name="M" unicode="M" horiz-adv-x="1770" 
d="M1417 1192l-436 -1171h-195l-437 1174l-17 -1195h-190l48 1433h259l441 -1178l438 1178h254l46 -1433h-197z" />
    <glyph glyph-name="N" unicode="N" horiz-adv-x="1532" 
d="M1160 1433h190v-1447h-210l-769 1170v-1156h-190v1433h216l763 -1156v1156z" />
    <glyph glyph-name="O" unicode="O" horiz-adv-x="1651" 
d="M1545 722q0 -161 -53 -299t-148.5 -239.5t-228 -159.5t-290.5 -58q-157 0 -289 53t-228 150.5t-149.5 235.5t-53.5 308q0 107 24 204.5t69 181.5t109 152t144 116t174.5 74t199.5 26q157 0 289.5 -52.5t228 -149.5t149 -235t53.5 -308zM1350 713q0 132 -38.5 239.5
t-108.5 183t-167 116.5t-215 41q-114 0 -209.5 -41t-164 -115.5t-106.5 -180t-38 -234.5q0 -132 38 -239.5t107.5 -183.5t166.5 -117.5t215 -41.5q114 0 209.5 41t164.5 116.5t107.5 181t38.5 234.5z" />
    <glyph glyph-name="P" unicode="P" horiz-adv-x="1231" 
d="M1146 970q0 -121 -40.5 -212.5t-116 -153.5t-183.5 -94t-242 -33l-188 -2v-475h-195v1433h397q147 0 254 -34.5t177 -96.5t103.5 -147t33.5 -185zM949 961q0 145 -94 218t-286 73h-193v-594l209 5q181 3 272.5 80.5t91.5 217.5z" />
    <glyph glyph-name="Q" unicode="Q" horiz-adv-x="1651" 
d="M1589 -186l-85 -169l-617 325q-14 -2 -30 -3t-32 -1q-157 0 -289 53t-228 150.5t-149.5 235.5t-53.5 308q0 107 24 204.5t69 181.5t109 152t144 116t174.5 74t199.5 26q157 0 289.5 -52.5t228 -149.5t149 -235t53.5 -308q0 -116 -29 -220.5t-82 -193t-128.5 -157
t-168.5 -112.5zM1350 713q0 132 -38.5 239.5t-108.5 183t-167 116.5t-215 41q-114 0 -209.5 -41t-164 -115.5t-106.5 -180t-38 -234.5q0 -132 38 -240t107.5 -184.5t166.5 -118t215 -41.5q114 0 209.5 41.5t164.5 117t107.5 181.5t38.5 235z" />
    <glyph glyph-name="R" unicode="R" horiz-adv-x="1250" 
d="M376 0h-195v1433h429q130 0 228.5 -30t165 -84.5t100 -132t33.5 -173.5q0 -81 -23 -146.5t-65 -116.5t-101.5 -88t-133.5 -61l387 -601h-231l-349 569l-245 -16v-553zM612 731q70 3 130.5 21t105 52t69.5 84t25 116q0 64 -25 111t-71 78t-111.5 46t-147.5 15h-211v-529z
" />
    <glyph glyph-name="S" unicode="S" horiz-adv-x="1167" 
d="M566 140q68 0 125 17.5t98.5 49.5t65 76t23.5 98q0 55 -21 94t-63.5 69t-107 53.5t-152.5 46.5q-77 21 -153.5 50t-137.5 76.5t-99.5 118.5t-38.5 175q0 90 35 164.5t98 127.5t151.5 82t195.5 29q125 0 236.5 -31t214.5 -95l-68 -169q-41 27 -88 49t-96 37.5t-99 24
t-98 8.5q-77 0 -132.5 -16.5t-90.5 -45.5t-51.5 -67.5t-16.5 -83.5q0 -54 22.5 -92.5t66.5 -67t109 -51.5t150 -46q78 -21 154 -52t135.5 -80.5t96 -121t36.5 -173.5q0 -93 -36.5 -171.5t-103 -135.5t-159.5 -89t-205 -32q-63 0 -126.5 9t-124.5 26t-119 42t-109 58l64 176
q45 -30 93 -55t99.5 -43.5t107.5 -28.5t119 -10z" />
    <glyph glyph-name="T" unicode="T" horiz-adv-x="1284" 
d="M738 1250v-1250h-192v1250h-502v183h1196v-183h-502z" />
    <glyph glyph-name="U" unicode="U" horiz-adv-x="1481" 
d="M1302 553q0 -136 -35.5 -245t-106 -185t-176 -116.5t-246.5 -40.5q-135 0 -239 40t-175.5 114t-108 178.5t-36.5 233.5v901h192v-871q0 -97 23.5 -173.5t70.5 -130t118 -81.5t167 -28q83 0 150 24.5t113.5 74.5t71.5 124.5t25 175.5v885h192v-880v0z" />
    <glyph glyph-name="V" unicode="V" horiz-adv-x="1291" 
d="M754 0h-224l-530 1433h199l445 -1224l445 1224h202z" />
    <glyph glyph-name="W" unicode="W" horiz-adv-x="2059" 
d="M669 0h-190l-408 1433h204l310 -1167l337 1167h224l347 -1167l305 1167h190l-406 -1433h-195l-355 1192z" />
    <glyph glyph-name="X" unicode="X" horiz-adv-x="1316" 
d="M257 0h-229l513 720l-497 713h238l374 -562l385 562h232l-503 -702l519 -731h-243l-393 589z" />
    <glyph glyph-name="Y" unicode="Y" horiz-adv-x="1238" 
d="M718 569v-569h-195v571l-500 862h220l381 -669l376 669h215z" />
    <glyph glyph-name="Z" unicode="Z" horiz-adv-x="1195" 
d="M53 0v147l811 1105h-798v181h1041v-151l-809 -1101h807v-181h-1052z" />
    <glyph glyph-name="bracketleft" unicode="[" horiz-adv-x="839" 
d="M190 -509v2057h629v-149h-466v-1759h466v-149h-629z" />
    <glyph glyph-name="backslash" unicode="\" horiz-adv-x="498" 
d="M60 1610l557 -2066h-138l-557 2066h138z" />
    <glyph glyph-name="bracketright" unicode="]" horiz-adv-x="839" 
d="M23 -360h465v1759h-465v149h628v-2057h-628v149z" />
    <glyph glyph-name="asciicircum" unicode="^" horiz-adv-x="903" 
d="M686 1192l-225 291h-2l-227 -291h-138l264 429h201l264 -429h-137z" />
    <glyph glyph-name="underscore" unicode="_" horiz-adv-x="1057" 
d="M-28 -135v135h1112v-135h-1112z" />
    <glyph glyph-name="grave" unicode="`" horiz-adv-x="903" 
d="M498 1192l-335 415h229l243 -415h-137z" />
    <glyph glyph-name="a" unicode="a" horiz-adv-x="1034" 
d="M702 523q-117 -16 -198.5 -36.5t-132 -48.5t-73.5 -64.5t-23 -84.5q0 -35 13 -65t37 -52t58.5 -34t77.5 -12q72 0 134 32t107 80v285zM699 112q-60 -71 -132 -108.5t-157 -37.5q-74 0 -135.5 23t-105.5 63.5t-68.5 95t-24.5 118.5q0 70 29 134.5t100 115.5t192 84t305 42
v30q0 63 -13 108.5t-41.5 74t-73.5 42t-109 13.5q-40 0 -84 -9t-88.5 -24.5t-87 -37t-79.5 -46.5l-37 170q34 24 79.5 46t97 38.5t107 26.5t111.5 10q106 0 183.5 -23.5t127.5 -73t73 -126.5t22 -185v-440q0 -33 3 -53t14 -31t31 -15t55 -4l-12 -158q-63 -5 -110 3
t-79.5 26.5t-53 46t-30.5 61.5h-9z" />
    <glyph glyph-name="b" unicode="b" horiz-adv-x="1199" 
d="M1112 530q0 -120 -39.5 -223t-110 -178.5t-168.5 -119t-216 -43.5q-23 0 -52 2.5t-60 7t-60.5 10.5t-54.5 14l-188 -34v1579l188 30v-621q28 27 60 50.5t68 41t77 28t88 10.5q111 0 198 -42t147 -116.5t91.5 -176t31.5 -219.5zM917 525q0 87 -21.5 158t-61.5 121.5
t-98 78t-131 27.5q-74 0 -137 -27t-117 -74v-598q47 -38 106 -57t128 -19q80 0 142 30.5t104 83.5t64 124t22 152z" />
    <glyph glyph-name="c" unicode="c" horiz-adv-x="1046" 
d="M956 53q-71 -44 -158.5 -65.5t-187.5 -21.5q-125 0 -221 40.5t-161.5 114.5t-99.5 176.5t-34 227.5q0 126 39.5 229t110 176.5t167.5 113.5t213 40q102 0 184.5 -22t154.5 -67l-48 -172q-66 45 -139 66t-152 21q-81 0 -143.5 -26.5t-105 -76t-64.5 -120.5t-22 -160
q0 -91 24 -163t67.5 -121.5t104 -76t134.5 -26.5q83 0 161 22t142 65l34 -174v0z" />
    <glyph glyph-name="d" unicode="d" horiz-adv-x="1206" 
d="M855 1545l188 30v-1575h-188v96q-28 -27 -60 -50.5t-68 -41t-77.5 -28t-87.5 -10.5q-111 0 -198 42t-147 116.5t-91.5 175.5t-31.5 220q0 120 39.5 223t110 178.5t168.5 119t216 43.5q57 0 117 -9t110 -25v495zM855 839q-47 38 -106 57t-128 19q-80 0 -142 -30.5
t-104 -83.5t-64 -124t-22 -152q0 -87 21.5 -158t61.5 -121.5t98 -78t131 -27.5q74 0 137 27t117 74v598z" />
    <glyph glyph-name="e" unicode="e" horiz-adv-x="1101" 
d="M284 493q3 -77 29 -142t71.5 -112t108 -73t138.5 -26q83 0 166.5 22t147.5 65l34 -174q-71 -44 -162 -65.5t-191 -21.5q-119 0 -216.5 40.5t-168 113t-109 173.5t-38.5 221q0 127 39.5 232t109.5 180t164.5 116.5t204.5 41.5q96 0 170.5 -29t125.5 -82.5t78 -129
t27 -169.5q0 -43 -6 -87.5t-17 -79.5l-31 -0.5t-80.5 -1t-113 -1t-129.5 -0.5l-352 -2v-9zM832 644v16q0 58 -14 106t-43 82t-74 52.5t-107 18.5q-67 0 -120 -24.5t-91 -64t-61 -89.5t-29 -101z" />
    <glyph glyph-name="f" unicode="f" horiz-adv-x="725" 
d="M759 1545q0 -1 -3.5 -14.5t-8.5 -33t-11 -41.5t-11 -41t-8.5 -31t-3.5 -11q-18 8 -39 16t-43 15t-44 11t-41 4q-80 0 -118 -51.5t-38 -170.5v-147h332l-7 -170h-325v-880h-188v878l-184 14l10 119l171 51l3 133q1 110 26.5 186.5t70.5 124t108.5 69t140.5 21.5
q29 0 58.5 -4.5t57 -12t52 -16.5t43.5 -18z" />
    <glyph glyph-name="g" unicode="g" horiz-adv-x="1091" 
d="M291 686q0 -53 17 -96t49 -73.5t77.5 -47.5t102.5 -17q51 0 92.5 17.5t71 50t45 77.5t15.5 100q0 52 -15 95t-45 74.5t-75.5 49t-105.5 17.5q-51 0 -93.5 -18t-72.5 -50.5t-46.5 -78t-16.5 -100.5zM383 -50q-40 -11 -73 -28t-57 -39t-37.5 -48t-13.5 -55q0 -42 24 -77.5
t67.5 -62t104.5 -41t136 -14.5q74 0 138.5 15.5t112 43t75 67t27.5 87.5q0 43 -19.5 70.5t-58.5 43.5t-98 22t-138 6q-50 0 -102.5 3t-87.5 7zM241 -16q-68 29 -103 75t-35 101q0 33 12.5 64t35 57.5t55 48t71.5 35.5q-83 48 -128.5 131t-45.5 192q0 77 28.5 148.5t83 126.5
t134 88t181.5 33q85 0 152.5 -18t117.5 -41l271 25l7 -186l-202 37q15 -15 28 -39.5t22.5 -53.5t15 -61t5.5 -61q0 -79 -31 -149.5t-86.5 -123t-133 -83t-169.5 -30.5q-20 0 -36.5 1.5t-33 4.5t-35 8t-41.5 12q-17 -6 -35 -16.5t-33.5 -25t-25.5 -32t-10 -36.5
q0 -23 9.5 -41.5t36 -31.5t73 -19.5t120.5 -6.5h96q235 0 347 -71.5t112 -210.5q0 -87 -44 -161t-120.5 -128t-180 -84.5t-222.5 -30.5q-104 0 -193 21.5t-154.5 62t-103 97t-37.5 127.5q0 45 15 84.5t43.5 72t70.5 55t96 33.5z" />
    <glyph glyph-name="h" unicode="h" horiz-adv-x="1185" 
d="M844 0v660q0 68 -13 114.5t-39 75t-64.5 41t-90.5 12.5q-45 0 -87.5 -10t-79 -26t-67 -36.5t-52.5 -41.5v-789h-188v1545l188 30v-644q72 72 162.5 112.5t190.5 40.5q76 0 136.5 -24.5t103 -71t65.5 -114t23 -152.5v-722h-188z" />
    <glyph glyph-name="i" unicode="i" horiz-adv-x="514" 
d="M381 1417q0 -27 -7.5 -51t-22.5 -43t-38.5 -30t-55.5 -11t-55.5 11t-38.5 30t-22.5 43t-7.5 51t7.5 51t22.5 43t38.5 30t55.5 11t55.5 -11t38.5 -30t22.5 -43t7.5 -51zM163 0v1055l188 29v-1084h-188z" />
    <glyph glyph-name="j" unicode="j" horiz-adv-x="507" 
d="M381 1417q0 -27 -7.5 -51t-22.5 -43t-38.5 -30t-55.5 -11t-55.5 11t-38.5 30t-22.5 43t-7.5 51t7.5 51t22.5 43t38.5 30t55.5 11t55.5 -11t38.5 -30t22.5 -43t7.5 -51zM-21 -438q49 23 84 53.5t57 75t32.5 106t10.5 146.5v1112l188 29v-1128q0 -113 -13.5 -195.5
t-42.5 -144.5t-76 -106.5t-114 -80.5z" />
    <glyph glyph-name="k" unicode="k" horiz-adv-x="1046" 
d="M351 518v-518h-188v1545l188 30v-1006h4l434 481h238l-481 -497l483 -553h-240l-434 518h-4z" />
    <glyph glyph-name="l" unicode="l" horiz-adv-x="514" 
d="M163 0v1545l188 30v-1575h-188z" />
    <glyph glyph-name="m" unicode="m" horiz-adv-x="1816" 
d="M1474 0v656q0 69 -12.5 116.5t-37.5 77t-62.5 43t-88.5 13.5q-44 0 -82.5 -10.5t-72 -27.5t-61.5 -38.5t-50 -43.5v-64v-722h-188v656q0 69 -12.5 116.5t-38 77t-63 43t-88.5 13.5q-44 0 -82.5 -9t-72 -24t-61.5 -34.5t-50 -40.5v-798h-188v1055l188 29v-144
q76 72 159 108t178 36q91 0 163 -43t112 -131q85 85 178.5 129.5t202.5 44.5q72 0 130.5 -24.5t100.5 -71.5t64.5 -115t22.5 -155v-718h-188z" />
    <glyph glyph-name="n" unicode="n" horiz-adv-x="1185" 
d="M844 0v660q0 68 -13 114.5t-40 75t-68 41t-97 12.5q-41 0 -81 -10t-75.5 -26t-66 -36.5t-52.5 -41.5v-789h-188v1055l188 29v-158q72 73 161 115.5t180 42.5q80 0 143.5 -24.5t107 -71t66.5 -114t23 -152.5v-722h-188z" />
    <glyph glyph-name="o" unicode="o" horiz-adv-x="1211" 
d="M1117 525q0 -126 -39 -229.5t-108 -176.5t-163.5 -113t-205.5 -40q-112 0 -205 39.5t-160 112.5t-104.5 176.5t-37.5 230.5q0 126 38.5 230t107.5 177.5t164 114t208 40.5t206 -40t159.5 -113.5t103 -177.5t36.5 -231zM931 523q0 84 -22.5 156t-64.5 125t-103 83t-138 30
q-78 0 -138.5 -29t-101.5 -81t-62 -123.5t-21 -156.5q0 -84 22 -156t64 -124.5t103 -82t139 -29.5t138 28.5t101.5 80t62.5 123t21 156.5z" />
    <glyph glyph-name="p" unicode="p" horiz-adv-x="1206" 
d="M351 954q28 27 60 50.5t68 41t77 28t88 10.5q111 0 198 -42t147 -116.5t91.5 -176t31.5 -219.5q0 -120 -39.5 -223t-110 -178.5t-168.5 -119t-216 -43.5q-23 0 -52 1.5t-60 5t-60.5 8.5t-54.5 12v-527h-188v1589l188 29v-130zM351 211q47 -38 106 -57t128 -19
q80 0 142 30.5t104 83.5t64 124t22 152q0 87 -21.5 158t-61.5 121.5t-98 78t-131 27.5q-74 0 -137 -27t-117 -74v-598z" />
    <glyph glyph-name="q" unicode="q" horiz-adv-x="1206" 
d="M855 -534v630q-28 -27 -60 -50.5t-68 -41t-77.5 -28t-87.5 -10.5q-111 0 -198 42t-147 116.5t-91.5 175.5t-31.5 220q0 120 39.5 223t110 178.5t168.5 119t216 43.5q75 0 146.5 -12t121.5 -26l147 38v-1618h-188zM855 839q-47 38 -106 59t-128 21q-80 0 -142 -31
t-104 -85t-64 -125.5t-22 -152.5q0 -87 21.5 -159t61.5 -123t98 -79.5t131 -28.5q74 0 137 29.5t117 76.5v598z" />
    <glyph glyph-name="r" unicode="r" horiz-adv-x="874" 
d="M351 0h-188v1055l188 29v-185q55 88 124 136.5t169 48.5q54 0 104.5 -13t92.5 -39l-48 -177q-43 26 -85 37t-82 11q-76 0 -146 -54t-129 -163v-686z" />
    <glyph glyph-name="s" unicode="s" horiz-adv-x="919" 
d="M835 298q0 -75 -30 -136.5t-83 -105.5t-125.5 -68.5t-158.5 -24.5q-48 0 -98 7t-97.5 20t-91.5 31t-80 41l48 172q33 -23 72.5 -41t82 -31t85.5 -20t84 -7q45 0 83 10t65.5 29t43.5 47t16 63q0 40 -21.5 67.5t-56 47t-79 33.5t-90.5 27q-56 15 -111.5 38t-100 58.5
t-72.5 87t-28 123.5q0 73 29 132t80 100t119.5 63.5t147.5 22.5q91 0 179 -20.5t160 -56.5l-48 -172q-33 18 -71.5 32.5t-78.5 24.5t-78.5 15.5t-71.5 5.5q-85 0 -135.5 -33.5t-50.5 -97.5q0 -38 19.5 -64.5t53 -45.5t77.5 -33t93 -27q57 -15 114 -38t102.5 -59.5t74 -89
t28.5 -127.5z" />
    <glyph glyph-name="t" unicode="t" horiz-adv-x="777" 
d="M715 11q-59 -22 -118 -33.5t-118 -11.5q-153 0 -231.5 77.5t-73.5 249.5l16 587l-174 12l7 119l174 53l5 227h181l-7 -241h328l-7 -170h-328l-16 -593q-3 -149 138 -149q48 0 95.5 11t94.5 28q1 0 6.5 -26t11.5 -57q7 -37 16 -83z" />
    <glyph glyph-name="u" unicode="u" horiz-adv-x="1185" 
d="M342 1050v-660q0 -68 13 -114.5t38.5 -75t64 -41t90.5 -12.5q45 0 87.5 10t79 26t67 36.5t53.5 41.5v789h188v-1055l-188 -29v153q-73 -72 -163.5 -112.5t-190.5 -40.5q-75 0 -135.5 24.5t-103 71t-65.5 114t-23 152.5v722h188z" />
    <glyph glyph-name="v" unicode="v" horiz-adv-x="1011" 
d="M594 -2h-174l-415 1052h201l308 -816l293 816h200z" />
    <glyph glyph-name="w" unicode="w" horiz-adv-x="1568" 
d="M355 -5l-323 1055h202l222 -779l243 775h172l269 -778l192 782h209l-317 -1055h-172l-268 785l-257 -785h-172z" />
    <glyph glyph-name="x" unicode="x" horiz-adv-x="949" 
d="M736 0l-261 410l-257 -410h-216l360 537l-339 513h211l241 -378l229 378h215l-332 -509l360 -541h-211z" />
    <glyph glyph-name="y" unicode="y" horiz-adv-x="1011" 
d="M587 -11l-71 -188q-38 -100 -77.5 -166.5t-84 -106.5t-95.5 -57t-112 -17t-115 15.5t-108 39.5l55 175q42 -21 85 -36t83 -15q30 0 55 9.5t49 35t47.5 69.5t50.5 113l64 163l-408 1027h201l305 -816l296 816h200z" />
    <glyph glyph-name="z" unicode="z" horiz-adv-x="940" 
d="M48 0v160l610 718h-589v172h816v-156l-610 -722h610v-172h-837z" />
    <glyph glyph-name="braceleft" unicode="{" horiz-adv-x="777" 
d="M738 -525q-123 5 -218 24t-160.5 55.5t-99 92.5t-33.5 135q0 70 17 131.5t37 118t37 110.5t17 108q0 49 -16.5 82.5t-50.5 55t-87 33t-126 17.5l-7 92l7 91q73 5 126 16.5t87 33t50.5 55t16.5 83.5q0 54 -17 108t-37 110.5t-37 118t-17 131.5q0 79 33.5 135t99 93
t160.5 56.5t218 25.5v-131q-93 -7 -157.5 -20.5t-105.5 -34t-59.5 -48.5t-18.5 -64q0 -54 17 -105.5t38 -105t38 -112t17 -125.5q0 -65 -20 -118t-59 -92t-97 -62.5t-134 -27.5v-23q152 -11 231 -92t79 -210q0 -66 -17 -124t-38 -111t-38 -102.5t-17 -100.5q0 -39 18.5 -69
t59.5 -51.5t105.5 -35t157.5 -19.5v-128v0z" />
    <glyph glyph-name="bar" unicode="|" horiz-adv-x="573" 
d="M209 1610h153v-2066h-153v2066z" />
    <glyph glyph-name="braceright" unicode="}" horiz-adv-x="777" 
d="M722 438q-73 -6 -126.5 -17.5t-88 -33t-51 -55t-16.5 -82.5q0 -54 17 -108t38 -110.5t38 -118t17 -131.5q0 -79 -33.5 -135t-98.5 -92.5t-160 -55.5t-219 -24v128q92 6 157 19.5t106 34.5t60 50.5t19 67.5q0 52 -17 102.5t-37 103.5t-37 111t-17 124q0 64 19.5 117.5
t57.5 92.5t95.5 63t134.5 29v23q-77 4 -134.5 27.5t-95.5 62.5t-57.5 92t-19.5 118q0 67 17 125.5t37 112t37 105t17 105.5q0 36 -19 64t-60 48.5t-106 34t-157 20.5v131q124 -6 219 -25.5t160 -56.5t98.5 -93t33.5 -135q0 -70 -17 -131.5t-38 -118t-38 -110.5t-17 -108
q0 -50 16.5 -83.5t51 -55t88 -33t126.5 -16.5l7 -91z" />
    <glyph glyph-name="asciitilde" unicode="~" 
d="M743 408q-53 0 -102.5 24.5t-94 54.5t-83.5 54.5t-71 24.5q-31 0 -53 -31.5t-34 -110.5h-126q15 148 66 219.5t156 71.5q53 0 102.5 -25t94 -55t83.5 -55t71 -25q31 0 52.5 31.5t32.5 110.5h128q-15 -146 -66 -217.5t-156 -71.5z" />
    <glyph glyph-name="nonbreakingspace" unicode="&#xa0;" horiz-adv-x="353" 
 />
    <glyph glyph-name="exclamdown" unicode="&#xa1;" horiz-adv-x="631" 
d="M167 1316q0 29 10.5 56t30 47.5t46.5 33t60 12.5q32 0 59 -12.5t47 -33t31.5 -47.5t11.5 -56t-11.5 -55.5t-31.5 -46t-47 -31t-59 -11.5q-33 0 -60 11.5t-46.5 31t-30 46t-10.5 55.5zM429 -64h-230l60 1050h110z" />
    <glyph glyph-name="cent" unicode="&#xa2;" 
d="M809 1073q59 -11 112 -30t102 -48l-46 -165q-44 28 -91.5 47.5t-99.5 28.5l-103 -773q83 0 160 22.5t141 64.5l32 -167q-69 -42 -154 -64.5t-183 -22.5h-19l-32 -248h-108l35 259q-92 20 -165.5 67.5t-125 118.5t-79 162.5t-27.5 199.5q0 125 39 228t108.5 176.5
t165.5 114t210 40.5h23l27 207h108zM681 917q-82 0 -144.5 -27.5t-105 -78t-64 -122.5t-21.5 -162q0 -151 61.5 -249.5t170.5 -130.5z" />
    <glyph glyph-name="sterling" unicode="&#xa3;" 
d="M271 752q-4 63 -5.5 118.5t-1.5 106.5q0 125 35 217.5t96.5 153t145 90t179.5 29.5q100 0 184 -26.5t155 -71.5l-46 -168q-59 40 -133.5 68.5t-159.5 28.5q-70 0 -120.5 -23t-83.5 -63.5t-48.5 -96t-15.5 -120.5q0 -50 2.5 -111t6.5 -132h449l-7 -124h-438
q2 -52 3.5 -103t1.5 -103q0 -87 -16 -154q39 -32 81.5 -56t84.5 -40.5t80.5 -25t69.5 -8.5q39 0 75 11.5t66 39.5t53 75.5t36 118.5l144 -32q-6 -95 -37.5 -166.5t-80.5 -120.5t-111 -73.5t-129 -24.5q-51 0 -102.5 13.5t-100.5 37.5t-95.5 56t-88.5 69q-43 -62 -120.5 -107
t-198.5 -74q-12 46 -21 80q-4 15 -7.5 28.5t-6.5 24t-4.5 15.5t-1.5 3q74 20 121 44.5t74 59t37.5 80.5t10.5 108q0 54 -1.5 109.5t-5.5 114.5h-211l-7 124h214v0z" />
    <glyph glyph-name="currency" unicode="&#xa4;" 
d="M871 1013q23 -39 37 -91t14 -99q0 -52 -13.5 -101t-37.5 -91l147 -147l-110 -110l-144 144q-42 -26 -90 -39.5t-105 -13.5q-61 0 -107 11.5t-88 39.5l-133 -133l-108 108l133 133q-28 45 -40.5 94.5t-12.5 104.5t12.5 102.5t40.5 92.5l-140 138l110 110l138 -138
q42 26 90 39.5t105 13.5q59 0 107.5 -13t91.5 -42l131 130l108 -107zM782 823q0 45 -14.5 85t-42 70t-67 47.5t-89.5 17.5q-51 0 -91 -17.5t-68 -47.5t-42.5 -70t-14.5 -85q0 -44 14.5 -84t42.5 -70t68 -48t91 -18q50 0 89.5 18t67 48t42 70t14.5 84z" />
    <glyph glyph-name="yen" unicode="&#xa5;" 
d="M80 603l-7 126h351l-447 704h218l378 -631l376 631h211l-445 -704h351l-7 -126h-399v-179h399l7 -124h-403v-300h-186v300h-404l7 124h399v179h-399z" />
    <glyph glyph-name="brokenbar" unicode="&#xa6;" horiz-adv-x="573" 
d="M209 1472h153v-768h-153v768zM209 449h153v-768h-153v768z" />
    <glyph glyph-name="section" unicode="&#xa7;" horiz-adv-x="1080" 
d="M1043 676q0 -102 -60 -175t-160 -109q48 -36 78 -85.5t30 -118.5q0 -75 -29.5 -137t-82.5 -107t-126 -70t-159 -25q-48 0 -97.5 7t-97.5 20t-92 31t-80 40l49 172q33 -22 72 -40t81.5 -31t85.5 -20t84 -7q45 0 83 10t65.5 29t43.5 47t16 63q0 38 -25 65t-66.5 48
t-96 37.5t-112.5 32.5q-70 20 -139 43.5t-124 58.5t-89.5 85t-34.5 123q0 50 19.5 93.5t52 79.5t75 63t89.5 43q-56 36 -90 86.5t-34 122.5q0 73 29 132.5t80 102t119.5 65.5t147.5 23q91 0 179 -21t160 -57l-48 -172q-33 18 -71.5 32.5t-78.5 24.5t-78.5 15.5t-71.5 5.5
q-85 0 -135.5 -33.5t-50.5 -96.5q0 -36 24.5 -61.5t66 -44.5t95 -34.5t112.5 -31.5q70 -20 140 -44.5t126 -61.5t91 -89.5t35 -128.5zM867 635q0 37 -21.5 64.5t-58 49t-85 39t-102 34t-109 34.5t-106.5 40q-27 -17 -54 -37.5t-48.5 -44.5t-35 -51t-13.5 -57q0 -35 23 -61.5
t61.5 -47.5t89 -38t106 -34t112.5 -36.5t108 -43.5q25 15 49 34.5t43 43t30 51.5t11 61z" />
    <glyph glyph-name="dieresis" unicode="&#xa8;" horiz-adv-x="903" 
d="M830 1346q0 -29 -10 -55.5t-28 -46.5t-43.5 -31.5t-56.5 -11.5t-56 11.5t-43 31.5t-28 46.5t-10 55.5q0 28 10 54t28 45.5t43 31t56 11.5t56.5 -11.5t43.5 -31t28 -45.5t10 -54zM362 1346q0 -29 -10 -55.5t-28.5 -46.5t-44.5 -31.5t-57 -11.5q-30 0 -55 11.5t-43.5 31.5
t-28.5 46.5t-10 55.5q0 28 10 54t28.5 45.5t43.5 31t55 11.5q31 0 57 -11.5t44.5 -31t28.5 -45.5t10 -54z" />
    <glyph glyph-name="copyright" unicode="&#xa9;" horiz-adv-x="1669" 
d="M835 -37q-104 0 -200 27t-179 76t-151.5 117.5t-117.5 151.5t-75.5 179t-26.5 199q0 104 26.5 200t75.5 179.5t117.5 152t151.5 117.5t179 76t200 27t199.5 -27t179 -76t151.5 -117.5t117 -152t75.5 -179.5t26.5 -200q0 -103 -26.5 -199t-75.5 -179t-117 -151.5
t-151.5 -117.5t-179 -76t-199.5 -27zM1516 713q0 141 -53.5 266t-146 219t-216.5 148.5t-265 54.5t-265 -54.5t-216.5 -148.5t-146 -219t-53.5 -266t53.5 -265.5t146 -218t216.5 -147.5t265 -54t265 54t216.5 147.5t146 218t53.5 265.5zM1087 949q-52 33 -103.5 48.5
t-112.5 15.5q-63 0 -113.5 -20.5t-86.5 -58.5t-55.5 -92.5t-19.5 -123.5q0 -70 20 -126.5t56 -96t87.5 -61t114.5 -21.5t122 21.5t102 53.5l28 -135q-51 -31 -119.5 -47.5t-137.5 -16.5q-92 0 -168.5 29t-131 83.5t-85 133t-30.5 176.5q0 97 30.5 176t86 134.5t132 85.5
t168.5 30q69 0 139.5 -16.5t122.5 -47.5z" />
    <glyph glyph-name="ordfeminine" unicode="&#xaa;" horiz-adv-x="807" 
d="M614 569q-42 49 -73 123h-2q-23 -24 -49 -46t-56 -38.5t-65.5 -26.5t-75.5 -10q-54 0 -98.5 18t-77 49.5t-50 75.5t-17.5 95q0 61 25.5 114.5t82.5 94t148.5 66t223.5 30.5v53q0 78 -42.5 117t-118.5 39q-67 0 -130.5 -26.5t-126.5 -74.5l-55 128q71 54 151 85.5
t177 31.5q59 0 112.5 -14t94 -48t64 -90.5t23.5 -140.5v-330q0 -40 8.5 -74.5t22 -64t30 -54.5t33.5 -46zM530 1000q-96 -5 -160 -21t-102 -40t-53.5 -52.5t-15.5 -56.5q0 -33 11.5 -56.5t30 -38.5t43 -22t51.5 -7q59 0 111 22.5t84 53.5v218z" />
    <glyph glyph-name="guillemotleft" unicode="&#xab;" horiz-adv-x="1330" 
d="M1254 57l-601 372v215l601 372l16 -138l-445 -339v-5l445 -339zM617 83l-571 350v207l571 350l18 -128l-424 -323v-5l424 -323z" />
    <glyph glyph-name="logicalnot" unicode="&#xac;" 
d="M1036 268h-160v326h-766l7 163h919v-489z" />
    <glyph glyph-name="uni00AD" unicode="&#xad;" horiz-adv-x="711" 
d="M76 468v176h564v-176h-564z" />
    <glyph glyph-name="registered" unicode="&#xae;" horiz-adv-x="1669" 
d="M835 -37q-104 0 -200 27t-179 76t-151.5 117.5t-117.5 151.5t-75.5 179t-26.5 199q0 104 26.5 200t75.5 179.5t117.5 152t151.5 117.5t179 76t200 27t199.5 -27t179 -76t151.5 -117.5t117 -152t75.5 -179.5t26.5 -200q0 -103 -26.5 -199t-75.5 -179t-117 -151.5
t-151.5 -117.5t-179 -76t-199.5 -27zM1516 713q0 141 -53.5 266t-146 219t-216.5 148.5t-265 54.5t-265 -54.5t-216.5 -148.5t-146 -219t-53.5 -266t53.5 -265.5t146 -218t216.5 -147.5t265 -54t265 54t216.5 147.5t146 218t53.5 265.5zM688 316h-142v812h293
q151 0 231.5 -66.5t80.5 -187.5q0 -88 -40.5 -148t-115.5 -89l200 -321h-163l-177 289l-167 -9v-280zM823 718q100 2 143 40.5t43 105.5q0 73 -46 105.5t-140 32.5h-137v-287z" />
    <glyph glyph-name="macron" unicode="&#xaf;" horiz-adv-x="903" 
d="M142 1234l9 121h610l12 -121h-631z" />
    <glyph glyph-name="degree" unicode="&#xb0;" 
d="M947 1091q0 -75 -26 -143t-74.5 -119t-118 -81t-157.5 -30q-86 0 -155 30t-118 81t-75 119t-26 143q0 76 26 144.5t75 120t118 81.5t155 30q88 0 157.5 -30t118 -81.5t74.5 -120t26 -144.5zM825 1091q0 54 -17 102t-50 83.5t-80 56t-107 20.5q-59 0 -106 -20.5t-79.5 -56
t-49.5 -83.5t-17 -102q0 -51 17 -97.5t49.5 -82t79.5 -56t106 -20.5q60 0 107 20.5t80 56t50 82t17 97.5z" />
    <glyph glyph-name="plusminus" unicode="&#xb1;" 
d="M658 525v-321h-160v321h-388l7 163h381v321h160v-321h376l7 -163h-383zM110 0l7 163h917l7 -163h-931z" />
    <glyph glyph-name="twosuperior" unicode="&#xb2;" horiz-adv-x="757" 
d="M66 626l-4 124q106 92 187.5 160.5t137 124.5t84.5 105.5t29 102.5q0 32 -12 58t-33.5 45t-51.5 29t-66 10q-59 0 -116 -26t-104 -64l-51 115q24 20 56.5 38t70 31.5t78.5 21.5t84 8q69 0 124 -19t93 -53t58.5 -81t20.5 -104q0 -60 -26 -114t-78.5 -111.5t-131 -124
t-183.5 -152.5q-2 -1 16.5 -1h49.5h70.5h81.5q98 0 224 1l5 -124h-613z" />
    <glyph glyph-name="threesuperior" unicode="&#xb3;" horiz-adv-x="757" 
d="M410 1082q70 0 122 -17t86.5 -45.5t51 -66.5t16.5 -79q0 -62 -28 -112t-76 -85t-112.5 -53.5t-137.5 -18.5q-36 0 -73.5 4.5t-73 12.5t-67 19t-56.5 24l25 119q23 -10 51.5 -20t60 -18.5t65.5 -13.5t68 -5q40 0 77 8.5t64.5 26t44 44t16.5 61.5q0 59 -52.5 98t-155.5 39
q-35 -2 -73 -6t-67 -8v108q69 15 126.5 31.5t99 38t64 48t22.5 61.5q0 51 -39 80.5t-117 29.5q-56 0 -116 -22t-107 -60l-55 117q27 18 60 34t70 27.5t76.5 18.5t80.5 7q66 0 121 -14t94 -41t61 -66t22 -90q0 -78 -61.5 -132.5t-177.5 -83.5z" />
    <glyph glyph-name="acute" unicode="&#xb4;" horiz-adv-x="903" 
d="M420 1192h-138l243 415h229z" />
    <glyph glyph-name="mu" unicode="&#xb5;" 
d="M328 381q0 -73 26.5 -119t65 -71.5t81.5 -34.5t77 -9q19 0 45 2.5t53 11t53 24t46.5 41t33 63t12.5 89.5v672h188v-1050h-188v101q-40 -69 -105 -102t-141 -33q-71 0 -135.5 31t-111.5 102v-633h-188v1584h188v-669z" />
    <glyph glyph-name="mu" unicode="&#x3bc;" 
d="M328 381q0 -73 26.5 -119t65 -71.5t81.5 -34.5t77 -9q19 0 45 2.5t53 11t53 24t46.5 41t33 63t12.5 89.5v672h188v-1050h-188v101q-40 -69 -105 -102t-141 -33q-71 0 -135.5 31t-111.5 102v-633h-188v1584h188v-669z" />
    <glyph glyph-name="paragraph" unicode="&#xb6;" horiz-adv-x="1142" 
d="M775 598q-33 -7 -66.5 -11.5t-73.5 -4.5q-136 0 -236 32t-166 88.5t-98 132.5t-32 165q0 107 40 188t112.5 135.5t173.5 82t222 27.5h282v-1580h-158v745v0z" />
    <glyph glyph-name="periodcentered" unicode="&#xb7;" horiz-adv-x="504" 
d="M401 523q0 -29 -10.5 -56t-29.5 -47.5t-45.5 -33t-58.5 -12.5q-33 0 -60 12.5t-47 33t-31 47.5t-11 56t11 55.5t31 46t47 31t60 11.5q32 0 58.5 -11.5t45.5 -31t29.5 -46t10.5 -55.5z" />
    <glyph glyph-name="cedilla" unicode="&#xb8;" horiz-adv-x="903" 
d="M443 -156q134 0 208 -50.5t74 -137.5q0 -48 -21 -89t-66.5 -73.5t-117 -55.5t-171.5 -36l-14 119q127 7 185 40.5t58 83.5q0 53 -66.5 76.5t-208.5 1.5l-19 96l275 270h136l-252 -245v0z" />
    <glyph glyph-name="onesuperior" unicode="&#xb9;" horiz-adv-x="757" 
d="M365 1339l-232 -53l-5 126l386 90v-876h-149v713z" />
    <glyph glyph-name="ordmasculine" unicode="&#xba;" horiz-adv-x="965" 
d="M892 1018q0 -101 -31.5 -183t-86.5 -141t-131 -91t-164 -32q-89 0 -163.5 31.5t-128.5 90t-84 141t-30 184.5t30.5 184.5t85.5 141.5t131.5 91t167.5 32q90 0 164.5 -32t128 -90.5t82.5 -141.5t29 -185zM743 1016q0 68 -17.5 126t-51 100t-82.5 66t-111 24
q-63 0 -111 -23.5t-81 -65t-50 -98.5t-17 -125q0 -67 17.5 -124.5t51.5 -99.5t82.5 -66t110.5 -24q63 0 111 23t81 64t50 98t17 125z" />
    <glyph glyph-name="guillemotright" unicode="&#xbb;" horiz-adv-x="1344" 
d="M727 83l-19 128l425 323v5l-425 323l19 128l571 -350v-207zM89 57l-16 138l445 339v5l-445 339l16 138l601 -372v-215z" />
    <glyph glyph-name="onequarter" unicode="&#xbc;" horiz-adv-x="1639" 
d="M1483 -112v-216h-135v216h-419l-14 96l399 559h169v-541h133l5 -114h-138zM1348 401l-284 -399h284v399zM330 -266h-144l1217 1699h145zM365 1339l-232 -53l-5 126l386 90v-876h-149v713z" />
    <glyph glyph-name="onehalf" unicode="&#xbd;" horiz-adv-x="1639" 
d="M296 -266h-145l1218 1699h144zM365 1339l-232 -53l-5 126l386 90v-876h-149v713zM949 -328l-4 124q106 92 187.5 160.5t137 124.5t84.5 105.5t29 102.5q0 32 -12 58t-33.5 45t-51.5 29t-66 10q-59 0 -116 -25.5t-104 -63.5l-51 114q24 20 56 38t69.5 31.5t79 21.5t84.5 8
q69 0 124 -19t93 -53t58.5 -81t20.5 -104q0 -60 -26.5 -113.5t-79 -111.5t-131 -124.5t-183.5 -152.5q-2 0 16.5 -0.5t49.5 -0.5h71h82q99 0 224 1l4 -124h-612z" />
    <glyph glyph-name="threequarters" unicode="&#xbe;" horiz-adv-x="1639" 
d="M1483 -112v-216h-135v216h-419l-14 96l399 559h169v-541h133l5 -114h-138zM1348 401l-284 -399h284v399zM330 -266h-144l1217 1699h145zM410 1082q70 0 122 -17t86.5 -45.5t51 -66.5t16.5 -79q0 -62 -28 -112t-76 -85t-112.5 -53.5t-137.5 -18.5q-36 0 -73.5 4.5
t-73 12.5t-67 19t-56.5 24l25 119q23 -10 51.5 -20t60 -18.5t65.5 -13.5t68 -5q40 0 77 8.5t64.5 26t44 44t16.5 61.5q0 59 -52.5 98t-155.5 39q-35 -2 -73 -6t-67 -8v108q69 15 126.5 31.5t99 38t64 48t22.5 61.5q0 51 -39 80.5t-117 29.5q-56 0 -116 -22t-107 -60l-55 117
q27 18 60 34t70 27.5t76.5 18.5t80.5 7q66 0 121 -14t94 -41t61 -66t22 -90q0 -78 -61.5 -132.5t-177.5 -83.5z" />
    <glyph glyph-name="questiondown" unicode="&#xbf;" horiz-adv-x="816" 
d="M87 335q0 76 22 126.5t57 84t78 54.5t86 37q37 14 69 27t55 29.5t36.5 38t13.5 52.5q0 27 -10 52t-27.5 49t-39.5 47.5t-46 46.5l87 28q33 -19 65 -45.5t58 -59.5t42 -72t16 -83q0 -57 -20 -97t-52.5 -68.5t-73.5 -48t-83 -35.5q-37 -14 -71 -28.5t-59.5 -32.5
t-40.5 -42.5t-15 -57.5q0 -39 19 -74t57 -61.5t95 -42t134 -15.5q45 0 87 7t71 12v-177q-31 -8 -72.5 -14t-101.5 -6q-96 0 -176 30t-137.5 80.5t-90 117.5t-32.5 141zM323 1316q0 29 10.5 56t30 47.5t46 33t58.5 12.5q33 0 60.5 -12.5t47.5 -33t31.5 -47.5t11.5 -56
t-11.5 -55.5t-31.5 -46t-47.5 -31t-60.5 -11.5q-32 0 -58.5 11.5t-46 31t-30 46t-10.5 55.5z" />
    <glyph glyph-name="Agrave" unicode="&#xc0;" horiz-adv-x="1316" 
d="M1305 0h-200l-135 376h-621l-136 -376h-202l539 1433h223zM660 1231l-247 -678h493zM589 1575l-334 415h229l243 -415h-138z" />
    <glyph glyph-name="Aacute" unicode="&#xc1;" horiz-adv-x="1316" 
d="M1305 0h-200l-135 376h-621l-136 -376h-202l539 1433h223zM660 1231l-247 -678h493zM718 1575h-138l243 415h229z" />
    <glyph glyph-name="Acircumflex" unicode="&#xc2;" horiz-adv-x="1316" 
d="M1305 0h-200l-135 376h-621l-136 -376h-202l539 1433h223zM660 1231l-247 -678h493zM892 1575l-225 291h-2l-227 -291h-138l264 429h202l263 -429h-137z" />
    <glyph glyph-name="Atilde" unicode="&#xc3;" horiz-adv-x="1316" 
d="M1305 0h-200l-135 376h-621l-136 -376h-202l539 1433h223zM660 1231l-247 -678h493zM1057 1871q-16 -146 -67 -217.5t-155 -71.5q-54 0 -103.5 24.5t-94 54.5t-83 54.5t-70.5 24.5q-31 0 -53 -31.5t-34 -110.5h-126q15 148 66 219.5t156 71.5q53 0 102.5 -25t94 -55
t83.5 -55t71 -25q15 0 28.5 7.5t24 24t19 43.5t13.5 67h128z" />
    <glyph glyph-name="Adieresis" unicode="&#xc4;" horiz-adv-x="1316" 
d="M1305 0h-200l-135 376h-621l-136 -376h-202l539 1433h223zM660 1231l-247 -678h493zM1032 1729q0 -29 -10 -55.5t-28 -46.5t-43.5 -31.5t-56.5 -11.5t-56 11.5t-43 31.5t-28 46.5t-10 55.5q0 28 10 54t28 45.5t43 31t56 11.5t56.5 -11.5t43.5 -31t28 -45.5t10 -54z
M564 1729q0 -29 -10 -55.5t-28.5 -46.5t-44.5 -31.5t-57 -11.5q-30 0 -55 11.5t-43.5 31.5t-28.5 46.5t-10 55.5q0 28 10 54t28.5 45.5t43.5 31t55 11.5q31 0 57 -11.5t44.5 -31t28.5 -45.5t10 -54z" />
    <glyph glyph-name="Aring" unicode="&#xc5;" horiz-adv-x="1316" 
d="M660 1231l-247 -678h493zM516 1346q-64 32 -101 89.5t-37 128.5q0 51 19.5 96t56 79.5t89 54.5t117.5 20q66 0 118.5 -20t88.5 -54.5t55 -79.5t20 -96q2 -69 -34 -127.5t-103 -90.5l500 -1346h-200l-135 376h-621l-136 -376h-202zM828 1566q0 31 -11.5 58.5t-33.5 48
t-53 32.5t-70 12q-38 0 -68 -12t-51 -32.5t-32 -48t-11 -58.5t11 -59t32 -49t51 -33.5t68 -12.5q39 0 70 12.5t53 33.5t33.5 49t11.5 59z" />
    <glyph glyph-name="AE" unicode="&#xc6;" horiz-adv-x="1908" 
d="M903 555v699l-394 -699h394zM197 0h-215l818 1433h1011v-181h-715v-443h596v-181h-596v-447h715v-181h-908v374h-497z" />
    <glyph glyph-name="Ccedilla" unicode="&#xc7;" horiz-adv-x="1378" 
d="M750 -156q135 0 208.5 -50.5t73.5 -137.5q0 -48 -21 -89t-66.5 -73.5t-117 -55.5t-171.5 -36l-14 119q128 7 185.5 40t57.5 84q0 53 -66.5 76.5t-208.5 1.5l-18 96l151 151q-141 12 -258.5 69.5t-201.5 154t-131 228t-47 291.5q0 171 53.5 310t149 238t227.5 152.5
t288 53.5q61 0 123 -8t121 -23.5t112.5 -37.5t97.5 -50l-62 -176q-47 31 -93.5 53.5t-94 37.5t-98 22.5t-106.5 7.5q-117 0 -213 -39t-164 -113t-105.5 -180t-37.5 -239t38 -240.5t107 -183.5t165.5 -117t214.5 -41q57 0 113.5 11t109 30t99 44.5t84.5 54.5l32 -195
q-80 -51 -181.5 -80.5t-208.5 -36.5l-126 -124v0z" />
    <glyph glyph-name="Egrave" unicode="&#xc8;" horiz-adv-x="1199" 
d="M181 0v1433h908v-181h-713v-443h594v-181h-594v-447h713v-181h-908zM598 1575l-334 415h229l243 -415h-138z" />
    <glyph glyph-name="Eacute" unicode="&#xc9;" horiz-adv-x="1199" 
d="M181 0v1433h908v-181h-713v-443h594v-181h-594v-447h713v-181h-908zM656 1575h-138l243 415h229z" />
    <glyph glyph-name="Ecircumflex" unicode="&#xca;" horiz-adv-x="1199" 
d="M181 0v1433h908v-181h-713v-443h594v-181h-594v-447h713v-181h-908zM855 1575l-224 291h-3l-227 -291h-137l263 429h202l264 -429h-138z" />
    <glyph glyph-name="Edieresis" unicode="&#xcb;" horiz-adv-x="1199" 
d="M181 0v1433h908v-181h-713v-443h594v-181h-594v-447h713v-181h-908zM1000 1729q0 -29 -10 -55.5t-28 -46.5t-43.5 -31.5t-56.5 -11.5t-56 11.5t-43 31.5t-28 46.5t-10 55.5q0 28 10 54t28 45.5t43 31t56 11.5t56.5 -11.5t43.5 -31t28 -45.5t10 -54zM532 1729
q0 -29 -10 -55.5t-28.5 -46.5t-44.5 -31.5t-57 -11.5q-30 0 -55 11.5t-43.5 31.5t-28.5 46.5t-10 55.5q0 28 10 54t28.5 45.5t43.5 31t55 11.5q31 0 57 -11.5t44.5 -31t28.5 -45.5t10 -54z" />
    <glyph glyph-name="Igrave" unicode="&#xcc;" horiz-adv-x="566" 
d="M186 0v1433h192v-1433h-192zM236 1575l-335 415h230l243 -415h-138z" />
    <glyph glyph-name="Iacute" unicode="&#xcd;" horiz-adv-x="566" 
d="M186 0v1433h192v-1433h-192zM342 1575h-138l243 415h229z" />
    <glyph glyph-name="Icircumflex" unicode="&#xce;" horiz-adv-x="566" 
d="M186 0v1433h192v-1433h-192zM516 1575l-225 291h-2l-227 -291h-138l264 429h202l263 -429h-137z" />
    <glyph glyph-name="Idieresis" unicode="&#xcf;" horiz-adv-x="566" 
d="M186 0v1433h192v-1433h-192zM660 1729q0 -29 -10 -55.5t-28 -46.5t-43 -31.5t-56 -11.5t-56.5 11.5t-43.5 31.5t-28 46.5t-10 55.5q0 28 10 54t28 45.5t43.5 31t56.5 11.5t56 -11.5t43 -31t28 -45.5t10 -54zM193 1729q0 -29 -10.5 -55.5t-29 -46.5t-44 -31.5t-56.5 -11.5
q-30 0 -55.5 11.5t-44 31.5t-28.5 46.5t-10 55.5q0 28 10 54t28.5 45.5t44 31t55.5 11.5q31 0 56.5 -11.5t44 -31t29 -45.5t10.5 -54z" />
    <glyph glyph-name="Eth" unicode="&#xd0;" horiz-adv-x="1511" 
d="M786 809v-167h-364v-461h236q128 0 232.5 34t178 100.5t113.5 166t40 231.5t-38.5 233t-112 169t-180 102.5t-242.5 34.5h-227v-443h364zM37 642v167h190v624h431q178 0 319 -50.5t238.5 -143t149.5 -222.5t52 -290q0 -166 -50.5 -300.5t-148.5 -229t-241 -146
t-328 -51.5h-422v642h-190z" />
    <glyph glyph-name="Ntilde" unicode="&#xd1;" horiz-adv-x="1532" 
d="M1160 1433h190v-1447h-210l-769 1170v-1156h-190v1433h216l763 -1156v1156zM1163 1871q-16 -146 -67 -217.5t-156 -71.5q-53 0 -102.5 24.5t-94 54.5t-83.5 54.5t-71 24.5q-31 0 -53 -31.5t-34 -110.5h-126q8 74 24 128.5t43 90.5t65 54t91 18t102.5 -25t94 -55t83 -55
t70.5 -25t53 31.5t32 110.5h129v0z" />
    <glyph glyph-name="Ograve" unicode="&#xd2;" horiz-adv-x="1651" 
d="M1545 722q0 -161 -53 -299t-148.5 -239.5t-228 -159.5t-290.5 -58q-157 0 -289 53t-228 150.5t-149.5 235.5t-53.5 308q0 107 24 204.5t69 181.5t109 152t144 116t174.5 74t199.5 26q157 0 289.5 -52.5t228 -149.5t149 -235t53.5 -308zM1350 713q0 132 -38.5 239.5
t-108.5 183t-167 116.5t-215 41q-114 0 -209.5 -41t-164 -115.5t-106.5 -180t-38 -234.5q0 -132 38 -239.5t107.5 -183.5t166.5 -117.5t215 -41.5q114 0 209.5 41t164.5 116.5t107.5 181t38.5 234.5zM780 1575l-335 415h229l243 -415h-137z" />
    <glyph glyph-name="Oacute" unicode="&#xd3;" horiz-adv-x="1651" 
d="M1545 722q0 -161 -53 -299t-148.5 -239.5t-228 -159.5t-290.5 -58q-157 0 -289 53t-228 150.5t-149.5 235.5t-53.5 308q0 107 24 204.5t69 181.5t109 152t144 116t174.5 74t199.5 26q157 0 289.5 -52.5t228 -149.5t149 -235t53.5 -308zM1350 713q0 132 -38.5 239.5
t-108.5 183t-167 116.5t-215 41q-114 0 -209.5 -41t-164 -115.5t-106.5 -180t-38 -234.5q0 -132 38 -239.5t107.5 -183.5t166.5 -117.5t215 -41.5q114 0 209.5 41t164.5 116.5t107.5 181t38.5 234.5zM885 1575h-138l243 415h230z" />
    <glyph glyph-name="Ocircumflex" unicode="&#xd4;" horiz-adv-x="1651" 
d="M1545 722q0 -161 -53 -299t-148.5 -239.5t-228 -159.5t-290.5 -58q-157 0 -289 53t-228 150.5t-149.5 235.5t-53.5 308q0 107 24 204.5t69 181.5t109 152t144 116t174.5 74t199.5 26q157 0 289.5 -52.5t228 -149.5t149 -235t53.5 -308zM1350 713q0 132 -38.5 239.5
t-108.5 183t-167 116.5t-215 41q-114 0 -209.5 -41t-164 -115.5t-106.5 -180t-38 -234.5q0 -132 38 -239.5t107.5 -183.5t166.5 -117.5t215 -41.5q114 0 209.5 41t164.5 116.5t107.5 181t38.5 234.5zM1059 1575l-224 291h-3l-227 -291h-137l263 429h202l264 -429h-138z" />
    <glyph glyph-name="Otilde" unicode="&#xd5;" horiz-adv-x="1651" 
d="M1545 722q0 -161 -53 -299t-148.5 -239.5t-228 -159.5t-290.5 -58q-157 0 -289 53t-228 150.5t-149.5 235.5t-53.5 308q0 107 24 204.5t69 181.5t109 152t144 116t174.5 74t199.5 26q157 0 289.5 -52.5t228 -149.5t149 -235t53.5 -308zM1350 713q0 132 -38.5 239.5
t-108.5 183t-167 116.5t-215 41q-114 0 -209.5 -41t-164 -115.5t-106.5 -180t-38 -234.5q0 -132 38 -239.5t107.5 -183.5t166.5 -117.5t215 -41.5q114 0 209.5 41t164.5 116.5t107.5 181t38.5 234.5zM1224 1871q-15 -146 -66 -217.5t-156 -71.5q-53 0 -102.5 24.5t-94 54.5
t-83.5 54.5t-71 24.5q-31 0 -53 -31.5t-34 -110.5h-126q8 74 24 128.5t42.5 90.5t64.5 54t91 18t102.5 -25t94 -55t83.5 -55t71 -25q15 0 28.5 7.5t24 24t19 43.5t13.5 67h128z" />
    <glyph glyph-name="Odieresis" unicode="&#xd6;" horiz-adv-x="1651" 
d="M1545 722q0 -161 -53 -299t-148.5 -239.5t-228 -159.5t-290.5 -58q-157 0 -289 53t-228 150.5t-149.5 235.5t-53.5 308q0 107 24 204.5t69 181.5t109 152t144 116t174.5 74t199.5 26q157 0 289.5 -52.5t228 -149.5t149 -235t53.5 -308zM1350 713q0 132 -38.5 239.5
t-108.5 183t-167 116.5t-215 41q-114 0 -209.5 -41t-164 -115.5t-106.5 -180t-38 -234.5q0 -132 38 -239.5t107.5 -183.5t166.5 -117.5t215 -41.5q114 0 209.5 41t164.5 116.5t107.5 181t38.5 234.5zM1204 1729q0 -29 -10 -55.5t-28 -46.5t-43.5 -31.5t-56.5 -11.5t-56 11.5
t-43 31.5t-28 46.5t-10 55.5q0 28 10 54t28 45.5t43 31t56 11.5t56.5 -11.5t43.5 -31t28 -45.5t10 -54zM736 1729q0 -29 -10 -55.5t-28.5 -46.5t-44.5 -31.5t-57 -11.5q-30 0 -55 11.5t-43.5 31.5t-28.5 46.5t-10 55.5q0 28 10 54t28.5 45.5t43.5 31t55 11.5q31 0 57 -11.5
t44.5 -31t28.5 -45.5t10 -54z" />
    <glyph glyph-name="multiply" unicode="&#xd7;" 
d="M940 66l-360 365l-360 -365l-110 111l365 360l-365 359l110 111l360 -365l360 365l110 -111l-364 -359l364 -360z" />
    <glyph glyph-name="Oslash" unicode="&#xd8;" horiz-adv-x="1651" 
d="M1552 722q0 -160 -53 -298t-148.5 -240t-228 -160t-290.5 -58q-88 0 -169 17.5t-152 48.5l-105 -186h-147l142 248q-67 48 -120.5 112t-91 142.5t-57.5 170t-20 194.5q0 161 53 299t148.5 239t228 158.5t290.5 57.5q88 0 168.5 -17.5t152.5 -48.5l108 186h147l-142 -248
q66 -48 119 -111.5t90 -141.5t57 -169.5t20 -194.5zM1064 1243q-104 50 -236 50q-114 0 -210 -41t-165 -115.5t-107.5 -180t-38.5 -234.5q0 -152 50 -269.5t138 -193.5zM601 190q104 -50 236 -50q114 0 209.5 41t164 116.5t106.5 181t38 234.5q0 151 -49 268t-137 193z" />
    <glyph glyph-name="Ugrave" unicode="&#xd9;" horiz-adv-x="1481" 
d="M1302 553q0 -136 -35.5 -245t-106 -185t-176 -116.5t-246.5 -40.5q-135 0 -239 40t-175.5 114t-108 178.5t-36.5 233.5v901h192v-871q0 -97 23.5 -173.5t70.5 -130t118 -81.5t167 -28q83 0 150 24.5t113.5 74.5t71.5 124.5t25 175.5v885h192v-880zM715 1575l-334 415h229
l243 -415h-138z" />
    <glyph glyph-name="Uacute" unicode="&#xda;" horiz-adv-x="1481" 
d="M1302 553q0 -136 -35.5 -245t-106 -185t-176 -116.5t-246.5 -40.5q-135 0 -239 40t-175.5 114t-108 178.5t-36.5 233.5v901h192v-871q0 -97 23.5 -173.5t70.5 -130t118 -81.5t167 -28q83 0 150 24.5t113.5 74.5t71.5 124.5t25 175.5v885h192v-880zM775 1575h-138l243 415
h230z" />
    <glyph glyph-name="Ucircumflex" unicode="&#xdb;" horiz-adv-x="1481" 
d="M1302 553q0 -136 -35.5 -245t-106 -185t-176 -116.5t-246.5 -40.5q-135 0 -239 40t-175.5 114t-108 178.5t-36.5 233.5v901h192v-871q0 -97 23.5 -173.5t70.5 -130t118 -81.5t167 -28q83 0 150 24.5t113.5 74.5t71.5 124.5t25 175.5v885h192v-880zM972 1575l-225 291h-2
l-227 -291h-137l263 429h202l264 -429h-138z" />
    <glyph glyph-name="Udieresis" unicode="&#xdc;" horiz-adv-x="1481" 
d="M1302 553q0 -136 -35.5 -245t-106 -185t-176 -116.5t-246.5 -40.5q-135 0 -239 40t-175.5 114t-108 178.5t-36.5 233.5v901h192v-871q0 -97 23.5 -173.5t70.5 -130t118 -81.5t167 -28q83 0 150 24.5t113.5 74.5t71.5 124.5t25 175.5v885h192v-880v0zM1117 1729
q0 -29 -10 -55.5t-28 -46.5t-43.5 -31.5t-56.5 -11.5t-56 11.5t-43 31.5t-28 46.5t-10 55.5q0 28 10 54t28 45.5t43 31t56 11.5t56.5 -11.5t43.5 -31t28 -45.5t10 -54zM649 1729q0 -29 -10 -55.5t-28.5 -46.5t-44.5 -31.5t-57 -11.5q-30 0 -55 11.5t-43.5 31.5t-28.5 46.5
t-10 55.5q0 28 10 54t28.5 45.5t43.5 31t55 11.5q31 0 57 -11.5t44.5 -31t28.5 -45.5t10 -54z" />
    <glyph glyph-name="Yacute" unicode="&#xdd;" horiz-adv-x="1238" 
d="M718 569v-569h-195v571l-500 862h220l381 -669l376 669h215zM676 1575h-137l243 415h229z" />
    <glyph glyph-name="Thorn" unicode="&#xde;" horiz-adv-x="1217" 
d="M1146 736q0 -121 -40.5 -212.5t-116 -153t-183.5 -93.5t-242 -34l-188 -2v-241h-195v1433h195v-234h202q147 0 254 -34.5t177 -96.5t103.5 -147t33.5 -185zM949 727q0 145 -94 218t-286 73h-193v-594l209 5q181 3 272.5 80.5t91.5 217.5z" />
    <glyph glyph-name="germandbls" unicode="&#xdf;" horiz-adv-x="1330" 
d="M202 878l-184 14l10 119l171 51q0 37 1 65q1 24 1.5 42t0.5 14q1 115 35.5 194t91.5 127.5t131.5 70t156.5 21.5q88 0 161 -26.5t126 -74t82.5 -113.5t29.5 -144q0 -48 -14.5 -87t-36 -72t-47 -60.5t-47 -52t-36 -48t-14.5 -47.5q0 -46 19 -79.5t50.5 -60.5t72 -50.5
t82 -48t82 -53.5t72 -67t50.5 -88.5t19 -118.5q0 -78 -27 -141.5t-77 -108t-121.5 -68.5t-159.5 -24t-174 27t-159 72l48 172q66 -45 140.5 -75.5t146.5 -30.5q95 0 145 41t50 115q0 49 -19 84t-50.5 63t-71.5 51t-81.5 46t-81.5 50t-71.5 62t-50.5 81.5t-19 110.5
q0 48 13.5 84t33.5 65.5t43.5 56t43.5 54t33.5 60t13.5 75.5q0 45 -14.5 82.5t-41 64.5t-63.5 42t-83 15q-107 0 -165.5 -60t-58.5 -174v-1197h-188v878z" />
    <glyph glyph-name="agrave" unicode="&#xe0;" horiz-adv-x="1034" 
d="M702 523q-117 -16 -198.5 -36.5t-132 -48.5t-73.5 -64.5t-23 -84.5q0 -35 13 -65t37 -52t58.5 -34t77.5 -12q72 0 134 32t107 80v285zM699 112q-60 -71 -132 -108.5t-157 -37.5q-74 0 -135.5 23t-105.5 63.5t-68.5 95t-24.5 118.5q0 70 29 134.5t100 115.5t192 84t305 42
v30q0 63 -13 108.5t-41.5 74t-73.5 42t-109 13.5q-40 0 -84 -9t-88.5 -24.5t-87 -37t-79.5 -46.5l-37 170q34 24 79.5 46t97 38.5t107 26.5t111.5 10q106 0 183.5 -23.5t127.5 -73t73 -126.5t22 -185v-440q0 -33 3 -53t14 -31t31 -15t55 -4l-12 -158q-63 -5 -110 3
t-79.5 26.5t-53 46t-30.5 61.5h-9zM438 1192l-335 415h229l243 -415h-137z" />
    <glyph glyph-name="aacute" unicode="&#xe1;" horiz-adv-x="1034" 
d="M702 523q-117 -16 -198.5 -36.5t-132 -48.5t-73.5 -64.5t-23 -84.5q0 -35 13 -65t37 -52t58.5 -34t77.5 -12q72 0 134 32t107 80v285zM699 112q-60 -71 -132 -108.5t-157 -37.5q-74 0 -135.5 23t-105.5 63.5t-68.5 95t-24.5 118.5q0 70 29 134.5t100 115.5t192 84t305 42
v30q0 63 -13 108.5t-41.5 74t-73.5 42t-109 13.5q-40 0 -84 -9t-88.5 -24.5t-87 -37t-79.5 -46.5l-37 170q34 24 79.5 46t97 38.5t107 26.5t111.5 10q106 0 183.5 -23.5t127.5 -73t73 -126.5t22 -185v-440q0 -33 3 -53t14 -31t31 -15t55 -4l-12 -158q-63 -5 -110 3
t-79.5 26.5t-53 46t-30.5 61.5h-9zM521 1192h-138l243 415h229z" />
    <glyph glyph-name="acircumflex" unicode="&#xe2;" horiz-adv-x="1034" 
d="M702 523q-117 -16 -198.5 -36.5t-132 -48.5t-73.5 -64.5t-23 -84.5q0 -35 13 -65t37 -52t58.5 -34t77.5 -12q72 0 134 32t107 80v285zM699 112q-60 -71 -132 -108.5t-157 -37.5q-74 0 -135.5 23t-105.5 63.5t-68.5 95t-24.5 118.5q0 70 29 134.5t100 115.5t192 84t305 42
v30q0 63 -13 108.5t-41.5 74t-73.5 42t-109 13.5q-40 0 -84 -9t-88.5 -24.5t-87 -37t-79.5 -46.5l-37 170q34 24 79.5 46t97 38.5t107 26.5t111.5 10q106 0 183.5 -23.5t127.5 -73t73 -126.5t22 -185v-440q0 -33 3 -53t14 -31t31 -15t55 -4l-12 -158q-63 -5 -110 3
t-79.5 26.5t-53 46t-30.5 61.5h-9zM718 1192l-225 291h-2l-227 -291h-138l264 429h201l264 -429h-137z" />
    <glyph glyph-name="atilde" unicode="&#xe3;" horiz-adv-x="1034" 
d="M702 523q-117 -16 -198.5 -36.5t-132 -48.5t-73.5 -64.5t-23 -84.5q0 -35 13 -65t37 -52t58.5 -34t77.5 -12q72 0 134 32t107 80v285zM699 112q-60 -71 -132 -108.5t-157 -37.5q-74 0 -135.5 23t-105.5 63.5t-68.5 95t-24.5 118.5q0 70 29 134.5t100 115.5t192 84t305 42
v30q0 63 -13 108.5t-41.5 74t-73.5 42t-109 13.5q-40 0 -84 -9t-88.5 -24.5t-87 -37t-79.5 -46.5l-37 170q34 24 79.5 46t97 38.5t107 26.5t111.5 10q106 0 183.5 -23.5t127.5 -73t73 -126.5t22 -185v-440q0 -33 3 -53t14 -31t31 -15t55 -4l-12 -158q-63 -5 -110 3
t-79.5 26.5t-53 46t-30.5 61.5h-9zM883 1488q-16 -146 -67 -217.5t-156 -71.5q-53 0 -102.5 24.5t-94 54.5t-83.5 54.5t-71 24.5q-31 0 -53 -31.5t-34 -110.5h-126q8 74 24 128.5t43 90.5t65 54t91 18t102.5 -25t94 -55t83 -55t70.5 -25t53 31.5t32 110.5h129v0z" />
    <glyph glyph-name="adieresis" unicode="&#xe4;" horiz-adv-x="1034" 
d="M702 523q-117 -16 -198.5 -36.5t-132 -48.5t-73.5 -64.5t-23 -84.5q0 -35 13 -65t37 -52t58.5 -34t77.5 -12q72 0 134 32t107 80v285zM699 112q-60 -71 -132 -108.5t-157 -37.5q-74 0 -135.5 23t-105.5 63.5t-68.5 95t-24.5 118.5q0 70 29 134.5t100 115.5t192 84t305 42
v30q0 63 -13 108.5t-41.5 74t-73.5 42t-109 13.5q-40 0 -84 -9t-88.5 -24.5t-87 -37t-79.5 -46.5l-37 170q34 24 79.5 46t97 38.5t107 26.5t111.5 10q106 0 183.5 -23.5t127.5 -73t73 -126.5t22 -185v-440q0 -33 3 -53t14 -31t31 -15t55 -4l-12 -158q-63 -5 -110 3
t-79.5 26.5t-53 46t-30.5 61.5h-9zM862 1346q0 -29 -10 -55.5t-28 -46.5t-43.5 -31.5t-56.5 -11.5t-56 11.5t-43 31.5t-28 46.5t-10 55.5q0 28 10 54t28 45.5t43 31t56 11.5t56.5 -11.5t43.5 -31t28 -45.5t10 -54zM394 1346q0 -29 -10 -55.5t-28.5 -46.5t-44.5 -31.5
t-57 -11.5q-30 0 -55 11.5t-43.5 31.5t-28.5 46.5t-10 55.5q0 28 10 54t28.5 45.5t43.5 31t55 11.5q31 0 57 -11.5t44.5 -31t28.5 -45.5t10 -54z" />
    <glyph glyph-name="aring" unicode="&#xe5;" horiz-adv-x="1034" 
d="M702 523q-117 -16 -198.5 -36.5t-132 -48.5t-73.5 -64.5t-23 -84.5q0 -35 13 -65t37 -52t58.5 -34t77.5 -12q72 0 134 32t107 80v285zM699 112q-60 -71 -132 -108.5t-157 -37.5q-74 0 -135.5 23t-105.5 63.5t-68.5 95t-24.5 118.5q0 70 29 134.5t100 115.5t192 84t305 42
v30q0 63 -13 108.5t-41.5 74t-73.5 42t-109 13.5q-40 0 -84 -9t-88.5 -24.5t-87 -37t-79.5 -46.5l-37 170q34 24 79.5 46t97 38.5t107 26.5t111.5 10q106 0 183.5 -23.5t127.5 -73t73 -126.5t22 -185v-440q0 -33 3 -53t14 -31t31 -15t55 -4l-12 -158q-63 -5 -110 3
t-79.5 26.5t-53 46t-30.5 61.5h-9zM775 1447q1 -52 -18.5 -97.5t-56.5 -79.5t-90 -53.5t-119 -19.5t-119 19.5t-90 53.5t-56.5 79.5t-19.5 97.5q0 51 19.5 97t56.5 80.5t90 54.5t119 20t118.5 -20t89 -54.5t56 -80.5t20.5 -97zM656 1449q0 31 -11.5 58.5t-32.5 48
t-51.5 32.5t-69.5 12q-38 0 -68 -12t-51 -32.5t-32.5 -48t-11.5 -58.5t11.5 -59t32.5 -49t51 -33.5t68 -12.5q39 0 69.5 12.5t51.5 33.5t32.5 49t11.5 59z" />
    <glyph glyph-name="ae" unicode="&#xe6;" horiz-adv-x="1729" 
d="M812 181q-28 -42 -67.5 -81t-90 -68.5t-111.5 -47.5t-133 -18q-74 0 -135.5 23t-105.5 63.5t-68.5 95t-24.5 118.5q0 70 30 135.5t104 116.5t199 84t316 40v23q0 70 -16.5 117.5t-49.5 75.5t-81.5 40t-112.5 12q-40 0 -84 -9t-88.5 -24.5t-87 -37t-79.5 -46.5l-37 170
q34 24 79.5 46t97 38.5t107 26.5t111.5 10q81 0 141.5 -12.5t104.5 -36t74 -56t49 -71.5q62 79 160 127.5t223 48.5q95 0 169.5 -29t126 -82.5t78.5 -129t27 -169.5q0 -43 -6 -87.5t-17 -79.5l-31 -0.5t-80.5 -1t-113 -1t-129.5 -0.5l-352 -2v-9q3 -77 29 -142t71 -112
t107.5 -73t138.5 -26q83 0 166.5 22t147.5 65l35 -174q-71 -44 -162 -65.5t-191 -21.5q-72 0 -136.5 15t-120 43t-101.5 68t-80 89zM1456 644v16q0 58 -14 106t-43.5 82t-74.5 52.5t-107 18.5q-67 0 -120 -24.5t-91 -64t-60.5 -89.5t-28.5 -101zM725 523
q-123 -11 -208.5 -31t-139.5 -49t-78 -67.5t-24 -86.5q0 -35 13 -65t38 -52t62 -34t84 -12q38 0 79 12t80 32.5t72 48t56 58.5q-6 17 -12 50t-11 69.5t-8 71t-3 55.5z" />
    <glyph glyph-name="ccedilla" unicode="&#xe7;" horiz-adv-x="1046" 
d="M553 -156q134 0 208 -50.5t74 -137.5q0 -48 -21 -89t-66.5 -73.5t-117 -55.5t-171.5 -36l-14 119q127 7 185 40.5t58 83.5q0 53 -66.5 76.5t-208.5 1.5l-19 96l152 149q-110 10 -194.5 54.5t-141.5 117t-86.5 170.5t-29.5 215q0 126 39.5 229t110 176.5t167.5 113.5
t213 40q102 0 184.5 -22t154.5 -67l-48 -172q-66 45 -139 66t-152 21q-81 0 -143.5 -26.5t-105 -76t-64.5 -120.5t-22 -160q0 -91 24 -163t67.5 -121.5t104 -76t134.5 -26.5q83 0 161 22t142 65l34 -174q-59 -36 -128.5 -57t-148.5 -28l-126 -124v0z" />
    <glyph glyph-name="egrave" unicode="&#xe8;" horiz-adv-x="1101" 
d="M284 493q3 -77 29 -142t71.5 -112t108 -73t138.5 -26q83 0 166.5 22t147.5 65l34 -174q-71 -44 -162 -65.5t-191 -21.5q-119 0 -216.5 40.5t-168 113t-109 173.5t-38.5 221q0 127 39.5 232t109.5 180t164.5 116.5t204.5 41.5q96 0 170.5 -29t125.5 -82.5t78 -129
t27 -169.5q0 -43 -6 -87.5t-17 -79.5l-31 -0.5t-80.5 -1t-113 -1t-129.5 -0.5l-352 -2v-9zM832 644v16q0 58 -14 106t-43 82t-74 52.5t-107 18.5q-67 0 -120 -24.5t-91 -64t-61 -89.5t-29 -101zM535 1192l-335 415h229l243 -415h-137z" />
    <glyph glyph-name="eacute" unicode="&#xe9;" horiz-adv-x="1101" 
d="M284 493q3 -77 29 -142t71.5 -112t108 -73t138.5 -26q83 0 166.5 22t147.5 65l34 -174q-71 -44 -162 -65.5t-191 -21.5q-119 0 -216.5 40.5t-168 113t-109 173.5t-38.5 221q0 127 39.5 232t109.5 180t164.5 116.5t204.5 41.5q96 0 170.5 -29t125.5 -82.5t78 -129
t27 -169.5q0 -43 -6 -87.5t-17 -79.5l-31 -0.5t-80.5 -1t-113 -1t-129.5 -0.5l-352 -2v-9zM832 644v16q0 58 -14 106t-43 82t-74 52.5t-107 18.5q-67 0 -120 -24.5t-91 -64t-61 -89.5t-29 -101zM617 1192h-138l243 415h229z" />
    <glyph glyph-name="ecircumflex" unicode="&#xea;" horiz-adv-x="1101" 
d="M284 493q3 -77 29 -142t71.5 -112t108 -73t138.5 -26q83 0 166.5 22t147.5 65l34 -174q-71 -44 -162 -65.5t-191 -21.5q-119 0 -216.5 40.5t-168 113t-109 173.5t-38.5 221q0 127 39.5 232t109.5 180t164.5 116.5t204.5 41.5q96 0 170.5 -29t125.5 -82.5t78 -129
t27 -169.5q0 -43 -6 -87.5t-17 -79.5l-31 -0.5t-80.5 -1t-113 -1t-129.5 -0.5l-352 -2v-9zM832 644v16q0 58 -14 106t-43 82t-74 52.5t-107 18.5q-67 0 -120 -24.5t-91 -64t-61 -89.5t-29 -101zM769 1192l-225 291h-2l-227 -291h-138l264 429h201l264 -429h-137z" />
    <glyph glyph-name="edieresis" unicode="&#xeb;" horiz-adv-x="1101" 
d="M284 493q3 -77 29 -142t71.5 -112t108 -73t138.5 -26q83 0 166.5 22t147.5 65l34 -174q-71 -44 -162 -65.5t-191 -21.5q-119 0 -216.5 40.5t-168 113t-109 173.5t-38.5 221q0 127 39.5 232t109.5 180t164.5 116.5t204.5 41.5q96 0 170.5 -29t125.5 -82.5t78 -129
t27 -169.5q0 -43 -6 -87.5t-17 -79.5l-31 -0.5t-80.5 -1t-113 -1t-129.5 -0.5l-352 -2v-9zM832 644v16q0 58 -14 106t-43 82t-74 52.5t-107 18.5q-67 0 -120 -24.5t-91 -64t-61 -89.5t-29 -101zM924 1346q0 -29 -10 -55.5t-28 -46.5t-43.5 -31.5t-56.5 -11.5t-56 11.5
t-43 31.5t-28 46.5t-10 55.5q0 28 10 54t28 45.5t43 31t56 11.5t56.5 -11.5t43.5 -31t28 -45.5t10 -54zM456 1346q0 -29 -10 -55.5t-28.5 -46.5t-44.5 -31.5t-57 -11.5q-30 0 -55 11.5t-43.5 31.5t-28.5 46.5t-10 55.5q0 28 10 54t28.5 45.5t43.5 31t55 11.5q31 0 57 -11.5
t44.5 -31t28.5 -45.5t10 -54z" />
    <glyph glyph-name="igrave" unicode="&#xec;" horiz-adv-x="514" 
d="M170 0v1034l188 30v-1064h-188zM211 1192l-335 415h229l243 -415h-137z" />
    <glyph glyph-name="iacute" unicode="&#xed;" horiz-adv-x="514" 
d="M170 0v1034l188 30v-1064h-188zM317 1192h-138l243 415h229z" />
    <glyph glyph-name="icircumflex" unicode="&#xee;" horiz-adv-x="514" 
d="M170 0v1034l188 30v-1064h-188zM491 1192l-225 291h-2l-227 -291h-138l264 429h201l264 -429h-137z" />
    <glyph glyph-name="idieresis" unicode="&#xef;" horiz-adv-x="514" 
d="M170 0v1034l188 30v-1064h-188zM635 1346q0 -29 -10 -55.5t-28 -46.5t-43.5 -31.5t-56.5 -11.5t-56 11.5t-43 31.5t-28 46.5t-10 55.5q0 28 10 54t28 45.5t43 31t56 11.5t56.5 -11.5t43.5 -31t28 -45.5t10 -54zM167 1346q0 -29 -10 -55.5t-28.5 -46.5t-44.5 -31.5
t-57 -11.5q-30 0 -55 11.5t-43.5 31.5t-28.5 46.5t-10 55.5q0 28 10 54t28.5 45.5t43.5 31t55 11.5q31 0 57 -11.5t44.5 -31t28.5 -45.5t10 -54z" />
    <glyph glyph-name="eth" unicode="&#xf0;" horiz-adv-x="1224" 
d="M1130 557q0 -126 -33 -234t-97.5 -187.5t-161.5 -124.5t-224 -45q-118 0 -214 38.5t-164 106t-105 159.5t-37 200q0 84 19.5 156t53 130t78.5 103t95.5 75t104 45.5t105.5 15.5q61 0 110.5 -11.5t90 -32t73 -49.5t61.5 -63l5 2q-17 45 -52.5 101t-81 114.5t-97.5 116
t-100 106.5l-236 -64l-32 126l161 44q-44 42 -88.5 82t-92.5 78l213 51q47 -38 89.5 -76t82.5 -78l236 62l32 -126l-165 -44q82 -91 150.5 -187.5t117.5 -195t76 -198t27 -196.5zM945 514q0 66 -13 115t-29 84q-15 25 -46 46t-73 36.5t-92 24t-103 8.5q-59 0 -112 -23
t-93 -65.5t-64 -104t-24 -137.5q0 -87 24 -154.5t67 -114t103 -70.5t131 -24q70 0 129.5 25t103 73.5t67.5 119t24 161.5z" />
    <glyph glyph-name="ntilde" unicode="&#xf1;" horiz-adv-x="1185" 
d="M844 0v660q0 68 -13 114.5t-40 75t-68 41t-97 12.5q-41 0 -81 -10t-75.5 -26t-66 -36.5t-52.5 -41.5v-789h-188v1055l188 29v-158q72 73 161 115.5t180 42.5q80 0 143.5 -24.5t107 -71t66.5 -114t23 -152.5v-722h-188zM991 1488q-16 -146 -67 -217.5t-156 -71.5
q-53 0 -102.5 24.5t-94 54.5t-83.5 54.5t-71 24.5q-31 0 -53 -31.5t-34 -110.5h-126q8 74 24 128.5t43 90.5t65 54t91 18t102.5 -25t94 -55t83 -55t70.5 -25t53 31.5t32 110.5h129v0z" />
    <glyph glyph-name="ograve" unicode="&#xf2;" horiz-adv-x="1211" 
d="M1117 525q0 -126 -39 -229.5t-108 -176.5t-163.5 -113t-205.5 -40q-112 0 -205 39.5t-160 112.5t-104.5 176.5t-37.5 230.5q0 126 38.5 230t107.5 177.5t164 114t208 40.5t206 -40t159.5 -113.5t103 -177.5t36.5 -231zM931 523q0 84 -22.5 156t-64.5 125t-103 83t-138 30
q-78 0 -138.5 -29t-101.5 -81t-62 -123.5t-21 -156.5q0 -84 22 -156t64 -124.5t103 -82t139 -29.5t138 28.5t101.5 80t62.5 123t21 156.5zM606 1192l-335 415h229l243 -415h-137z" />
    <glyph glyph-name="oacute" unicode="&#xf3;" horiz-adv-x="1211" 
d="M1117 525q0 -126 -39 -229.5t-108 -176.5t-163.5 -113t-205.5 -40q-112 0 -205 39.5t-160 112.5t-104.5 176.5t-37.5 230.5q0 126 38.5 230t107.5 177.5t164 114t208 40.5t206 -40t159.5 -113.5t103 -177.5t36.5 -231zM931 523q0 84 -22.5 156t-64.5 125t-103 83t-138 30
q-78 0 -138.5 -29t-101.5 -81t-62 -123.5t-21 -156.5q0 -84 22 -156t64 -124.5t103 -82t139 -29.5t138 28.5t101.5 80t62.5 123t21 156.5zM619 1192h-138l243 415h229z" />
    <glyph glyph-name="ocircumflex" unicode="&#xf4;" horiz-adv-x="1211" 
d="M1117 525q0 -126 -39 -229.5t-108 -176.5t-163.5 -113t-205.5 -40q-112 0 -205 39.5t-160 112.5t-104.5 176.5t-37.5 230.5q0 126 38.5 230t107.5 177.5t164 114t208 40.5t206 -40t159.5 -113.5t103 -177.5t36.5 -231zM931 523q0 84 -22.5 156t-64.5 125t-103 83t-138 30
q-78 0 -138.5 -29t-101.5 -81t-62 -123.5t-21 -156.5q0 -84 22 -156t64 -124.5t103 -82t139 -29.5t138 28.5t101.5 80t62.5 123t21 156.5zM840 1192l-225 291h-2l-227 -291h-138l264 429h201l264 -429h-137z" />
    <glyph glyph-name="otilde" unicode="&#xf5;" horiz-adv-x="1211" 
d="M1117 525q0 -126 -39 -229.5t-108 -176.5t-163.5 -113t-205.5 -40q-112 0 -205 39.5t-160 112.5t-104.5 176.5t-37.5 230.5q0 126 38.5 230t107.5 177.5t164 114t208 40.5t206 -40t159.5 -113.5t103 -177.5t36.5 -231zM931 523q0 84 -22.5 156t-64.5 125t-103 83t-138 30
q-78 0 -138.5 -29t-101.5 -81t-62 -123.5t-21 -156.5q0 -84 22 -156t64 -124.5t103 -82t139 -29.5t138 28.5t101.5 80t62.5 123t21 156.5zM1005 1488q-16 -146 -67 -217.5t-156 -71.5q-53 0 -102.5 24.5t-94 54.5t-83.5 54.5t-71 24.5q-31 0 -53 -31.5t-34 -110.5h-126
q8 74 24 128.5t43 90.5t65 54t91 18t102.5 -25t94 -55t83 -55t70.5 -25t53 31.5t32 110.5h129v0z" />
    <glyph glyph-name="odieresis" unicode="&#xf6;" horiz-adv-x="1211" 
d="M1117 525q0 -126 -39 -229.5t-108 -176.5t-163.5 -113t-205.5 -40q-112 0 -205 39.5t-160 112.5t-104.5 176.5t-37.5 230.5q0 126 38.5 230t107.5 177.5t164 114t208 40.5t206 -40t159.5 -113.5t103 -177.5t36.5 -231zM931 523q0 84 -22.5 156t-64.5 125t-103 83t-138 30
q-78 0 -138.5 -29t-101.5 -81t-62 -123.5t-21 -156.5q0 -84 22 -156t64 -124.5t103 -82t139 -29.5t138 28.5t101.5 80t62.5 123t21 156.5zM984 1346q0 -29 -10 -55.5t-28 -46.5t-43.5 -31.5t-56.5 -11.5t-56 11.5t-43 31.5t-28 46.5t-10 55.5q0 28 10 54t28 45.5t43 31
t56 11.5t56.5 -11.5t43.5 -31t28 -45.5t10 -54zM516 1346q0 -29 -10 -55.5t-28.5 -46.5t-44.5 -31.5t-57 -11.5q-30 0 -55 11.5t-43.5 31.5t-28.5 46.5t-10 55.5q0 28 10 54t28.5 45.5t43.5 31t55 11.5q31 0 57 -11.5t44.5 -31t28.5 -45.5t10 -54z" />
    <glyph glyph-name="divide" unicode="&#xf7;" 
d="M110 456l7 163h917l7 -163h-931zM731 188q0 -30 -11 -58t-31 -49t-48 -34t-61 -13t-61.5 13t-49.5 34t-33 49t-12 58t12 57t33 47.5t49.5 32.5t61.5 12t61 -12t48 -32.5t31 -47.5t11 -57zM731 887q0 -30 -11.5 -57t-32.5 -47.5t-49.5 -32.5t-62.5 -12q-33 0 -61 12
t-48 32.5t-31 47.5t-11 57t11 58t31 49.5t48 34t61 12.5q34 0 62.5 -12.5t49.5 -34t32.5 -49.5t11.5 -58z" />
    <glyph glyph-name="oslash" unicode="&#xf8;" horiz-adv-x="1211" 
d="M1123 525q0 -126 -39 -229.5t-108 -176.5t-163 -113t-205 -40q-59 0 -113.5 11.5t-102.5 31.5l-94 -163h-151q37 65 67 117q12 22 24 43t21.5 37.5t15 26.5l5.5 10q-85 73 -132 186t-47 259q0 126 38.5 230t107 177.5t163.5 114t209 40.5q60 0 113.5 -11.5t102.5 -32.5
l94 163h151l-135 -234q85 -74 131.5 -187.5t46.5 -259.5zM747 890q-29 14 -64 20.5t-73 6.5q-78 0 -138.5 -29t-101.5 -81t-62 -123.5t-21 -156.5q0 -184 84 -289zM938 523q0 90 -21.5 163.5t-63.5 125.5l-374 -652q61 -25 135 -25q78 0 138.5 28.5t102 80t62.5 123
t21 156.5z" />
    <glyph glyph-name="ugrave" unicode="&#xf9;" horiz-adv-x="1185" 
d="M342 1050v-660q0 -68 13 -114.5t38.5 -75t64 -41t90.5 -12.5q45 0 87.5 10t79 26t67 36.5t53.5 41.5v789h188v-1055l-188 -29v153q-73 -72 -163.5 -112.5t-190.5 -40.5q-75 0 -135.5 24.5t-103 71t-65.5 114t-23 152.5v722h188zM569 1192l-335 415h229l243 -415h-137z
" />
    <glyph glyph-name="uacute" unicode="&#xfa;" horiz-adv-x="1185" 
d="M342 1050v-660q0 -68 13 -114.5t38.5 -75t64 -41t90.5 -12.5q45 0 87.5 10t79 26t67 36.5t53.5 41.5v789h188v-1055l-188 -29v153q-73 -72 -163.5 -112.5t-190.5 -40.5q-75 0 -135.5 24.5t-103 71t-65.5 114t-23 152.5v722h188zM629 1192h-138l243 415h229z" />
    <glyph glyph-name="ucircumflex" unicode="&#xfb;" horiz-adv-x="1185" 
d="M342 1050v-660q0 -68 13 -114.5t38.5 -75t64 -41t90.5 -12.5q45 0 87.5 10t79 26t67 36.5t53.5 41.5v789h188v-1055l-188 -29v153q-73 -72 -163.5 -112.5t-190.5 -40.5q-75 0 -135.5 24.5t-103 71t-65.5 114t-23 152.5v722h188zM826 1192l-225 291h-2l-227 -291h-138
l264 429h201l264 -429h-137z" />
    <glyph glyph-name="udieresis" unicode="&#xfc;" horiz-adv-x="1185" 
d="M342 1050v-660q0 -68 13 -114.5t38.5 -75t64 -41t90.5 -12.5q45 0 87.5 10t79 26t67 36.5t53.5 41.5v789h188v-1055l-188 -29v153q-73 -72 -163.5 -112.5t-190.5 -40.5q-75 0 -135.5 24.5t-103 71t-65.5 114t-23 152.5v722h188zM958 1346q0 -29 -10 -55.5t-28 -46.5
t-43.5 -31.5t-56.5 -11.5t-56 11.5t-43 31.5t-28 46.5t-10 55.5q0 28 10 54t28 45.5t43 31t56 11.5t56.5 -11.5t43.5 -31t28 -45.5t10 -54zM490 1346q0 -29 -10 -55.5t-28.5 -46.5t-44.5 -31.5t-57 -11.5q-30 0 -55 11.5t-43.5 31.5t-28.5 46.5t-10 55.5q0 28 10 54
t28.5 45.5t43.5 31t55 11.5q31 0 57 -11.5t44.5 -31t28.5 -45.5t10 -54z" />
    <glyph glyph-name="yacute" unicode="&#xfd;" horiz-adv-x="1011" 
d="M587 -11l-71 -188q-38 -100 -77.5 -166.5t-84 -106.5t-95.5 -57t-112 -17t-115 15.5t-108 39.5l55 175q42 -21 85 -36t83 -15q30 0 55 9.5t49 35t47.5 69.5t50.5 113l64 163l-408 1027h201l305 -816l296 816h200zM564 1192h-138l243 415h230z" />
    <glyph glyph-name="thorn" unicode="&#xfe;" horiz-adv-x="1192" 
d="M351 -564h-188v2109l188 30v-610q28 22 59.5 43.5t67 38.5t74.5 27t81 10q115 0 204.5 -42t150.5 -116.5t92.5 -176t31.5 -219.5q0 -120 -39.5 -223t-110 -178.5t-168.5 -119t-216 -43.5q-23 0 -52 1.5t-60 5t-60.5 8.5t-54.5 12v-557zM351 211q47 -38 106 -57t128 -19
q80 0 142 30.5t104 83.5t64 124t22 152q0 87 -21.5 158t-61.5 121.5t-98 78t-131 27.5q-74 0 -137 -27t-117 -74v-598z" />
    <glyph glyph-name="ydieresis" unicode="&#xff;" horiz-adv-x="1011" 
d="M587 -11l-71 -188q-38 -100 -77.5 -166.5t-84 -106.5t-95.5 -57t-112 -17t-115 15.5t-108 39.5l55 175q42 -21 85 -36t83 -15q30 0 55 9.5t49 35t47.5 69.5t50.5 113l64 163l-408 1027h201l305 -816l296 816h200zM883 1346q0 -29 -10 -55.5t-28 -46.5t-43.5 -31.5
t-56.5 -11.5t-56 11.5t-43 31.5t-28 46.5t-10 55.5q0 28 10 54t28 45.5t43 31t56 11.5t56.5 -11.5t43.5 -31t28 -45.5t10 -54zM415 1346q0 -29 -10 -55.5t-28.5 -46.5t-44.5 -31.5t-57 -11.5q-30 0 -55 11.5t-43.5 31.5t-28.5 46.5t-10 55.5q0 28 10 54t28.5 45.5t43.5 31
t55 11.5q31 0 57 -11.5t44.5 -31t28.5 -45.5t10 -54z" />
    <glyph glyph-name="Amacron" unicode="&#x100;" horiz-adv-x="1316" 
d="M1305 0h-200l-135 376h-621l-136 -376h-202l539 1433h223zM660 1231l-247 -678h493zM344 1617l9 121h610l12 -121h-631z" />
    <glyph glyph-name="amacron" unicode="&#x101;" horiz-adv-x="1034" 
d="M702 523q-117 -16 -198.5 -36.5t-132 -48.5t-73.5 -64.5t-23 -84.5q0 -35 13 -65t37 -52t58.5 -34t77.5 -12q72 0 134 32t107 80v285zM699 112q-60 -71 -132 -108.5t-157 -37.5q-74 0 -135.5 23t-105.5 63.5t-68.5 95t-24.5 118.5q0 70 29 134.5t100 115.5t192 84t305 42
v30q0 63 -13 108.5t-41.5 74t-73.5 42t-109 13.5q-40 0 -84 -9t-88.5 -24.5t-87 -37t-79.5 -46.5l-37 170q34 24 79.5 46t97 38.5t107 26.5t111.5 10q106 0 183.5 -23.5t127.5 -73t73 -126.5t22 -185v-440q0 -33 3 -53t14 -31t31 -15t55 -4l-12 -158q-63 -5 -110 3
t-79.5 26.5t-53 46t-30.5 61.5h-9zM174 1234l9 121h610l12 -121h-631z" />
    <glyph glyph-name="Abreve" unicode="&#x102;" horiz-adv-x="1316" 
d="M1305 0h-200l-135 376h-621l-136 -376h-202l539 1433h223zM660 1231l-247 -678h493zM1027 2002q-12 -91 -39.5 -169.5t-72.5 -136t-108 -90.5t-146 -33q-84 0 -147 33t-108 90.5t-72.5 136t-39.5 169.5h153q10 -57 28 -108t44 -89t61 -60.5t81 -22.5q45 0 80.5 22.5
t62 60.5t44 89t26.5 108h153v0z" />
    <glyph glyph-name="abreve" unicode="&#x103;" horiz-adv-x="1034" 
d="M702 523q-117 -16 -198.5 -36.5t-132 -48.5t-73.5 -64.5t-23 -84.5q0 -35 13 -65t37 -52t58.5 -34t77.5 -12q72 0 134 32t107 80v285zM699 112q-60 -71 -132 -108.5t-157 -37.5q-74 0 -135.5 23t-105.5 63.5t-68.5 95t-24.5 118.5q0 70 29 134.5t100 115.5t192 84t305 42
v30q0 63 -13 108.5t-41.5 74t-73.5 42t-109 13.5q-40 0 -84 -9t-88.5 -24.5t-87 -37t-79.5 -46.5l-37 170q34 24 79.5 46t97 38.5t107 26.5t111.5 10q106 0 183.5 -23.5t127.5 -73t73 -126.5t22 -185v-440q0 -33 3 -53t14 -31t31 -15t55 -4l-12 -158q-63 -5 -110 3
t-79.5 26.5t-53 46t-30.5 61.5h-9zM901 1619q-12 -91 -39.5 -169.5t-72.5 -136t-108 -90.5t-146 -33q-84 0 -147 33t-108 90.5t-72.5 136t-39.5 169.5h153q10 -57 28 -108t44 -89t61 -60.5t81 -22.5q45 0 80.5 22.5t62 60.5t44 89t26.5 108h153v0z" />
    <glyph glyph-name="Aogonek" unicode="&#x104;" horiz-adv-x="1316" 
d="M1305 0q-53 -11 -99.5 -33.5t-81.5 -52t-55.5 -64t-20.5 -68.5q0 -52 26 -82t77 -30q31 0 62.5 10t54.5 27l41 -143q-36 -26 -86.5 -44t-119.5 -18q-53 0 -98 15.5t-77 44t-50 69.5t-18 92q0 54 21.5 100t56 82t78 61t87.5 36l-133 374h-621l-136 -376h-202l539 1433h223
zM660 1231l-247 -678h493z" />
    <glyph glyph-name="aogonek" unicode="&#x105;" horiz-adv-x="1034" 
d="M699 112q-60 -71 -132 -108.5t-157 -37.5q-74 0 -135.5 23t-105.5 63.5t-68.5 95t-24.5 118.5q0 70 29 134.5t100 115.5t192 84t305 42v30q0 63 -13 108.5t-41.5 74t-73.5 42t-109 13.5q-40 0 -84 -9t-88.5 -24.5t-87 -37t-79.5 -46.5l-37 170q34 24 79.5 46t97 38.5
t107 26.5t111.5 10q106 0 183.5 -23.5t127.5 -73t73 -126.5t22 -185v-440q0 -33 3 -53t14 -31t31 -15t55 -4l-12 -158q-59 -2 -106.5 -15t-81.5 -37.5t-52.5 -59.5t-18.5 -81q0 -52 26.5 -82t76.5 -30q32 0 63.5 10t53.5 27l42 -143q-37 -26 -87.5 -44t-119.5 -18
q-53 0 -98 15.5t-77 44t-50 69.5t-18 92t18 97t49 84t72 69t88 52q-38 35 -53 87h-9zM702 523q-117 -16 -198.5 -36.5t-132 -48.5t-73.5 -64.5t-23 -84.5q0 -35 13 -65t37 -52t58.5 -34t77.5 -12q72 0 134 32t107 80v285z" />
    <glyph glyph-name="Cacute" unicode="&#x106;" horiz-adv-x="1378" 
d="M1215 1172q-47 31 -93.5 53.5t-94 37.5t-98 22.5t-106.5 7.5q-117 0 -213 -39t-164 -113t-105.5 -180t-37.5 -239t38 -240.5t107 -183.5t165.5 -117t214.5 -41q57 0 113.5 11t109 30t99 44.5t84.5 54.5l32 -195q-44 -28 -96 -50t-109 -37.5t-117.5 -23.5t-120.5 -8
q-157 0 -289 52.5t-227 150t-148.5 235.5t-53.5 309t53.5 310t149 238t227.5 152.5t288 53.5q61 0 123 -8t121 -23.5t112.5 -37.5t97.5 -50zM725 1575h-138l243 415h229z" />
    <glyph glyph-name="cacute" unicode="&#x107;" horiz-adv-x="1046" 
d="M956 53q-71 -44 -158.5 -65.5t-187.5 -21.5q-125 0 -221 40.5t-161.5 114.5t-99.5 176.5t-34 227.5q0 126 39.5 229t110 176.5t167.5 113.5t213 40q102 0 184.5 -22t154.5 -67l-48 -172q-66 45 -139 66t-152 21q-81 0 -143.5 -26.5t-105 -76t-64.5 -120.5t-22 -160
q0 -91 24 -163t67.5 -121.5t104 -76t134.5 -26.5q83 0 161 22t142 65l34 -174v0zM553 1192h-138l243 415h229z" />
    <glyph glyph-name="Ccircumflex" unicode="&#x108;" horiz-adv-x="1378" 
d="M1215 1172q-47 31 -93.5 53.5t-94 37.5t-98 22.5t-106.5 7.5q-117 0 -213 -39t-164 -113t-105.5 -180t-37.5 -239t38 -240.5t107 -183.5t165.5 -117t214.5 -41q57 0 113.5 11t109 30t99 44.5t84.5 54.5l32 -195q-44 -28 -96 -50t-109 -37.5t-117.5 -23.5t-120.5 -8
q-157 0 -289 52.5t-227 150t-148.5 235.5t-53.5 309t53.5 310t149 238t227.5 152.5t288 53.5q61 0 123 -8t121 -23.5t112.5 -37.5t97.5 -50zM968 1575l-225 291h-2l-227 -291h-138l264 429h201l264 -429h-137z" />
    <glyph glyph-name="ccircumflex" unicode="&#x109;" horiz-adv-x="1046" 
d="M956 53q-71 -44 -158.5 -65.5t-187.5 -21.5q-125 0 -221 40.5t-161.5 114.5t-99.5 176.5t-34 227.5q0 126 39.5 229t110 176.5t167.5 113.5t213 40q102 0 184.5 -22t154.5 -67l-48 -172q-66 45 -139 66t-152 21q-81 0 -143.5 -26.5t-105 -76t-64.5 -120.5t-22 -160
q0 -91 24 -163t67.5 -121.5t104 -76t134.5 -26.5q83 0 161 22t142 65l34 -174v0zM821 1192l-225 291h-2l-227 -291h-138l264 429h201l264 -429h-137z" />
    <glyph glyph-name="Cdotaccent" unicode="&#x10a;" horiz-adv-x="1378" 
d="M1215 1172q-47 31 -93.5 53.5t-94 37.5t-98 22.5t-106.5 7.5q-117 0 -213 -39t-164 -113t-105.5 -180t-37.5 -239t38 -240.5t107 -183.5t165.5 -117t214.5 -41q57 0 113.5 11t109 30t99 44.5t84.5 54.5l32 -195q-44 -28 -96 -50t-109 -37.5t-117.5 -23.5t-120.5 -8
q-157 0 -289 52.5t-227 150t-148.5 235.5t-53.5 309t53.5 310t149 238t227.5 152.5t288 53.5q61 0 123 -8t121 -23.5t112.5 -37.5t97.5 -50zM908 1724q0 -27 -9.5 -52t-26.5 -44t-42 -30t-55 -11q-29 0 -53 11t-41 30t-26.5 44t-9.5 52q0 28 9.5 53.5t26.5 45t41 30.5t53 11
q30 0 55 -11t42 -30.5t26.5 -45t9.5 -53.5z" />
    <glyph glyph-name="cdotaccent" unicode="&#x10b;" horiz-adv-x="1046" 
d="M956 53q-71 -44 -158.5 -65.5t-187.5 -21.5q-125 0 -221 40.5t-161.5 114.5t-99.5 176.5t-34 227.5q0 126 39.5 229t110 176.5t167.5 113.5t213 40q102 0 184.5 -22t154.5 -67l-48 -172q-66 45 -139 66t-152 21q-81 0 -143.5 -26.5t-105 -76t-64.5 -120.5t-22 -160
q0 -91 24 -163t67.5 -121.5t104 -76t134.5 -26.5q83 0 161 22t142 65l34 -174v0zM752 1341q0 -27 -9.5 -52t-26.5 -44t-42 -30t-55 -11q-29 0 -53 11t-41 30t-26.5 44t-9.5 52q0 28 9.5 53.5t26.5 45t41 30.5t53 11q30 0 55 -11t42 -30.5t26.5 -45t9.5 -53.5z" />
    <glyph glyph-name="Ccaron" unicode="&#x10c;" horiz-adv-x="1378" 
d="M1215 1172q-47 31 -93.5 53.5t-94 37.5t-98 22.5t-106.5 7.5q-117 0 -213 -39t-164 -113t-105.5 -180t-37.5 -239t38 -240.5t107 -183.5t165.5 -117t214.5 -41q57 0 113.5 11t109 30t99 44.5t84.5 54.5l32 -195q-44 -28 -96 -50t-109 -37.5t-117.5 -23.5t-120.5 -8
q-157 0 -289 52.5t-227 150t-148.5 235.5t-53.5 309t53.5 310t149 238t227.5 152.5t288 53.5q61 0 123 -8t121 -23.5t112.5 -37.5t97.5 -50zM841 1575h-201l-264 429h138l224 -291h3l227 291h137z" />
    <glyph glyph-name="ccaron" unicode="&#x10d;" horiz-adv-x="1046" 
d="M956 53q-71 -44 -158.5 -65.5t-187.5 -21.5q-125 0 -221 40.5t-161.5 114.5t-99.5 176.5t-34 227.5q0 126 39.5 229t110 176.5t167.5 113.5t213 40q102 0 184.5 -22t154.5 -67l-48 -172q-66 45 -139 66t-152 21q-81 0 -143.5 -26.5t-105 -76t-64.5 -120.5t-22 -160
q0 -91 24 -163t67.5 -121.5t104 -76t134.5 -26.5q83 0 161 22t142 65l34 -174v0zM690 1192h-201l-264 429h138l224 -291h3l227 291h137z" />
    <glyph glyph-name="Dcaron" unicode="&#x10e;" horiz-adv-x="1477" 
d="M1371 727q0 -166 -50.5 -300.5t-148.5 -229t-241 -146t-328 -51.5h-422v1433h431q178 0 319 -50.5t238.5 -143t149.5 -222.5t52 -290zM1176 713q0 132 -38.5 233t-112 169t-180 102.5t-242.5 34.5h-227v-1071h236q128 0 232.5 34t178 100.5t113.5 166t40 231.5zM758 1575
h-201l-264 429h138l224 -291h3l227 291h137z" />
    <glyph glyph-name="dcaron" unicode="&#x10f;" horiz-adv-x="1708" 
d="M855 1545l188 30v-1575h-188v96q-28 -27 -60 -50.5t-68 -41t-77.5 -28t-87.5 -10.5q-111 0 -198 42t-147 116.5t-91.5 175.5t-31.5 220q0 120 39.5 223t110 178.5t168.5 119t216 43.5q57 0 117 -9t110 -25v495zM855 839q-47 38 -106 57t-128 19q-80 0 -142 -30.5
t-104 -83.5t-64 -124t-22 -152q0 -87 21.5 -158t61.5 -121.5t98 -78t131 -27.5q74 0 137 27t117 74v598zM1300 1454q3 27 14.5 51.5t31 43t47 29.5t63.5 11q35 0 70 -15.5t62.5 -43t45 -66t17.5 -83.5q0 -72 -29 -135t-77 -118.5t-109 -103.5t-125 -90l-80 78
q119 86 176.5 158t57.5 133q0 21 -8.5 39.5t-27.5 36t-51 36t-78 39.5z" />
    <glyph glyph-name="Dcroat" unicode="&#x110;" horiz-adv-x="1511" 
d="M786 809v-167h-364v-461h236q128 0 232.5 34t178 100.5t113.5 166t40 231.5t-38.5 233t-112 169t-180 102.5t-242.5 34.5h-227v-443h364zM37 642v167h190v624h431q178 0 319 -50.5t238.5 -143t149.5 -222.5t52 -290q0 -166 -50.5 -300.5t-148.5 -229t-241 -146
t-328 -51.5h-422v642h-190z" />
    <glyph glyph-name="dcroat" unicode="&#x111;" horiz-adv-x="1206" 
d="M855 1234h-250l12 121h238v190l188 30v-222l147 2l9 -121h-156v-1234h-188v96q-28 -27 -60 -50.5t-68 -41t-77.5 -28t-87.5 -10.5q-111 0 -198 42t-147 116.5t-91.5 175.5t-31.5 220q0 120 39.5 223t110 178.5t168.5 119t216 43.5q57 0 117 -9t110 -25v184zM855 839
q-47 38 -106 57t-128 19q-80 0 -142 -30.5t-104 -83.5t-64 -124t-22 -152q0 -87 21.5 -158t61.5 -121.5t98 -78t131 -27.5q74 0 137 27t117 74v598z" />
    <glyph glyph-name="Emacron" unicode="&#x112;" horiz-adv-x="1199" 
d="M181 0v1433h908v-181h-713v-443h594v-181h-594v-447h713v-181h-908zM316 1617l9 121h610l12 -121h-631z" />
    <glyph glyph-name="emacron" unicode="&#x113;" horiz-adv-x="1101" 
d="M284 493q3 -77 29 -142t71.5 -112t108 -73t138.5 -26q83 0 166.5 22t147.5 65l34 -174q-71 -44 -162 -65.5t-191 -21.5q-119 0 -216.5 40.5t-168 113t-109 173.5t-38.5 221q0 127 39.5 232t109.5 180t164.5 116.5t204.5 41.5q96 0 170.5 -29t125.5 -82.5t78 -129
t27 -169.5q0 -43 -6 -87.5t-17 -79.5l-31 -0.5t-80.5 -1t-113 -1t-129.5 -0.5l-352 -2v-9zM832 644v16q0 58 -14 106t-43 82t-74 52.5t-107 18.5q-67 0 -120 -24.5t-91 -64t-61 -89.5t-29 -101zM264 1234l9 121h610l12 -121h-631z" />
    <glyph glyph-name="Ebreve" unicode="&#x114;" horiz-adv-x="1199" 
d="M181 0v1433h908v-181h-713v-443h594v-181h-594v-447h713v-181h-908zM1027 2002q-12 -91 -39.5 -169.5t-72.5 -136t-108 -90.5t-146 -33q-84 0 -147 33t-108 90.5t-72.5 136t-39.5 169.5h153q10 -57 28 -108t44 -89t61 -60.5t81 -22.5q45 0 80.5 22.5t62 60.5t44 89
t26.5 108h153v0z" />
    <glyph glyph-name="ebreve" unicode="&#x115;" horiz-adv-x="1101" 
d="M284 493q3 -77 29 -142t71.5 -112t108 -73t138.5 -26q83 0 166.5 22t147.5 65l34 -174q-71 -44 -162 -65.5t-191 -21.5q-119 0 -216.5 40.5t-168 113t-109 173.5t-38.5 221q0 127 39.5 232t109.5 180t164.5 116.5t204.5 41.5q96 0 170.5 -29t125.5 -82.5t78 -129
t27 -169.5q0 -43 -6 -87.5t-17 -79.5l-31 -0.5t-80.5 -1t-113 -1t-129.5 -0.5l-352 -2v-9zM832 644v16q0 58 -14 106t-43 82t-74 52.5t-107 18.5q-67 0 -120 -24.5t-91 -64t-61 -89.5t-29 -101zM944 1619q-12 -91 -39.5 -169.5t-72.5 -136t-108 -90.5t-146 -33
q-84 0 -147 33t-108 90.5t-72.5 136t-39.5 169.5h153q10 -57 28 -108t44 -89t61 -60.5t81 -22.5q45 0 80.5 22.5t62 60.5t44 89t26.5 108h153v0z" />
    <glyph glyph-name="Edotaccent" unicode="&#x116;" horiz-adv-x="1199" 
d="M181 0v1433h908v-181h-713v-443h594v-181h-594v-447h713v-181h-908zM777 1724q0 -27 -9.5 -52t-26.5 -44t-42 -30t-55 -11q-29 0 -53 11t-41 30t-26.5 44t-9.5 52q0 28 9.5 53.5t26.5 45t41 30.5t53 11q30 0 55 -11t42 -30.5t26.5 -45t9.5 -53.5z" />
    <glyph glyph-name="edotaccent" unicode="&#x117;" horiz-adv-x="1101" 
d="M284 493q3 -77 29 -142t71.5 -112t108 -73t138.5 -26q83 0 166.5 22t147.5 65l34 -174q-71 -44 -162 -65.5t-191 -21.5q-119 0 -216.5 40.5t-168 113t-109 173.5t-38.5 221q0 127 39.5 232t109.5 180t164.5 116.5t204.5 41.5q96 0 170.5 -29t125.5 -82.5t78 -129
t27 -169.5q0 -43 -6 -87.5t-17 -79.5l-31 -0.5t-80.5 -1t-113 -1t-129.5 -0.5l-352 -2v-9zM832 644v16q0 58 -14 106t-43 82t-74 52.5t-107 18.5q-67 0 -120 -24.5t-91 -64t-61 -89.5t-29 -101zM713 1341q0 -27 -9.5 -52t-26.5 -44t-42 -30t-55 -11q-29 0 -53 11t-41 30
t-26.5 44t-9.5 52q0 28 9.5 53.5t26.5 45t41 30.5t53 11q30 0 55 -11t42 -30.5t26.5 -45t9.5 -53.5z" />
    <glyph glyph-name="Eogonek" unicode="&#x118;" horiz-adv-x="1199" 
d="M965 0q-67 -50 -102 -102.5t-35 -115.5q0 -52 26 -82t77 -30q31 0 62.5 10t54.5 27l41 -143q-36 -26 -86.5 -44t-119.5 -18q-53 0 -98 15.5t-77 44t-50 69.5t-18 92q0 45 14 85t38.5 75t57.5 64.5t71 52.5h-640v1433h908v-181h-713v-443h594v-181h-594v-447h713v-181
h-124z" />
    <glyph glyph-name="eogonek" unicode="&#x119;" horiz-adv-x="1101" 
d="M284 493q3 -77 29 -142t71.5 -112t108 -73t138.5 -26q83 0 166.5 22t147.5 65l34 -174q-49 -14 -96.5 -40.5t-84.5 -62.5t-60 -79t-23 -89q0 -52 26.5 -82t77.5 -30q31 0 62.5 10t53.5 27l42 -143q-36 -26 -87 -44t-120 -18q-53 0 -98 15.5t-77 44t-50 69.5t-18 92
q0 75 37 136.5t96 106.5h-34q-119 0 -216.5 40.5t-168 113t-109 173.5t-38.5 221q0 127 39.5 232t109.5 180t164.5 116.5t204.5 41.5q96 0 170.5 -29t125.5 -82.5t78 -129t27 -169.5q0 -43 -6 -87.5t-17 -79.5l-31 -0.5t-80.5 -1t-113 -1t-129.5 -0.5l-352 -2v-9zM832 644
v16q0 58 -14 106t-43 82t-74 52.5t-107 18.5q-67 0 -120 -24.5t-91 -64t-61 -89.5t-29 -101z" />
    <glyph glyph-name="Ecaron" unicode="&#x11a;" horiz-adv-x="1199" 
d="M181 0v1433h908v-181h-713v-443h594v-181h-594v-447h713v-181h-908zM758 1575h-201l-264 429h138l224 -291h3l227 291h137z" />
    <glyph glyph-name="ecaron" unicode="&#x11b;" horiz-adv-x="1101" 
d="M284 493q3 -77 29 -142t71.5 -112t108 -73t138.5 -26q83 0 166.5 22t147.5 65l34 -174q-71 -44 -162 -65.5t-191 -21.5q-119 0 -216.5 40.5t-168 113t-109 173.5t-38.5 221q0 127 39.5 232t109.5 180t164.5 116.5t204.5 41.5q96 0 170.5 -29t125.5 -82.5t78 -129
t27 -169.5q0 -43 -6 -87.5t-17 -79.5l-31 -0.5t-80.5 -1t-113 -1t-129.5 -0.5l-352 -2v-9zM832 644v16q0 58 -14 106t-43 82t-74 52.5t-107 18.5q-67 0 -120 -24.5t-91 -64t-61 -89.5t-29 -101zM678 1192h-201l-264 429h138l224 -291h3l227 291h137z" />
    <glyph glyph-name="Gcircumflex" unicode="&#x11c;" horiz-adv-x="1467" 
d="M1328 103q-56 -35 -120.5 -60.5t-130.5 -42.5t-131 -25.5t-123 -8.5q-157 0 -289 52.5t-227 150t-148.5 235.5t-53.5 309t53.5 310t149 238t227.5 152.5t288 53.5q63 0 128.5 -8.5t128 -24.5t119 -39t101.5 -51l-64 -179q-43 27 -92.5 50.5t-102 41t-108 27t-110.5 9.5
q-117 0 -213 -39t-164 -113t-105.5 -180t-37.5 -239t38 -240.5t107 -183.5t165.5 -117t214.5 -41q90 0 169 21t143 52v340h-402v181h590v-631v0zM986 1575l-225 291h-2l-227 -291h-138l264 429h201l264 -429h-137z" />
    <glyph glyph-name="gcircumflex" unicode="&#x11d;" horiz-adv-x="1091" 
d="M291 686q0 -53 17 -96t49 -73.5t77.5 -47.5t102.5 -17q51 0 92.5 17.5t71 50t45 77.5t15.5 100q0 52 -15 95t-45 74.5t-75.5 49t-105.5 17.5q-51 0 -93.5 -18t-72.5 -50.5t-46.5 -78t-16.5 -100.5zM383 -50q-40 -11 -73 -28t-57 -39t-37.5 -48t-13.5 -55q0 -42 24 -77.5
t67.5 -62t104.5 -41t136 -14.5q74 0 138.5 15.5t112 43t75 67t27.5 87.5q0 43 -19.5 70.5t-58.5 43.5t-98 22t-138 6q-50 0 -102.5 3t-87.5 7zM241 -16q-68 29 -103 75t-35 101q0 33 12.5 64t35 57.5t55 48t71.5 35.5q-83 48 -128.5 131t-45.5 192q0 77 28.5 148.5t83 126.5
t134 88t181.5 33q85 0 152.5 -18t117.5 -41l271 25l7 -186l-202 37q15 -15 28 -39.5t22.5 -53.5t15 -61t5.5 -61q0 -79 -31 -149.5t-86.5 -123t-133 -83t-169.5 -30.5q-20 0 -36.5 1.5t-33 4.5t-35 8t-41.5 12q-17 -6 -35 -16.5t-33.5 -25t-25.5 -32t-10 -36.5
q0 -23 9.5 -41.5t36 -31.5t73 -19.5t120.5 -6.5h96q235 0 347 -71.5t112 -210.5q0 -87 -44 -161t-120.5 -128t-180 -84.5t-222.5 -30.5q-104 0 -193 21.5t-154.5 62t-103 97t-37.5 127.5q0 45 15 84.5t43.5 72t70.5 55t96 33.5zM755 1192l-225 291h-2l-227 -291h-138
l264 429h201l264 -429h-137z" />
    <glyph glyph-name="Gbreve" unicode="&#x11e;" horiz-adv-x="1467" 
d="M1328 103q-56 -35 -120.5 -60.5t-130.5 -42.5t-131 -25.5t-123 -8.5q-157 0 -289 52.5t-227 150t-148.5 235.5t-53.5 309t53.5 310t149 238t227.5 152.5t288 53.5q63 0 128.5 -8.5t128 -24.5t119 -39t101.5 -51l-64 -179q-43 27 -92.5 50.5t-102 41t-108 27t-110.5 9.5
q-117 0 -213 -39t-164 -113t-105.5 -180t-37.5 -239t38 -240.5t107 -183.5t165.5 -117t214.5 -41q90 0 169 21t143 52v340h-402v181h590v-631v0zM1100 2002q-12 -91 -39.5 -169.5t-72.5 -136t-108 -90.5t-146 -33q-84 0 -147 33t-108 90.5t-72.5 136t-39.5 169.5h153
q10 -57 28 -108t44 -89t61 -60.5t81 -22.5q45 0 80.5 22.5t62 60.5t44 89t26.5 108h153v0z" />
    <glyph glyph-name="gbreve" unicode="&#x11f;" horiz-adv-x="1091" 
d="M291 686q0 -53 17 -96t49 -73.5t77.5 -47.5t102.5 -17q51 0 92.5 17.5t71 50t45 77.5t15.5 100q0 52 -15 95t-45 74.5t-75.5 49t-105.5 17.5q-51 0 -93.5 -18t-72.5 -50.5t-46.5 -78t-16.5 -100.5zM383 -50q-40 -11 -73 -28t-57 -39t-37.5 -48t-13.5 -55q0 -42 24 -77.5
t67.5 -62t104.5 -41t136 -14.5q74 0 138.5 15.5t112 43t75 67t27.5 87.5q0 43 -19.5 70.5t-58.5 43.5t-98 22t-138 6q-50 0 -102.5 3t-87.5 7zM241 -16q-68 29 -103 75t-35 101q0 33 12.5 64t35 57.5t55 48t71.5 35.5q-83 48 -128.5 131t-45.5 192q0 77 28.5 148.5t83 126.5
t134 88t181.5 33q85 0 152.5 -18t117.5 -41l271 25l7 -186l-202 37q15 -15 28 -39.5t22.5 -53.5t15 -61t5.5 -61q0 -79 -31 -149.5t-86.5 -123t-133 -83t-169.5 -30.5q-20 0 -36.5 1.5t-33 4.5t-35 8t-41.5 12q-17 -6 -35 -16.5t-33.5 -25t-25.5 -32t-10 -36.5
q0 -23 9.5 -41.5t36 -31.5t73 -19.5t120.5 -6.5h96q235 0 347 -71.5t112 -210.5q0 -87 -44 -161t-120.5 -128t-180 -84.5t-222.5 -30.5q-104 0 -193 21.5t-154.5 62t-103 97t-37.5 127.5q0 45 15 84.5t43.5 72t70.5 55t96 33.5zM917 1619q-12 -91 -39.5 -169.5t-72.5 -136
t-108 -90.5t-146 -33q-84 0 -147 33t-108 90.5t-72.5 136t-39.5 169.5h153q10 -57 28 -108t44 -89t61 -60.5t81 -22.5q45 0 80.5 22.5t62 60.5t44 89t26.5 108h153v0z" />
    <glyph glyph-name="Gdotaccent" unicode="&#x120;" horiz-adv-x="1467" 
d="M1328 103q-56 -35 -120.5 -60.5t-130.5 -42.5t-131 -25.5t-123 -8.5q-157 0 -289 52.5t-227 150t-148.5 235.5t-53.5 309t53.5 310t149 238t227.5 152.5t288 53.5q63 0 128.5 -8.5t128 -24.5t119 -39t101.5 -51l-64 -179q-43 27 -92.5 50.5t-102 41t-108 27t-110.5 9.5
q-117 0 -213 -39t-164 -113t-105.5 -180t-37.5 -239t38 -240.5t107 -183.5t165.5 -117t214.5 -41q90 0 169 21t143 52v340h-402v181h590v-631v0zM935 1724q0 -27 -9.5 -52t-26.5 -44t-42 -30t-55 -11q-29 0 -53 11t-41 30t-26.5 44t-9.5 52q0 28 9.5 53.5t26.5 45t41 30.5
t53 11q30 0 55 -11t42 -30.5t26.5 -45t9.5 -53.5z" />
    <glyph glyph-name="gdotaccent" unicode="&#x121;" horiz-adv-x="1091" 
d="M291 686q0 -53 17 -96t49 -73.5t77.5 -47.5t102.5 -17q51 0 92.5 17.5t71 50t45 77.5t15.5 100q0 52 -15 95t-45 74.5t-75.5 49t-105.5 17.5q-51 0 -93.5 -18t-72.5 -50.5t-46.5 -78t-16.5 -100.5zM383 -50q-40 -11 -73 -28t-57 -39t-37.5 -48t-13.5 -55q0 -42 24 -77.5
t67.5 -62t104.5 -41t136 -14.5q74 0 138.5 15.5t112 43t75 67t27.5 87.5q0 43 -19.5 70.5t-58.5 43.5t-98 22t-138 6q-50 0 -102.5 3t-87.5 7zM241 -16q-68 29 -103 75t-35 101q0 33 12.5 64t35 57.5t55 48t71.5 35.5q-83 48 -128.5 131t-45.5 192q0 77 28.5 148.5t83 126.5
t134 88t181.5 33q85 0 152.5 -18t117.5 -41l271 25l7 -186l-202 37q15 -15 28 -39.5t22.5 -53.5t15 -61t5.5 -61q0 -79 -31 -149.5t-86.5 -123t-133 -83t-169.5 -30.5q-20 0 -36.5 1.5t-33 4.5t-35 8t-41.5 12q-17 -6 -35 -16.5t-33.5 -25t-25.5 -32t-10 -36.5
q0 -23 9.5 -41.5t36 -31.5t73 -19.5t120.5 -6.5h96q235 0 347 -71.5t112 -210.5q0 -87 -44 -161t-120.5 -128t-180 -84.5t-222.5 -30.5q-104 0 -193 21.5t-154.5 62t-103 97t-37.5 127.5q0 45 15 84.5t43.5 72t70.5 55t96 33.5zM672 1341q0 -27 -9.5 -52t-26.5 -44t-42 -30
t-55 -11q-29 0 -53 11t-41 30t-26.5 44t-9.5 52q0 28 9.5 53.5t26.5 45t41 30.5t53 11q30 0 55 -11t42 -30.5t26.5 -45t9.5 -53.5z" />
    <glyph glyph-name="Gcommaaccent" unicode="&#x122;" horiz-adv-x="1467" 
d="M1328 103q-56 -35 -120.5 -60.5t-130.5 -42.5t-131 -25.5t-123 -8.5q-157 0 -289 52.5t-227 150t-148.5 235.5t-53.5 309t53.5 310t149 238t227.5 152.5t288 53.5q63 0 128.5 -8.5t128 -24.5t119 -39t101.5 -51l-64 -179q-43 27 -92.5 50.5t-102 41t-108 27t-110.5 9.5
q-117 0 -213 -39t-164 -113t-105.5 -180t-37.5 -239t38 -240.5t107 -183.5t165.5 -117t214.5 -41q90 0 169 21t143 52v340h-402v181h590v-631v0zM686 -229q2 19 11.5 39t26 36.5t39.5 26.5t53 10q34 0 64 -13t52 -36t34.5 -54.5t12.5 -68.5q0 -53 -18.5 -99t-51.5 -85.5
t-78.5 -74.5t-99.5 -66l-68 59q50 33 79.5 61t45 52t20 45t4.5 39q0 21 -5 37.5t-19 31.5t-38.5 29t-63.5 31z" />
    <glyph glyph-name="gcommaaccent" unicode="&#x123;" horiz-adv-x="1091" 
d="M291 686q0 -53 17 -96t49 -73.5t77.5 -47.5t102.5 -17q51 0 92.5 17.5t71 50t45 77.5t15.5 100q0 52 -15 95t-45 74.5t-75.5 49t-105.5 17.5q-51 0 -93.5 -18t-72.5 -50.5t-46.5 -78t-16.5 -100.5zM383 -50q-40 -11 -73 -28t-57 -39t-37.5 -48t-13.5 -55q0 -42 24 -77.5
t67.5 -62t104.5 -41t136 -14.5q74 0 138.5 15.5t112 43t75 67t27.5 87.5q0 43 -19.5 70.5t-58.5 43.5t-98 22t-138 6q-50 0 -102.5 3t-87.5 7zM241 -16q-68 29 -103 75t-35 101q0 33 12.5 64t35 57.5t55 48t71.5 35.5q-83 48 -128.5 131t-45.5 192q0 77 28.5 148.5t83 126.5
t134 88t181.5 33q85 0 152.5 -18t117.5 -41l271 25l7 -186l-202 37q15 -15 28 -39.5t22.5 -53.5t15 -61t5.5 -61q0 -79 -31 -149.5t-86.5 -123t-133 -83t-169.5 -30.5q-20 0 -36.5 1.5t-33 4.5t-35 8t-41.5 12q-17 -6 -35 -16.5t-33.5 -25t-25.5 -32t-10 -36.5
q0 -23 9.5 -41.5t36 -31.5t73 -19.5t120.5 -6.5h96q235 0 347 -71.5t112 -210.5q0 -87 -44 -161t-120.5 -128t-180 -84.5t-222.5 -30.5q-104 0 -193 21.5t-154.5 62t-103 97t-37.5 127.5q0 45 15 84.5t43.5 72t70.5 55t96 33.5zM671.019 1301.99
q-1.99902 -18.999 -11.499 -38.998q-9.49902 -19.999 -25.998 -36.498t-39.498 -26.498q-22.998 -9.99902 -52.9961 -9.99902q-33.998 0 -63.9961 12.999q-29.999 12.999 -51.9971 35.998q-21.999 22.998 -34.498 54.4961t-12.499 68.4961q0 52.9971 18.499 98.9941
q18.498 45.9971 51.4961 85.4941q32.998 39.498 78.4951 74.4961q45.498 34.998 99.4941 65.9961l67.9961 -58.9971q-49.9971 -32.998 -79.4951 -60.9961t-44.9971 -51.9971q-15.499 -23.998 -19.999 -44.9971t-4.5 -38.9971q0 -20.999 5 -37.498t18.999 -31.498
t38.4971 -28.998q24.499 -13.999 63.4961 -30.998z" />
    <glyph glyph-name="Hcircumflex" unicode="&#x124;" horiz-adv-x="1536" 
d="M1162 0v633h-786v-633h-195v1433h195v-624h786v624h193v-1433h-193zM1002 1575l-225 291h-2l-227 -291h-138l264 429h201l264 -429h-137z" />
    <glyph glyph-name="hcircumflex" unicode="&#x125;" horiz-adv-x="1185" 
d="M844 0v660q0 68 -13 114.5t-39 75t-64.5 41t-90.5 12.5q-45 0 -87.5 -10t-79 -26t-67 -36.5t-52.5 -41.5v-789h-188v1545l188 30v-644q72 72 162.5 112.5t190.5 40.5q76 0 136.5 -24.5t103 -71t65.5 -114t23 -152.5v-722h-188zM496 1575l-225 291h-2l-227 -291h-138
l264 429h201l264 -429h-137z" />
    <glyph glyph-name="Hbar" unicode="&#x126;" horiz-adv-x="1536" 
d="M1162 0v633h-786v-633h-195v1027h-183l9 122h174v284h195v-284h786v284h193v-284h161l11 -122h-172v-1027h-193zM1162 809v218h-786v-218h786z" />
    <glyph glyph-name="hbar" unicode="&#x127;" horiz-adv-x="1185" 
d="M844 0v660q0 68 -13 114.5t-39 75t-64.5 41t-90.5 12.5q-45 0 -87.5 -10t-79 -26t-67 -36.5t-52.5 -41.5v-789h-188v1234h-156l9 121h147v190l188 30v-220h238l12 -121h-250v-303q72 72 162.5 112.5t190.5 40.5q76 0 136.5 -24.5t103 -71t65.5 -114t23 -152.5v-722h-188z
" />
    <glyph glyph-name="Imacron" unicode="&#x12a;" horiz-adv-x="566" 
d="M186 0v1433h192v-1433h-192zM-28 1617l9 121h610l12 -121h-631z" />
    <glyph glyph-name="imacron" unicode="&#x12b;" horiz-adv-x="514" 
d="M170 0v1034l188 30v-1064h-188zM-53 1234l9 121h610l12 -121h-631z" />
    <glyph glyph-name="Ibreve" unicode="&#x12c;" horiz-adv-x="566" 
d="M186 0v1433h192v-1433h-192zM655 2002q-12 -91 -39.5 -169.5t-72.5 -136t-108 -90.5t-146 -33q-84 0 -147 33t-108 90.5t-72.5 136t-39.5 169.5h153q10 -57 28 -108t44 -89t61 -60.5t81 -22.5q45 0 80.5 22.5t62 60.5t44 89t26.5 108h153v0z" />
    <glyph glyph-name="ibreve" unicode="&#x12d;" horiz-adv-x="514" 
d="M170 0v1034l188 30v-1064h-188zM630 1619q-12 -91 -39.5 -169.5t-72.5 -136t-108 -90.5t-146 -33q-84 0 -147 33t-108 90.5t-72.5 136t-39.5 169.5h153q10 -57 28 -108t44 -89t61 -60.5t81 -22.5q45 0 80.5 22.5t62 60.5t44 89t26.5 108h153v0z" />
    <glyph glyph-name="Iogonek" unicode="&#x12e;" horiz-adv-x="566" 
d="M296 -498q-53 0 -98 15.5t-77 44t-50 69.5t-18 92q0 45 14 85t38 75t56.5 64.5t70.5 52.5h-46v1433h192v-1433q-66 -52 -101.5 -105t-35.5 -113q0 -52 26 -82t77 -30q31 0 62.5 10t54.5 27l41 -143q-36 -26 -86.5 -44t-119.5 -18z" />
    <glyph glyph-name="iogonek" unicode="&#x12f;" horiz-adv-x="514" 
d="M268 -498q-53 0 -98 15.5t-77 44t-50 69.5t-18 92q0 45 14 85t38 75.5t57 64.5t72 52h-43v1055l188 29v-1084q-66 -52 -102 -105t-36 -113q0 -52 26.5 -82t76.5 -30q32 0 63.5 10t53.5 27l42 -143q-37 -26 -87.5 -44t-119.5 -18zM381 1417q0 -27 -7.5 -51t-22.5 -43
t-38.5 -30t-55.5 -11t-55.5 11t-38.5 30t-22.5 43t-7.5 51t7.5 51t22.5 43t38.5 30t55.5 11t55.5 -11t38.5 -30t22.5 -43t7.5 -51z" />
    <glyph glyph-name="Idotaccent" unicode="&#x130;" horiz-adv-x="566" 
d="M186 0v1433h192v-1433h-192zM419 1724q0 -27 -9.5 -52t-26.5 -44t-42 -30t-55 -11q-29 0 -53 11t-41 30t-26.5 44t-9.5 52q0 28 9.5 53.5t26.5 45t41 30.5t53 11q30 0 55 -11t42 -30.5t26.5 -45t9.5 -53.5z" />
    <glyph glyph-name="dotlessi" unicode="&#x131;" horiz-adv-x="514" 
d="M170 0v1034l188 30v-1064h-188z" />
    <glyph glyph-name="Jcircumflex" unicode="&#x134;" horiz-adv-x="958" 
d="M780 436q0 -105 -25 -191.5t-78 -148.5t-134.5 -96t-193.5 -34q-47 0 -91.5 7t-85 19.5t-76.5 28.5t-64 34l30 188q66 -45 135.5 -73t148.5 -28q125 0 183 75.5t58 227.5v988h193v-997v0zM904 1575l-225 291h-2l-227 -291h-138l264 429h201l264 -429h-137z" />
    <glyph glyph-name="jcircumflex" unicode="&#x135;" horiz-adv-x="507" 
d="M-21 -438q49 23 84 53.5t57 75t32.5 106t10.5 146.5v1112l188 29v-1128q0 -113 -13.5 -195.5t-42.5 -144.5t-76 -106.5t-114 -80.5zM487 1192l-225 291h-2l-227 -291h-138l264 429h201l264 -429h-137z" />
    <glyph glyph-name="Kcommaaccent" unicode="&#x136;" horiz-adv-x="1256" 
d="M378 750l608 683h245l-662 -708l669 -725h-250l-610 681h-2v-681h-195v1433h195v-683h2zM530 -229q2 19 11.5 39t26 36.5t39.5 26.5t53 10q34 0 64 -13t52 -36t34.5 -54.5t12.5 -68.5q0 -53 -18.5 -99t-51.5 -85.5t-78.5 -74.5t-99.5 -66l-68 59q50 33 79.5 61t45 52
t20 45t4.5 39q0 21 -5 37.5t-19 31.5t-38.5 29t-63.5 31z" />
    <glyph glyph-name="kcommaaccent" unicode="&#x137;" horiz-adv-x="1046" 
d="M351 518v-518h-188v1545l188 30v-1006h4l434 481h238l-481 -497l483 -553h-240l-434 518h-4zM404 -229q2 19 11.5 39t26 36.5t39.5 26.5t53 10q34 0 64 -13t52 -36t34.5 -54.5t12.5 -68.5q0 -53 -18.5 -99t-51.5 -85.5t-78.5 -74.5t-99.5 -66l-68 59q50 33 79.5 61t45 52
t20 45t4.5 39q0 21 -5 37.5t-19 31.5t-38.5 29t-63.5 31z" />
    <glyph glyph-name="Lacute" unicode="&#x139;" horiz-adv-x="1133" 
d="M181 0v1433h195v-1250h692v-183h-887zM317 1575h-138l243 415h229z" />
    <glyph glyph-name="lacute" unicode="&#x13a;" horiz-adv-x="514" 
d="M163 0v1545l188 30v-1575h-188zM289 1646h-138l243 415h229z" />
    <glyph glyph-name="Lcommaaccent" unicode="&#x13b;" horiz-adv-x="1133" 
d="M181 0v1433h195v-1250h692v-183h-887zM450 -229q2 19 11.5 39t26 36.5t39.5 26.5t53 10q34 0 64 -13t52 -36t34.5 -54.5t12.5 -68.5q0 -53 -18.5 -99t-51.5 -85.5t-78.5 -74.5t-99.5 -66l-68 59q50 33 79.5 61t45 52t20 45t4.5 39q0 21 -5 37.5t-19 31.5t-38.5 29
t-63.5 31z" />
    <glyph glyph-name="lcommaaccent" unicode="&#x13c;" horiz-adv-x="514" 
d="M163 0v1545l188 30v-1575h-188zM115 -229q2 19 11.5 39t26 36.5t39.5 26.5t53 10q34 0 64 -13t52 -36t34.5 -54.5t12.5 -68.5q0 -53 -18.5 -99t-51.5 -85.5t-78.5 -74.5t-99.5 -66l-68 59q50 33 79.5 61t45 52t20 45t4.5 39q0 21 -5 37.5t-19 31.5t-38.5 29t-63.5 31z
" />
    <glyph glyph-name="Lcaron" unicode="&#x13d;" horiz-adv-x="1385" 
d="M181 0v1433h195v-1250h692v-183h-887zM1084 1328q3 27 14.5 51.5t31 43t47 29.5t63.5 11q35 0 70 -15.5t62.5 -43t45 -66t17.5 -83.5q0 -72 -29 -135t-77 -118.5t-109 -103.5t-125 -90l-80 78q119 86 176.5 158t57.5 133q0 21 -8.5 39.5t-27.5 36t-51 36t-78 39.5z" />
    <glyph glyph-name="lcaron" unicode="&#x13e;" horiz-adv-x="1018" 
d="M163 0v1545l188 30v-1575h-188zM608 1460q3 27 14.5 51.5t31 43t47 29.5t63.5 11q35 0 70 -15.5t62.5 -43t45 -66t17.5 -83.5q0 -72 -29 -135t-77 -118.5t-109 -103.5t-125 -90l-80 78q119 86 176.5 158t57.5 133q0 21 -8.5 39.5t-27.5 36t-51 36t-78 39.5z" />
    <glyph glyph-name="Ldot" unicode="&#x13f;" horiz-adv-x="1277" 
d="M181 0v1433h195v-1250h692v-183h-887zM1405 718q0 -29 -10.5 -56t-29.5 -47.5t-45.5 -33t-58.5 -12.5q-33 0 -60 12.5t-47 33t-31 47.5t-11 56t11 55.5t31 46t47 31t60 11.5q32 0 58.5 -11.5t45.5 -31t29.5 -46t10.5 -55.5z" />
    <glyph glyph-name="ldotaccent" unicode="&#x140;" horiz-adv-x="910" 
d="M163 0v1545l188 30v-1575h-188zM853 718q0 -29 -10.5 -56t-29.5 -47.5t-45.5 -33t-58.5 -12.5q-33 0 -60 12.5t-47 33t-31 47.5t-11 56t11 55.5t31 46t47 31t60 11.5q32 0 58.5 -11.5t45.5 -31t29.5 -46t10.5 -55.5z" />
    <glyph glyph-name="Lslash" unicode="&#x141;" horiz-adv-x="1172" 
d="M426 188h693v-188h-885v562l-193 -51v168l193 52v702h192v-651l358 96v-167l-358 -97v-426z" />
    <glyph glyph-name="lslash" unicode="&#x142;" horiz-adv-x="598" 
d="M404 0h-188v559l-193 -50v174l96 26q18 5 35.5 9.5t31 8t22 5.5l8.5 2v811l188 30v-791l8 2.5t21.5 6.5t31 8.5t35.5 9.5l96 26v-174l-192 -53v-610z" />
    <glyph glyph-name="Nacute" unicode="&#x143;" horiz-adv-x="1532" 
d="M1160 1433h190v-1447h-210l-769 1170v-1156h-190v1433h216l763 -1156v1156zM757 1575h-138l243 415h229z" />
    <glyph glyph-name="nacute" unicode="&#x144;" horiz-adv-x="1185" 
d="M844 0v660q0 68 -13 114.5t-40 75t-68 41t-97 12.5q-41 0 -81 -10t-75.5 -26t-66 -36.5t-52.5 -41.5v-789h-188v1055l188 29v-158q72 73 161 115.5t180 42.5q80 0 143.5 -24.5t107 -71t66.5 -114t23 -152.5v-722h-188zM558 1192h-138l243 415h229z" />
    <glyph glyph-name="Ncommaaccent" unicode="&#x145;" horiz-adv-x="1532" 
d="M1160 1433h190v-1447h-210l-769 1170v-1156h-190v1433h216l763 -1156v1156zM624 -229q2 19 11.5 39t26 36.5t39.5 26.5t53 10q34 0 64 -13t52 -36t34.5 -54.5t12.5 -68.5q0 -53 -18.5 -99t-51.5 -85.5t-78.5 -74.5t-99.5 -66l-68 59q50 33 79.5 61t45 52t20 45t4.5 39
q0 21 -5 37.5t-19 31.5t-38.5 29t-63.5 31z" />
    <glyph glyph-name="ncommaaccent" unicode="&#x146;" horiz-adv-x="1185" 
d="M844 0v660q0 68 -13 114.5t-40 75t-68 41t-97 12.5q-41 0 -81 -10t-75.5 -26t-66 -36.5t-52.5 -41.5v-789h-188v1055l188 29v-158q72 73 161 115.5t180 42.5q80 0 143.5 -24.5t107 -71t66.5 -114t23 -152.5v-722h-188zM457 -229q2 19 11.5 39t26 36.5t39.5 26.5t53 10
q34 0 64 -13t52 -36t34.5 -54.5t12.5 -68.5q0 -53 -18.5 -99t-51.5 -85.5t-78.5 -74.5t-99.5 -66l-68 59q50 33 79.5 61t45 52t20 45t4.5 39q0 21 -5 37.5t-19 31.5t-38.5 29t-63.5 31z" />
    <glyph glyph-name="Ncaron" unicode="&#x147;" horiz-adv-x="1532" 
d="M1160 1433h190v-1447h-210l-769 1170v-1156h-190v1433h216l763 -1156v1156zM873 1575h-201l-264 429h138l224 -291h3l227 291h137z" />
    <glyph glyph-name="ncaron" unicode="&#x148;" horiz-adv-x="1185" 
d="M844 0v660q0 68 -13 114.5t-40 75t-68 41t-97 12.5q-41 0 -81 -10t-75.5 -26t-66 -36.5t-52.5 -41.5v-789h-188v1055l188 29v-158q72 73 161 115.5t180 42.5q80 0 143.5 -24.5t107 -71t66.5 -114t23 -152.5v-722h-188zM685 1192h-201l-264 429h138l224 -291h3l227 291
h137z" />
    <glyph glyph-name="Omacron" unicode="&#x14c;" horiz-adv-x="1651" 
d="M1545 722q0 -161 -53 -299t-148.5 -239.5t-228 -159.5t-290.5 -58q-157 0 -289 53t-228 150.5t-149.5 235.5t-53.5 308q0 107 24 204.5t69 181.5t109 152t144 116t174.5 74t199.5 26q157 0 289.5 -52.5t228 -149.5t149 -235t53.5 -308zM1350 713q0 132 -38.5 239.5
t-108.5 183t-167 116.5t-215 41q-114 0 -209.5 -41t-164 -115.5t-106.5 -180t-38 -234.5q0 -132 38 -239.5t107.5 -183.5t166.5 -117.5t215 -41.5q114 0 209.5 41t164.5 116.5t107.5 181t38.5 234.5zM497 1617l9 121h610l12 -121h-631z" />
    <glyph glyph-name="omacron" unicode="&#x14d;" horiz-adv-x="1211" 
d="M1117 525q0 -126 -39 -229.5t-108 -176.5t-163.5 -113t-205.5 -40q-112 0 -205 39.5t-160 112.5t-104.5 176.5t-37.5 230.5q0 126 38.5 230t107.5 177.5t164 114t208 40.5t206 -40t159.5 -113.5t103 -177.5t36.5 -231zM931 523q0 84 -22.5 156t-64.5 125t-103 83t-138 30
q-78 0 -138.5 -29t-101.5 -81t-62 -123.5t-21 -156.5q0 -84 22 -156t64 -124.5t103 -82t139 -29.5t138 28.5t101.5 80t62.5 123t21 156.5zM282 1234l9 121h610l12 -121h-631z" />
    <glyph glyph-name="Obreve" unicode="&#x14e;" horiz-adv-x="1651" 
d="M1545 722q0 -161 -53 -299t-148.5 -239.5t-228 -159.5t-290.5 -58q-157 0 -289 53t-228 150.5t-149.5 235.5t-53.5 308q0 107 24 204.5t69 181.5t109 152t144 116t174.5 74t199.5 26q157 0 289.5 -52.5t228 -149.5t149 -235t53.5 -308zM1350 713q0 132 -38.5 239.5
t-108.5 183t-167 116.5t-215 41q-114 0 -209.5 -41t-164 -115.5t-106.5 -180t-38 -234.5q0 -132 38 -239.5t107.5 -183.5t166.5 -117.5t215 -41.5q114 0 209.5 41t164.5 116.5t107.5 181t38.5 234.5zM1171 2002q-12 -91 -39.5 -169.5t-72.5 -136t-108 -90.5t-146 -33
q-84 0 -147 33t-108 90.5t-72.5 136t-39.5 169.5h153q10 -57 28 -108t44 -89t61 -60.5t81 -22.5q45 0 80.5 22.5t62 60.5t44 89t26.5 108h153v0z" />
    <glyph glyph-name="obreve" unicode="&#x14f;" horiz-adv-x="1211" 
d="M1117 525q0 -126 -39 -229.5t-108 -176.5t-163.5 -113t-205.5 -40q-112 0 -205 39.5t-160 112.5t-104.5 176.5t-37.5 230.5q0 126 38.5 230t107.5 177.5t164 114t208 40.5t206 -40t159.5 -113.5t103 -177.5t36.5 -231zM931 523q0 84 -22.5 156t-64.5 125t-103 83t-138 30
q-78 0 -138.5 -29t-101.5 -81t-62 -123.5t-21 -156.5q0 -84 22 -156t64 -124.5t103 -82t139 -29.5t138 28.5t101.5 80t62.5 123t21 156.5zM951 1619q-12 -91 -39.5 -169.5t-72.5 -136t-108 -90.5t-146 -33q-84 0 -147 33t-108 90.5t-72.5 136t-39.5 169.5h153
q10 -57 28 -108t44 -89t61 -60.5t81 -22.5q45 0 80.5 22.5t62 60.5t44 89t26.5 108h153v0z" />
    <glyph glyph-name="Ohungarumlaut" unicode="&#x150;" horiz-adv-x="1651" 
d="M1545 722q0 -161 -53 -299t-148.5 -239.5t-228 -159.5t-290.5 -58q-157 0 -289 53t-228 150.5t-149.5 235.5t-53.5 308q0 107 24 204.5t69 181.5t109 152t144 116t174.5 74t199.5 26q157 0 289.5 -52.5t228 -149.5t149 -235t53.5 -308zM1350 713q0 132 -38.5 239.5
t-108.5 183t-167 116.5t-215 41q-114 0 -209.5 -41t-164 -115.5t-106.5 -180t-38 -234.5q0 -132 38 -239.5t107.5 -183.5t166.5 -117.5t215 -41.5q114 0 209.5 41t164.5 116.5t107.5 181t38.5 234.5zM988 1575h-163l307 406h193zM614 1575h-160l254 406h191z" />
    <glyph glyph-name="ohungarumlaut" unicode="&#x151;" horiz-adv-x="1211" 
d="M1117 525q0 -126 -39 -229.5t-108 -176.5t-163.5 -113t-205.5 -40q-112 0 -205 39.5t-160 112.5t-104.5 176.5t-37.5 230.5q0 126 38.5 230t107.5 177.5t164 114t208 40.5t206 -40t159.5 -113.5t103 -177.5t36.5 -231zM931 523q0 84 -22.5 156t-64.5 125t-103 83t-138 30
q-78 0 -138.5 -29t-101.5 -81t-62 -123.5t-21 -156.5q0 -84 22 -156t64 -124.5t103 -82t139 -29.5t138 28.5t101.5 80t62.5 123t21 156.5zM780 1192h-163l307 406h193zM406 1192h-160l254 406h191z" />
    <glyph glyph-name="OE" unicode="&#x152;" horiz-adv-x="2114" 
d="M2015 1252h-713v-443h594v-181h-594v-447h713v-181h-1144q-178 0 -318.5 50.5t-238.5 143t-150 222.5t-52 290q0 166 50.5 300.5t148.5 229t241 146t328 51.5h1135v-181zM307 720q0 -132 38.5 -233t112 -169t180 -102.5t242.5 -34.5h227v1071h-236q-128 0 -232 -34
t-178 -100.5t-114 -166t-40 -231.5z" />
    <glyph glyph-name="oe" unicode="&#x153;" horiz-adv-x="1949" 
d="M1681 644v16q0 58 -14 106t-43.5 82t-74.5 52.5t-107 18.5q-67 0 -120 -24.5t-91 -64t-60.5 -89.5t-28.5 -101zM280 527q0 -84 22 -156t64 -124.5t103 -82t139 -29.5t138 28.5t101.5 80t62.5 123t21 156.5q0 84 -22.5 156t-64.5 125t-103 83t-138 30q-78 0 -138.5 -29
t-101.5 -81t-62 -123.5t-21 -156.5zM1025 202q-66 -112 -175 -174t-249 -62q-112 0 -205 39.5t-160 112.5t-104.5 176.5t-37.5 230.5q0 126 38.5 230t107.5 177.5t164 114t208 40.5q143 0 250 -63.5t170 -177.5q34 56 80 100t100.5 75t117.5 47t131 16q95 0 169.5 -29
t126 -82.5t78.5 -129t27 -169.5q0 -43 -6 -87.5t-17 -79.5l-31 -0.5t-80.5 -1t-113 -1t-129.5 -0.5l-352 -2v-9q3 -77 29 -142t71 -112t107.5 -73t138.5 -26q83 0 166.5 22t147.5 65l34 -174q-71 -44 -162 -65.5t-191 -21.5q-150 0 -265 62.5t-184 173.5z" />
    <glyph glyph-name="Racute" unicode="&#x154;" horiz-adv-x="1250" 
d="M376 0h-195v1433h429q130 0 228.5 -30t165 -84.5t100 -132t33.5 -173.5q0 -81 -23 -146.5t-65 -116.5t-101.5 -88t-133.5 -61l387 -601h-231l-349 569l-245 -16v-553zM612 731q70 3 130.5 21t105 52t69.5 84t25 116q0 64 -25 111t-71 78t-111.5 46t-147.5 15h-211v-529z
M551 1575h-138l243 415h229z" />
    <glyph glyph-name="racute" unicode="&#x155;" horiz-adv-x="874" 
d="M351 0h-188v1055l188 29v-185q55 88 124 136.5t169 48.5q54 0 104.5 -13t92.5 -39l-48 -177q-43 26 -85 37t-82 11q-76 0 -146 -54t-129 -163v-686zM484 1192h-138l243 415h229z" />
    <glyph glyph-name="Rcommaaccent" unicode="&#x156;" horiz-adv-x="1250" 
d="M376 0h-195v1433h429q130 0 228.5 -30t165 -84.5t100 -132t33.5 -173.5q0 -81 -23 -146.5t-65 -116.5t-101.5 -88t-133.5 -61l387 -601h-231l-349 569l-245 -16v-553zM612 731q70 3 130.5 21t105 52t69.5 84t25 116q0 64 -25 111t-71 78t-111.5 46t-147.5 15h-211v-529z
M482 -229q2 19 11.5 39t26 36.5t39.5 26.5t53 10q34 0 64 -13t52 -36t34.5 -54.5t12.5 -68.5q0 -53 -18.5 -99t-51.5 -85.5t-78.5 -74.5t-99.5 -66l-68 59q50 33 79.5 61t45 52t20 45t4.5 39q0 21 -5 37.5t-19 31.5t-38.5 29t-63.5 31z" />
    <glyph glyph-name="rcommaaccent" unicode="&#x157;" horiz-adv-x="874" 
d="M351 0h-188v1055l188 29v-185q55 88 124 136.5t169 48.5q54 0 104.5 -13t92.5 -39l-48 -177q-43 26 -85 37t-82 11q-76 0 -146 -54t-129 -163v-686zM124 -229q2 19 11.5 39t26 36.5t39.5 26.5t53 10q34 0 64 -13t52 -36t34.5 -54.5t12.5 -68.5q0 -53 -18.5 -99
t-51.5 -85.5t-78.5 -74.5t-99.5 -66l-68 59q50 33 79.5 61t45 52t20 45t4.5 39q0 21 -5 37.5t-19 31.5t-38.5 29t-63.5 31z" />
    <glyph glyph-name="Rcaron" unicode="&#x158;" horiz-adv-x="1250" 
d="M376 0h-195v1433h429q130 0 228.5 -30t165 -84.5t100 -132t33.5 -173.5q0 -81 -23 -146.5t-65 -116.5t-101.5 -88t-133.5 -61l387 -601h-231l-349 569l-245 -16v-553zM612 731q70 3 130.5 21t105 52t69.5 84t25 116q0 64 -25 111t-71 78t-111.5 46t-147.5 15h-211v-529z
M699 1575h-201l-264 429h138l224 -291h3l227 291h137z" />
    <glyph glyph-name="rcaron" unicode="&#x159;" horiz-adv-x="874" 
d="M351 0h-188v1055l188 29v-185q55 88 124 136.5t169 48.5q54 0 104.5 -13t92.5 -39l-48 -177q-43 26 -85 37t-82 11q-76 0 -146 -54t-129 -163v-686zM552 1192h-201l-264 429h138l224 -291h3l227 291h137z" />
    <glyph glyph-name="Sacute" unicode="&#x15a;" horiz-adv-x="1167" 
d="M566 140q68 0 125 17.5t98.5 49.5t65 76t23.5 98q0 55 -21 94t-63.5 69t-107 53.5t-152.5 46.5q-77 21 -153.5 50t-137.5 76.5t-99.5 118.5t-38.5 175q0 90 35 164.5t98 127.5t151.5 82t195.5 29q125 0 236.5 -31t214.5 -95l-68 -169q-41 27 -88 49t-96 37.5t-99 24
t-98 8.5q-77 0 -132.5 -16.5t-90.5 -45.5t-51.5 -67.5t-16.5 -83.5q0 -54 22.5 -92.5t66.5 -67t109 -51.5t150 -46q78 -21 154 -52t135.5 -80.5t96 -121t36.5 -173.5q0 -93 -36.5 -171.5t-103 -135.5t-159.5 -89t-205 -32q-63 0 -126.5 9t-124.5 26t-119 42t-109 58l64 176
q45 -30 93 -55t99.5 -43.5t107.5 -28.5t119 -10zM542 1575h-138l243 415h229z" />
    <glyph glyph-name="sacute" unicode="&#x15b;" horiz-adv-x="919" 
d="M835 298q0 -75 -30 -136.5t-83 -105.5t-125.5 -68.5t-158.5 -24.5q-48 0 -98 7t-97.5 20t-91.5 31t-80 41l48 172q33 -23 72.5 -41t82 -31t85.5 -20t84 -7q45 0 83 10t65.5 29t43.5 47t16 63q0 40 -21.5 67.5t-56 47t-79 33.5t-90.5 27q-56 15 -111.5 38t-100 58.5
t-72.5 87t-28 123.5q0 73 29 132t80 100t119.5 63.5t147.5 22.5q91 0 179 -20.5t160 -56.5l-48 -172q-33 18 -71.5 32.5t-78.5 24.5t-78.5 15.5t-71.5 5.5q-85 0 -135.5 -33.5t-50.5 -97.5q0 -38 19.5 -64.5t53 -45.5t77.5 -33t93 -27q57 -15 114 -38t102.5 -59.5t74 -89
t28.5 -127.5zM464 1192h-138l243 415h229z" />
    <glyph glyph-name="Scircumflex" unicode="&#x15c;" horiz-adv-x="1167" 
d="M566 140q68 0 125 17.5t98.5 49.5t65 76t23.5 98q0 55 -21 94t-63.5 69t-107 53.5t-152.5 46.5q-77 21 -153.5 50t-137.5 76.5t-99.5 118.5t-38.5 175q0 90 35 164.5t98 127.5t151.5 82t195.5 29q125 0 236.5 -31t214.5 -95l-68 -169q-41 27 -88 49t-96 37.5t-99 24
t-98 8.5q-77 0 -132.5 -16.5t-90.5 -45.5t-51.5 -67.5t-16.5 -83.5q0 -54 22.5 -92.5t66.5 -67t109 -51.5t150 -46q78 -21 154 -52t135.5 -80.5t96 -121t36.5 -173.5q0 -93 -36.5 -171.5t-103 -135.5t-159.5 -89t-205 -32q-63 0 -126.5 9t-124.5 26t-119 42t-109 58l64 176
q45 -30 93 -55t99.5 -43.5t107.5 -28.5t119 -10zM812 1575l-225 291h-2l-227 -291h-138l264 429h201l264 -429h-137z" />
    <glyph glyph-name="scircumflex" unicode="&#x15d;" horiz-adv-x="919" 
d="M835 298q0 -75 -30 -136.5t-83 -105.5t-125.5 -68.5t-158.5 -24.5q-48 0 -98 7t-97.5 20t-91.5 31t-80 41l48 172q33 -23 72.5 -41t82 -31t85.5 -20t84 -7q45 0 83 10t65.5 29t43.5 47t16 63q0 40 -21.5 67.5t-56 47t-79 33.5t-90.5 27q-56 15 -111.5 38t-100 58.5
t-72.5 87t-28 123.5q0 73 29 132t80 100t119.5 63.5t147.5 22.5q91 0 179 -20.5t160 -56.5l-48 -172q-33 18 -71.5 32.5t-78.5 24.5t-78.5 15.5t-71.5 5.5q-85 0 -135.5 -33.5t-50.5 -97.5q0 -38 19.5 -64.5t53 -45.5t77.5 -33t93 -27q57 -15 114 -38t102.5 -59.5t74 -89
t28.5 -127.5zM711 1192l-225 291h-2l-227 -291h-138l264 429h201l264 -429h-137z" />
    <glyph glyph-name="Scedilla" unicode="&#x15e;" horiz-adv-x="1167" 
d="M525 -156q135 0 208.5 -50.5t73.5 -137.5q0 -48 -21 -89t-66.5 -73.5t-117 -55.5t-171.5 -36l-14 119q128 7 185.5 40t57.5 84q0 53 -66.5 76.5t-208.5 1.5l-18 96l149 149q-116 5 -228 39t-205 94l64 176q45 -30 93 -55t99.5 -43.5t107.5 -28.5t119 -10q68 0 125 17.5
t98.5 49.5t65 76t23.5 98q0 55 -21 94t-63.5 69t-107 53.5t-152.5 46.5q-77 21 -153.5 50t-137.5 76.5t-99.5 118.5t-38.5 175q0 90 35 164.5t98 127.5t151.5 82t195.5 29q125 0 236.5 -31t214.5 -95l-68 -169q-41 27 -88 49t-96 37.5t-99 24t-98 8.5q-77 0 -132.5 -16.5
t-90.5 -45.5t-51.5 -67.5t-16.5 -83.5q0 -54 22.5 -92.5t66.5 -67t109 -51.5t150 -46q78 -21 154 -52t135.5 -80.5t96 -121t36.5 -173.5q0 -83 -29.5 -154t-83 -126.5t-129 -92t-168.5 -49.5l-131 -128v0z" />
    <glyph glyph-name="scedilla" unicode="&#x15f;" horiz-adv-x="919" 
d="M397 -156q134 0 208 -50.5t74 -137.5q0 -48 -21 -89t-66.5 -73.5t-117 -55.5t-171.5 -36l-14 119q128 7 185.5 40t57.5 84q0 53 -66.5 76.5t-208.5 1.5l-19 96l149 147q-86 7 -169.5 31.5t-146.5 64.5l48 172q33 -23 72.5 -41t82 -31t85.5 -20t84 -7q45 0 83 10t65.5 29
t43.5 47t16 63q0 40 -21.5 67.5t-56 47t-79 33.5t-90.5 27q-56 15 -111.5 38t-100 58.5t-72.5 87t-28 123.5q0 73 29 132t80 100t119.5 63.5t147.5 22.5q91 0 179 -20.5t160 -56.5l-48 -172q-33 18 -71.5 32.5t-78.5 24.5t-78.5 15.5t-71.5 5.5q-85 0 -135.5 -33.5
t-50.5 -97.5q0 -38 19.5 -64.5t53 -45.5t77.5 -33t93 -27q57 -15 114 -38t102.5 -59.5t74 -89t28.5 -127.5q0 -65 -22.5 -120.5t-63.5 -97.5t-98 -70.5t-126 -39.5l-128 -126v0z" />
    <glyph glyph-name="Scaron" unicode="&#x160;" horiz-adv-x="1167" 
d="M566 140q68 0 125 17.5t98.5 49.5t65 76t23.5 98q0 55 -21 94t-63.5 69t-107 53.5t-152.5 46.5q-77 21 -153.5 50t-137.5 76.5t-99.5 118.5t-38.5 175q0 90 35 164.5t98 127.5t151.5 82t195.5 29q125 0 236.5 -31t214.5 -95l-68 -169q-41 27 -88 49t-96 37.5t-99 24
t-98 8.5q-77 0 -132.5 -16.5t-90.5 -45.5t-51.5 -67.5t-16.5 -83.5q0 -54 22.5 -92.5t66.5 -67t109 -51.5t150 -46q78 -21 154 -52t135.5 -80.5t96 -121t36.5 -173.5q0 -93 -36.5 -171.5t-103 -135.5t-159.5 -89t-205 -32q-63 0 -126.5 9t-124.5 26t-119 42t-109 58l64 176
q45 -30 93 -55t99.5 -43.5t107.5 -28.5t119 -10zM690 1575h-202l-263 429h137l225 -291h2l227 291h138z" />
    <glyph glyph-name="scaron" unicode="&#x161;" horiz-adv-x="919" 
d="M835 298q0 -75 -30 -136.5t-83 -105.5t-125.5 -68.5t-158.5 -24.5q-48 0 -98 7t-97.5 20t-91.5 31t-80 41l48 172q33 -23 72.5 -41t82 -31t85.5 -20t84 -7q45 0 83 10t65.5 29t43.5 47t16 63q0 40 -21.5 67.5t-56 47t-79 33.5t-90.5 27q-56 15 -111.5 38t-100 58.5
t-72.5 87t-28 123.5q0 73 29 132t80 100t119.5 63.5t147.5 22.5q91 0 179 -20.5t160 -56.5l-48 -172q-33 18 -71.5 32.5t-78.5 24.5t-78.5 15.5t-71.5 5.5q-85 0 -135.5 -33.5t-50.5 -97.5q0 -38 19.5 -64.5t53 -45.5t77.5 -33t93 -27q57 -15 114 -38t102.5 -59.5t74 -89
t28.5 -127.5zM566 1192h-201l-264 429h137l225 -291h2l227 291h138z" />
    <glyph glyph-name="Tcommaaccent" unicode="&#x162;" horiz-adv-x="1284" 
d="M738 1250v-1250h-192v1250h-502v183h1196v-183h-502zM500 -229q2 19 11.5 39t26 36.5t39.5 26.5t53 10q34 0 64 -13t52 -36t34.5 -54.5t12.5 -68.5q0 -53 -18.5 -99t-51.5 -85.5t-78.5 -74.5t-99.5 -66l-68 59q50 33 79.5 61t45 52t20 45t4.5 39q0 21 -5 37.5t-19 31.5
t-38.5 29t-63.5 31z" />
    <glyph glyph-name="tcommaaccent" unicode="&#x163;" horiz-adv-x="777" 
d="M715 11q-59 -22 -118 -33.5t-118 -11.5q-153 0 -231.5 77.5t-73.5 249.5l16 587l-174 12l7 119l174 53l5 227h181l-7 -241h328l-7 -170h-328l-16 -593q-3 -149 138 -149q48 0 95.5 11t94.5 28q1 0 6.5 -26t11.5 -57q7 -37 16 -83zM299 -229q2 19 11.5 39t26 36.5
t39.5 26.5t53 10q34 0 64 -13t52 -36t34.5 -54.5t12.5 -68.5q0 -53 -18.5 -99t-51.5 -85.5t-78.5 -74.5t-99.5 -66l-68 59q50 33 79.5 61t45 52t20 45t4.5 39q0 21 -5 37.5t-19 31.5t-38.5 29t-63.5 31z" />
    <glyph glyph-name="Tcaron" unicode="&#x164;" horiz-adv-x="1284" 
d="M738 1250v-1250h-192v1250h-502v183h1196v-183h-502zM749 1575h-201l-264 429h138l224 -291h3l227 291h137z" />
    <glyph glyph-name="tcaron" unicode="&#x165;" horiz-adv-x="869" 
d="M715 11q-59 -22 -118 -33.5t-118 -11.5q-153 0 -231.5 77.5t-73.5 249.5l16 587l-174 12l7 119l174 53l5 227h181l-7 -241h328l-7 -170h-328l-16 -593q-3 -149 138 -149q48 0 95.5 11t94.5 28q1 0 6.5 -26t11.5 -57q7 -37 16 -83zM527.199 1528.18
q2.39941 21.5996 11.5996 41.2002q9.19922 19.5996 24.7998 34.3994q15.5996 14.7998 37.5986 23.5996q22 8.7998 50.7998 8.7998q27.999 0 55.999 -12.4004q28 -12.3994 49.999 -34.3994q22 -21.999 36 -52.7988q13.999 -30.7998 13.999 -66.7988
q0 -57.5996 -23.1992 -107.999q-23.1992 -50.3984 -61.5986 -94.7979t-87.1992 -82.7988q-48.7988 -38.3994 -99.998 -71.999l-63.999 62.3984q95.1982 68.7998 141.197 126.398q46 57.5996 46 106.398q0 16.7998 -6.80078 31.5996q-6.7998 14.7998 -21.999 28.7998
q-15.2002 13.999 -40.7998 28.7988t-62.3984 31.5996z" />
    <glyph glyph-name="Umacron" unicode="&#x16a;" horiz-adv-x="1481" 
d="M1302 553q0 -136 -35.5 -245t-106 -185t-176 -116.5t-246.5 -40.5q-135 0 -239 40t-175.5 114t-108 178.5t-36.5 233.5v901h192v-871q0 -97 23.5 -173.5t70.5 -130t118 -81.5t167 -28q83 0 150 24.5t113.5 74.5t71.5 124.5t25 175.5v885h192v-880v0zM431 1617l9 121h610
l12 -121h-631z" />
    <glyph glyph-name="umacron" unicode="&#x16b;" horiz-adv-x="1185" 
d="M342 1050v-660q0 -68 13 -114.5t38.5 -75t64 -41t90.5 -12.5q45 0 87.5 10t79 26t67 36.5t53.5 41.5v789h188v-1055l-188 -29v153q-73 -72 -163.5 -112.5t-190.5 -40.5q-75 0 -135.5 24.5t-103 71t-65.5 114t-23 152.5v722h188zM273 1234l9 121h610l12 -121h-631z" />
    <glyph glyph-name="Ubreve" unicode="&#x16c;" horiz-adv-x="1481" 
d="M1302 553q0 -136 -35.5 -245t-106 -185t-176 -116.5t-246.5 -40.5q-135 0 -239 40t-175.5 114t-108 178.5t-36.5 233.5v901h192v-871q0 -97 23.5 -173.5t70.5 -130t118 -81.5t167 -28q83 0 150 24.5t113.5 74.5t71.5 124.5t25 175.5v885h192v-880v0zM1114 2002
q-12 -91 -39.5 -169.5t-72.5 -136t-108 -90.5t-146 -33q-84 0 -147 33t-108 90.5t-72.5 136t-39.5 169.5h153q10 -57 28 -108t44 -89t61 -60.5t81 -22.5q45 0 80.5 22.5t62 60.5t44 89t26.5 108h153v0z" />
    <glyph glyph-name="ubreve" unicode="&#x16d;" horiz-adv-x="1185" 
d="M342 1050v-660q0 -68 13 -114.5t38.5 -75t64 -41t90.5 -12.5q45 0 87.5 10t79 26t67 36.5t53.5 41.5v789h188v-1055l-188 -29v153q-73 -72 -163.5 -112.5t-190.5 -40.5q-75 0 -135.5 24.5t-103 71t-65.5 114t-23 152.5v722h188zM949 1619q-12 -91 -39.5 -169.5
t-72.5 -136t-108 -90.5t-146 -33q-84 0 -147 33t-108 90.5t-72.5 136t-39.5 169.5h153q10 -57 28 -108t44 -89t61 -60.5t81 -22.5q45 0 80.5 22.5t62 60.5t44 89t26.5 108h153v0z" />
    <glyph glyph-name="Uring" unicode="&#x16e;" horiz-adv-x="1481" 
d="M1302 553q0 -136 -35.5 -245t-106 -185t-176 -116.5t-246.5 -40.5q-135 0 -239 40t-175.5 114t-108 178.5t-36.5 233.5v901h192v-871q0 -97 23.5 -173.5t70.5 -130t118 -81.5t167 -28q83 0 150 24.5t113.5 74.5t71.5 124.5t25 175.5v885h192v-880v0zM1032 1784
q1 -52 -18.5 -97.5t-56.5 -79.5t-90 -53.5t-119 -19.5t-119 19.5t-90 53.5t-56.5 79.5t-19.5 97.5q0 51 19.5 97t56.5 80.5t90 54.5t119 20t118.5 -20t89 -54.5t56 -80.5t20.5 -97zM913 1786q0 31 -11.5 58.5t-32.5 48t-51.5 32.5t-69.5 12q-38 0 -68 -12t-51 -32.5
t-32.5 -48t-11.5 -58.5t11.5 -59t32.5 -49t51 -33.5t68 -12.5q39 0 69.5 12.5t51.5 33.5t32.5 49t11.5 59z" />
    <glyph glyph-name="uring" unicode="&#x16f;" horiz-adv-x="1185" 
d="M342 1050v-660q0 -68 13 -114.5t38.5 -75t64 -41t90.5 -12.5q45 0 87.5 10t79 26t67 36.5t53.5 41.5v789h188v-1055l-188 -29v153q-73 -72 -163.5 -112.5t-190.5 -40.5q-75 0 -135.5 24.5t-103 71t-65.5 114t-23 152.5v722h188zM876 1447q1 -52 -18.5 -97.5t-56.5 -79.5
t-90 -53.5t-119 -19.5t-119 19.5t-90 53.5t-56.5 79.5t-19.5 97.5q0 51 19.5 97t56.5 80.5t90 54.5t119 20t118.5 -20t89 -54.5t56 -80.5t20.5 -97zM757 1449q0 31 -11.5 58.5t-32.5 48t-51.5 32.5t-69.5 12q-38 0 -68 -12t-51 -32.5t-32.5 -48t-11.5 -58.5t11.5 -59
t32.5 -49t51 -33.5t68 -12.5q39 0 69.5 12.5t51.5 33.5t32.5 49t11.5 59z" />
    <glyph glyph-name="Uhungarumlaut" unicode="&#x170;" horiz-adv-x="1481" 
d="M1302 553q0 -136 -35.5 -245t-106 -185t-176 -116.5t-246.5 -40.5q-135 0 -239 40t-175.5 114t-108 178.5t-36.5 233.5v901h192v-871q0 -97 23.5 -173.5t70.5 -130t118 -81.5t167 -28q83 0 150 24.5t113.5 74.5t71.5 124.5t25 175.5v885h192v-880v0zM933 1575h-163
l307 406h193zM559 1575h-160l254 406h191z" />
    <glyph glyph-name="uhungarumlaut" unicode="&#x171;" horiz-adv-x="1185" 
d="M342 1050v-660q0 -68 13 -114.5t38.5 -75t64 -41t90.5 -12.5q45 0 87.5 10t79 26t67 36.5t53.5 41.5v789h188v-1055l-188 -29v153q-73 -72 -163.5 -112.5t-190.5 -40.5q-75 0 -135.5 24.5t-103 71t-65.5 114t-23 152.5v722h188zM768 1192h-163l307 406h193zM394 1192
h-160l254 406h191z" />
    <glyph glyph-name="Uogonek" unicode="&#x172;" horiz-adv-x="1481" 
d="M1302 553q0 -191 -65.5 -321.5t-195.5 -206.5q-88 -52 -135.5 -113t-47.5 -130q0 -52 26 -82t77 -30q31 0 62.5 10t54.5 27l41 -143q-36 -26 -86.5 -44t-119.5 -18q-54 0 -98.5 15.5t-77 44t-50.5 69.5t-18 92q0 75 38 137.5t98 107.5q-17 0 -33.5 -1t-33.5 -1
q-135 0 -239 40t-175.5 114t-108 178.5t-36.5 233.5v901h192v-871q0 -97 23.5 -173.5t70.5 -130t118 -81.5t167 -28q83 0 150 24.5t113.5 74.5t71.5 124.5t25 175.5v885h192v-880v0z" />
    <glyph glyph-name="uogonek" unicode="&#x173;" horiz-adv-x="1185" 
d="M342 1050v-660q0 -68 13 -114.5t38.5 -75t64 -41t90.5 -12.5q45 0 87.5 10t79 26t67 36.5t53.5 41.5v789h188v-1055q-49 -9 -99.5 -31.5t-91 -52.5t-66 -63.5t-25.5 -65.5q0 -52 26 -82t77 -30q31 0 62.5 10t54.5 27l41 -143q-36 -26 -86.5 -44t-119.5 -18
q-54 0 -98.5 15.5t-76.5 44t-50 69.5t-18 92q0 58 23.5 108.5t63 92t90.5 72.5t105 50v73q-73 -72 -163.5 -112.5t-190.5 -40.5q-75 0 -135.5 24.5t-103 71t-65.5 114t-23 152.5v722h188z" />
    <glyph glyph-name="Wcircumflex" unicode="&#x174;" horiz-adv-x="2059" 
d="M669 0h-190l-408 1433h204l310 -1167l337 1167h224l347 -1167l305 1167h190l-406 -1433h-195l-355 1192zM1264 1575l-225 291h-2l-227 -291h-138l264 429h201l264 -429h-137z" />
    <glyph glyph-name="wcircumflex" unicode="&#x175;" horiz-adv-x="1568" 
d="M355 -5l-323 1055h202l222 -779l243 775h172l269 -778l192 782h209l-317 -1055h-172l-268 785l-257 -785h-172zM1018 1192l-225 291h-2l-227 -291h-138l264 429h201l264 -429h-137z" />
    <glyph glyph-name="Ycircumflex" unicode="&#x176;" horiz-adv-x="1238" 
d="M718 569v-569h-195v571l-500 862h220l381 -669l376 669h215zM858 1575l-225 291h-2l-227 -291h-138l264 429h201l264 -429h-137z" />
    <glyph glyph-name="ycircumflex" unicode="&#x177;" horiz-adv-x="1011" 
d="M587 -11l-71 -188q-38 -100 -77.5 -166.5t-84 -106.5t-95.5 -57t-112 -17t-115 15.5t-108 39.5l55 175q42 -21 85 -36t83 -15q30 0 55 9.5t49 35t47.5 69.5t50.5 113l64 163l-408 1027h201l305 -816l296 816h200zM732 1192l-225 291h-2l-227 -291h-138l264 429h201
l264 -429h-137z" />
    <glyph glyph-name="Ydieresis" unicode="&#x178;" horiz-adv-x="1238" 
d="M718 569v-569h-195v571l-500 862h220l381 -669l376 669h215zM995 1729q0 -29 -10 -55.5t-28 -46.5t-43 -31.5t-56 -11.5t-56.5 11.5t-43.5 31.5t-28 46.5t-10 55.5q0 28 10 54t28 45.5t43.5 31t56.5 11.5t56 -11.5t43 -31t28 -45.5t10 -54zM527 1729q0 -29 -10 -55.5
t-28.5 -46.5t-44.5 -31.5t-57 -11.5q-30 0 -55 11.5t-43.5 31.5t-28.5 46.5t-10 55.5q0 28 10 54t28.5 45.5t43.5 31t55 11.5q31 0 57 -11.5t44.5 -31t28.5 -45.5t10 -54z" />
    <glyph glyph-name="Zacute" unicode="&#x179;" horiz-adv-x="1195" 
d="M53 0v147l811 1105h-798v181h1041v-151l-809 -1101h807v-181h-1052zM587 1575h-138l243 415h229z" />
    <glyph glyph-name="zacute" unicode="&#x17a;" horiz-adv-x="940" 
d="M48 0v160l610 718h-589v172h816v-156l-610 -722h610v-172h-837zM445 1192h-138l243 415h229z" />
    <glyph glyph-name="Zdotaccent" unicode="&#x17b;" horiz-adv-x="1195" 
d="M53 0v147l811 1105h-798v181h1041v-151l-809 -1101h807v-181h-1052zM713 1724q0 -27 -9.5 -52t-26.5 -44t-42 -30t-55 -11q-29 0 -53 11t-41 30t-26.5 44t-9.5 52q0 28 9.5 53.5t26.5 45t41 30.5t53 11q30 0 55 -11t42 -30.5t26.5 -45t9.5 -53.5z" />
    <glyph glyph-name="zdotaccent" unicode="&#x17c;" horiz-adv-x="940" 
d="M48 0v160l610 718h-589v172h816v-156l-610 -722h610v-172h-837zM596 1341q0 -27 -9.5 -52t-26.5 -44t-42 -30t-55 -11q-29 0 -53 11t-41 30t-26.5 44t-9.5 52q0 28 9.5 53.5t26.5 45t41 30.5t53 11q30 0 55 -11t42 -30.5t26.5 -45t9.5 -53.5z" />
    <glyph glyph-name="Zcaron" unicode="&#x17d;" horiz-adv-x="1195" 
d="M53 0v147l811 1105h-798v181h1041v-151l-809 -1101h807v-181h-1052zM674 1575h-202l-263 429h137l225 -291h2l227 291h138z" />
    <glyph glyph-name="zcaron" unicode="&#x17e;" horiz-adv-x="940" 
d="M48 0v160l610 718h-589v172h816v-156l-610 -722h610v-172h-837zM555 1192h-202l-264 429h138l225 -291h2l227 291h138z" />
    <glyph glyph-name="florin" unicode="&#x192;" horiz-adv-x="816" 
d="M282 757l-250 13l32 120l252 50l35 167q16 81 42 144t65 106.5t93.5 66.5t127.5 23q76 0 138.5 -24.5t104.5 -55.5q0 -1 -3.5 -8t-9.5 -18.5t-13.5 -25.5t-14.5 -29l-40 -78q-39 26 -79.5 44t-82.5 18q-31 0 -55 -9t-42.5 -30t-32.5 -56.5t-24 -87.5l-30 -158h273
l-25 -170h-280l-87 -454q-29 -153 -116.5 -237.5t-252.5 -108.5l-44 172q109 12 165 59.5t71 130.5z" />
    <glyph glyph-name="Aringacute" unicode="&#x1fa;" horiz-adv-x="1316" 
d="M660 1231l-247 -678h493zM516 1346q-64 32 -101 89.5t-37 128.5q0 51 19.5 96t56 79.5t89 54.5t117.5 20q66 0 118.5 -20t88.5 -54.5t55 -79.5t20 -96q2 -69 -34 -127.5t-103 -90.5l500 -1346h-200l-135 376h-621l-136 -376h-202zM828 1566q0 31 -11.5 58.5t-33.5 48
t-53 32.5t-70 12q-38 0 -68 -12t-51 -32.5t-32 -48t-11 -58.5t11 -59t32 -49t51 -33.5t68 -12.5q39 0 70 12.5t53 33.5t33.5 49t11.5 59zM580 1868h-138l243 415h229z" />
    <glyph glyph-name="aringacute" unicode="&#x1fb;" horiz-adv-x="1034" 
d="M466 1761h-138l243 415h229zM702 523q-117 -16 -198.5 -36.5t-132 -48.5t-73.5 -64.5t-23 -84.5q0 -35 13 -65t37 -52t58.5 -34t77.5 -12q72 0 134 32t107 80v285zM699 112q-60 -71 -132 -108.5t-157 -37.5q-74 0 -135.5 23t-105.5 63.5t-68.5 95t-24.5 118.5
q0 70 29 134.5t100 115.5t192 84t305 42v30q0 63 -13 108.5t-41.5 74t-73.5 42t-109 13.5q-40 0 -84 -9t-88.5 -24.5t-87 -37t-79.5 -46.5l-37 170q34 24 79.5 46t97 38.5t107 26.5t111.5 10q106 0 183.5 -23.5t127.5 -73t73 -126.5t22 -185v-440q0 -33 3 -53t14 -31t31 -15
t55 -4l-12 -158q-63 -5 -110 3t-79.5 26.5t-53 46t-30.5 61.5h-9zM775 1447q1 -52 -18.5 -97.5t-56.5 -79.5t-90 -53.5t-119 -19.5t-119 19.5t-90 53.5t-56.5 79.5t-19.5 97.5q0 51 19.5 97t56.5 80.5t90 54.5t119 20t118.5 -20t89 -54.5t56 -80.5t20.5 -97zM656 1449
q0 31 -11.5 58.5t-32.5 48t-51.5 32.5t-69.5 12q-38 0 -68 -12t-51 -32.5t-32.5 -48t-11.5 -58.5t11.5 -59t32.5 -49t51 -33.5t68 -12.5q39 0 69.5 12.5t51.5 33.5t32.5 49t11.5 59z" />
    <glyph glyph-name="AEacute" unicode="&#x1fc;" horiz-adv-x="1908" 
d="M903 555v699l-394 -699h394zM197 0h-215l818 1433h1011v-181h-715v-443h596v-181h-596v-447h715v-181h-908v374h-497zM1161 1575h-138l243 415h229z" />
    <glyph glyph-name="aeacute" unicode="&#x1fd;" horiz-adv-x="1729" 
d="M812 181q-28 -42 -67.5 -81t-90 -68.5t-111.5 -47.5t-133 -18q-74 0 -135.5 23t-105.5 63.5t-68.5 95t-24.5 118.5q0 70 30 135.5t104 116.5t199 84t316 40v23q0 70 -16.5 117.5t-49.5 75.5t-81.5 40t-112.5 12q-40 0 -84 -9t-88.5 -24.5t-87 -37t-79.5 -46.5l-37 170
q34 24 79.5 46t97 38.5t107 26.5t111.5 10q81 0 141.5 -12.5t104.5 -36t74 -56t49 -71.5q62 79 160 127.5t223 48.5q95 0 169.5 -29t126 -82.5t78.5 -129t27 -169.5q0 -43 -6 -87.5t-17 -79.5l-31 -0.5t-80.5 -1t-113 -1t-129.5 -0.5l-352 -2v-9q3 -77 29 -142t71 -112
t107.5 -73t138.5 -26q83 0 166.5 22t147.5 65l35 -174q-71 -44 -162 -65.5t-191 -21.5q-72 0 -136.5 15t-120 43t-101.5 68t-80 89zM1456 644v16q0 58 -14 106t-43.5 82t-74.5 52.5t-107 18.5q-67 0 -120 -24.5t-91 -64t-60.5 -89.5t-28.5 -101zM725 523
q-123 -11 -208.5 -31t-139.5 -49t-78 -67.5t-24 -86.5q0 -35 13 -65t38 -52t62 -34t84 -12q38 0 79 12t80 32.5t72 48t56 58.5q-6 17 -12 50t-11 69.5t-8 71t-3 55.5zM879 1192h-138l243 415h229z" />
    <glyph glyph-name="Oslashacute" unicode="&#x1fe;" horiz-adv-x="1651" 
d="M1552 722q0 -160 -53 -298t-148.5 -240t-228 -160t-290.5 -58q-88 0 -169 17.5t-152 48.5l-105 -186h-147l142 248q-67 48 -120.5 112t-91 142.5t-57.5 170t-20 194.5q0 161 53 299t148.5 239t228 158.5t290.5 57.5q88 0 168.5 -17.5t152.5 -48.5l108 186h147l-142 -248
q66 -48 119 -111.5t90 -141.5t57 -169.5t20 -194.5zM1064 1243q-104 50 -236 50q-114 0 -210 -41t-165 -115.5t-107.5 -180t-38.5 -234.5q0 -152 50 -269.5t138 -193.5zM601 190q104 -50 236 -50q114 0 209.5 41t164 116.5t106.5 181t38 234.5q0 151 -49 268t-137 193z
M881 1575h-138l243 415h229z" />
    <glyph glyph-name="oslashacute" unicode="&#x1ff;" horiz-adv-x="1211" 
d="M1123 525q0 -126 -39 -229.5t-108 -176.5t-163 -113t-205 -40q-59 0 -113.5 11.5t-102.5 31.5l-94 -163h-151q37 65 67 117q12 22 24 43t21.5 37.5t15 26.5l5.5 10q-85 73 -132 186t-47 259q0 126 38.5 230t107 177.5t163.5 114t209 40.5q60 0 113.5 -11.5t102.5 -32.5
l94 163h151l-135 -234q85 -74 131.5 -187.5t46.5 -259.5zM747 890q-29 14 -64 20.5t-73 6.5q-78 0 -138.5 -29t-101.5 -81t-62 -123.5t-21 -156.5q0 -184 84 -289zM938 523q0 90 -21.5 163.5t-63.5 125.5l-374 -652q61 -25 135 -25q78 0 138.5 28.5t102 80t62.5 123
t21 156.5zM546 1192h-138l243 415h229z" />
    <glyph glyph-name="Scommaaccent" unicode="&#x218;" horiz-adv-x="1167" 
d="M566 140q68 0 125 17.5t98.5 49.5t65 76t23.5 98q0 55 -21 94t-63.5 69t-107 53.5t-152.5 46.5q-77 21 -153.5 50t-137.5 76.5t-99.5 118.5t-38.5 175q0 90 35 164.5t98 127.5t151.5 82t195.5 29q125 0 236.5 -31t214.5 -95l-68 -169q-41 27 -88 49t-96 37.5t-99 24
t-98 8.5q-77 0 -132.5 -16.5t-90.5 -45.5t-51.5 -67.5t-16.5 -83.5q0 -54 22.5 -92.5t66.5 -67t109 -51.5t150 -46q78 -21 154 -52t135.5 -80.5t96 -121t36.5 -173.5q0 -93 -36.5 -171.5t-103 -135.5t-159.5 -89t-205 -32q-63 0 -126.5 9t-124.5 26t-119 42t-109 58l64 176
q45 -30 93 -55t99.5 -43.5t107.5 -28.5t119 -10zM443 -229q2 19 11.5 39t26 36.5t39.5 26.5t53 10q34 0 64 -13t52 -36t34.5 -54.5t12.5 -68.5q0 -53 -18.5 -99t-51.5 -85.5t-78.5 -74.5t-99.5 -66l-68 59q50 33 79.5 61t45 52t20 45t4.5 39q0 21 -5 37.5t-19 31.5t-38.5 29
t-63.5 31z" />
    <glyph glyph-name="scommaaccent" unicode="&#x219;" horiz-adv-x="919" 
d="M835 298q0 -75 -30 -136.5t-83 -105.5t-125.5 -68.5t-158.5 -24.5q-48 0 -98 7t-97.5 20t-91.5 31t-80 41l48 172q33 -23 72.5 -41t82 -31t85.5 -20t84 -7q45 0 83 10t65.5 29t43.5 47t16 63q0 40 -21.5 67.5t-56 47t-79 33.5t-90.5 27q-56 15 -111.5 38t-100 58.5
t-72.5 87t-28 123.5q0 73 29 132t80 100t119.5 63.5t147.5 22.5q91 0 179 -20.5t160 -56.5l-48 -172q-33 18 -71.5 32.5t-78.5 24.5t-78.5 15.5t-71.5 5.5q-85 0 -135.5 -33.5t-50.5 -97.5q0 -38 19.5 -64.5t53 -45.5t77.5 -33t93 -27q57 -15 114 -38t102.5 -59.5t74 -89
t28.5 -127.5zM294 -229q2 19 11.5 39t26 36.5t39.5 26.5t53 10q34 0 64 -13t52 -36t34.5 -54.5t12.5 -68.5q0 -53 -18.5 -99t-51.5 -85.5t-78.5 -74.5t-99.5 -66l-68 59q50 33 79.5 61t45 52t20 45t4.5 39q0 21 -5 37.5t-19 31.5t-38.5 29t-63.5 31z" />
    <glyph glyph-name="uni021A" unicode="&#x21a;" horiz-adv-x="1284" 
d="M738 1250v-1250h-192v1250h-502v183h1196v-183h-502zM500 -229q2 19 11.5 39t26 36.5t39.5 26.5t53 10q34 0 64 -13t52 -36t34.5 -54.5t12.5 -68.5q0 -53 -18.5 -99t-51.5 -85.5t-78.5 -74.5t-99.5 -66l-68 59q50 33 79.5 61t45 52t20 45t4.5 39q0 21 -5 37.5t-19 31.5
t-38.5 29t-63.5 31z" />
    <glyph glyph-name="uni021B" unicode="&#x21b;" horiz-adv-x="777" 
d="M715 11q-59 -22 -118 -33.5t-118 -11.5q-153 0 -231.5 77.5t-73.5 249.5l16 587l-174 12l7 119l174 53l5 227h181l-7 -241h328l-7 -170h-328l-16 -593q-3 -149 138 -149q48 0 95.5 11t94.5 28q1 0 6.5 -26t11.5 -57q7 -37 16 -83zM299 -229q2 19 11.5 39t26 36.5
t39.5 26.5t53 10q34 0 64 -13t52 -36t34.5 -54.5t12.5 -68.5q0 -53 -18.5 -99t-51.5 -85.5t-78.5 -74.5t-99.5 -66l-68 59q50 33 79.5 61t45 52t20 45t4.5 39q0 21 -5 37.5t-19 31.5t-38.5 29t-63.5 31z" />
    <glyph glyph-name="dotlessj" unicode="&#x237;" horiz-adv-x="507" 
d="M-21 -438q49 23 84 53.5t57 75t32.5 106t10.5 146.5v1112l188 29v-1128q0 -113 -13.5 -195.5t-42.5 -144.5t-76 -106.5t-114 -80.5z" />
    <glyph glyph-name="circumflex" unicode="&#x2c6;" horiz-adv-x="903" 
d="M686 1192l-225 291h-2l-227 -291h-138l264 429h201l264 -429h-137z" />
    <glyph glyph-name="caron" unicode="&#x2c7;" horiz-adv-x="903" 
d="M559 1192h-201l-264 429h138l224 -291h3l227 291h137z" />
    <glyph glyph-name="breve" unicode="&#x2d8;" horiz-adv-x="903" 
d="M825 1619q-12 -91 -39.5 -169.5t-72.5 -136t-108 -90.5t-146 -33q-84 0 -147 33t-108 90.5t-72.5 136t-39.5 169.5h153q10 -57 28 -108t44 -89t61 -60.5t81 -22.5q45 0 80.5 22.5t62 60.5t44 89t26.5 108h153v0z" />
    <glyph glyph-name="dotaccent" unicode="&#x2d9;" horiz-adv-x="903" 
d="M589 1341q0 -27 -9.5 -52t-26.5 -44t-42 -30t-55 -11q-29 0 -53 11t-41 30t-26.5 44t-9.5 52q0 28 9.5 53.5t26.5 45t41 30.5t53 11q30 0 55 -11t42 -30.5t26.5 -45t9.5 -53.5z" />
    <glyph glyph-name="ring" unicode="&#x2da;" horiz-adv-x="903" 
d="M743 1447q1 -52 -18.5 -97.5t-56.5 -79.5t-90 -53.5t-119 -19.5t-119 19.5t-90 53.5t-56.5 79.5t-19.5 97.5q0 51 19.5 97t56.5 80.5t90 54.5t119 20t118.5 -20t89 -54.5t56 -80.5t20.5 -97zM624 1449q0 31 -11.5 58.5t-32.5 48t-51.5 32.5t-69.5 12q-38 0 -68 -12
t-51 -32.5t-32.5 -48t-11.5 -58.5t11.5 -59t32.5 -49t51 -33.5t68 -12.5q39 0 69.5 12.5t51.5 33.5t32.5 49t11.5 59z" />
    <glyph glyph-name="ogonek" unicode="&#x2db;" horiz-adv-x="917" 
d="M514 -498q-54 0 -98.5 15.5t-76.5 44t-50 69.5t-18 92q0 62 26.5 115t69.5 95.5t98 73.5t113 48h98q-103 -66 -160 -130.5t-57 -142.5q0 -52 26 -82t77 -30q31 0 62.5 10t54.5 27l41 -143q-36 -26 -86.5 -44t-119.5 -18z" />
    <glyph glyph-name="tilde" unicode="&#x2dc;" horiz-adv-x="903" 
d="M851 1488q-16 -146 -67 -217.5t-156 -71.5q-53 0 -102.5 24.5t-94 54.5t-83.5 54.5t-71 24.5q-31 0 -53 -31.5t-34 -110.5h-126q8 74 24 128.5t43 90.5t65 54t91 18t102.5 -25t94 -55t83 -55t70.5 -25t53 31.5t32 110.5h129v0z" />
    <glyph glyph-name="hungarumlaut" unicode="&#x2dd;" horiz-adv-x="903" 
d="M697 1192h-163l307 406h193zM323 1192h-160l254 406h191z" />
    <glyph glyph-name="Wgrave" unicode="&#x1e80;" horiz-adv-x="2059" 
d="M669 0h-190l-408 1433h204l310 -1167l337 1167h224l347 -1167l305 1167h190l-406 -1433h-195l-355 1192zM998 1575l-335 415h229l243 -415h-137z" />
    <glyph glyph-name="wgrave" unicode="&#x1e81;" horiz-adv-x="1568" 
d="M355 -5l-323 1055h202l222 -779l243 775h172l269 -778l192 782h209l-317 -1055h-172l-268 785l-257 -785h-172zM730 1192l-335 415h229l243 -415h-137z" />
    <glyph glyph-name="Wacute" unicode="&#x1e82;" horiz-adv-x="2059" 
d="M669 0h-190l-408 1433h204l310 -1167l337 1167h224l347 -1167l305 1167h190l-406 -1433h-195l-355 1192zM1073 1575h-138l243 415h229z" />
    <glyph glyph-name="wacute" unicode="&#x1e83;" horiz-adv-x="1568" 
d="M355 -5l-323 1055h202l222 -779l243 775h172l269 -778l192 782h209l-317 -1055h-172l-268 785l-257 -785h-172zM821 1192h-138l243 415h229z" />
    <glyph glyph-name="Wdieresis" unicode="&#x1e84;" horiz-adv-x="2059" 
d="M669 0h-190l-408 1433h204l310 -1167l337 1167h224l347 -1167l305 1167h190l-406 -1433h-195l-355 1192zM1408 1729q0 -29 -10 -55.5t-28 -46.5t-43.5 -31.5t-56.5 -11.5t-56 11.5t-43 31.5t-28 46.5t-10 55.5q0 28 10 54t28 45.5t43 31t56 11.5t56.5 -11.5t43.5 -31
t28 -45.5t10 -54zM940 1729q0 -29 -10 -55.5t-28.5 -46.5t-44.5 -31.5t-57 -11.5q-30 0 -55 11.5t-43.5 31.5t-28.5 46.5t-10 55.5q0 28 10 54t28.5 45.5t43.5 31t55 11.5q31 0 57 -11.5t44.5 -31t28.5 -45.5t10 -54z" />
    <glyph glyph-name="wdieresis" unicode="&#x1e85;" horiz-adv-x="1568" 
d="M355 -5l-323 1055h202l222 -779l243 775h172l269 -778l192 782h209l-317 -1055h-172l-268 785l-257 -785h-172zM1162 1346q0 -29 -10 -55.5t-28 -46.5t-43.5 -31.5t-56.5 -11.5t-56 11.5t-43 31.5t-28 46.5t-10 55.5q0 28 10 54t28 45.5t43 31t56 11.5t56.5 -11.5
t43.5 -31t28 -45.5t10 -54zM694 1346q0 -29 -10 -55.5t-28.5 -46.5t-44.5 -31.5t-57 -11.5q-30 0 -55 11.5t-43.5 31.5t-28.5 46.5t-10 55.5q0 28 10 54t28.5 45.5t43.5 31t55 11.5q31 0 57 -11.5t44.5 -31t28.5 -45.5t10 -54z" />
    <glyph glyph-name="thinspace" unicode="&#x2009;" horiz-adv-x="174" 
 />
    <glyph glyph-name="endash" unicode="&#x2013;" horiz-adv-x="1057" 
d="M69 475l7 135h910l7 -135h-924z" />
    <glyph glyph-name="emdash" unicode="&#x2014;" horiz-adv-x="2135" 
d="M69 475l7 135h1988l6 -135h-2001z" />
    <glyph glyph-name="quoteleft" unicode="&#x2018;" horiz-adv-x="504" 
d="M410 1004q-3 -27 -14.5 -51.5t-30.5 -43t-46.5 -29.5t-63.5 -11t-70.5 15.5t-62.5 43t-45 66t-17 84.5q0 71 29 134t77 118.5t109 104t126 90.5l78 -78q-119 -87 -175 -159t-56 -132q0 -22 8 -40t27 -36t50 -36t77 -40z" />
    <glyph glyph-name="quoteright" unicode="&#x2019;" horiz-adv-x="504" 
d="M94 1394q3 27 14.5 51.5t31 43t47 29.5t63.5 11q35 0 70 -15.5t62.5 -43t45 -66t17.5 -83.5q0 -72 -29 -135t-77 -118.5t-109 -103.5t-125 -90l-80 78q119 86 176.5 158t57.5 133q0 21 -8.5 39.5t-27.5 36t-51 36t-78 39.5z" />
    <glyph glyph-name="quotesinglbase" unicode="&#x201a;" horiz-adv-x="504" 
d="M94 165q3 27 14.5 51.5t31 43t47 29.5t63.5 11q35 0 70 -15.5t62.5 -43t45 -66t17.5 -83.5q0 -72 -29 -135t-77 -118.5t-109 -103.5t-125 -90l-80 78q119 86 176.5 158.5t57.5 132.5q0 21 -8.5 39.5t-27.5 36t-51 36t-78 39.5z" />
    <glyph glyph-name="quotedblleft" unicode="&#x201c;" horiz-adv-x="995" 
d="M901 1004q-3 -27 -14.5 -51.5t-31 -43t-47 -29.5t-63.5 -11q-35 0 -70 15.5t-63 43t-45 66t-17 84.5q0 71 29 134t77 118.5t109.5 104t126.5 90.5l78 -78q-119 -87 -175.5 -159t-56.5 -132q0 -22 8 -40t27 -36t50 -36t78 -40zM410 1004q-3 -27 -14.5 -51.5t-30.5 -43
t-46.5 -29.5t-63.5 -11t-70.5 15.5t-62.5 43t-45 66t-17 84.5q0 71 29 134t77 118.5t109 104t126 90.5l78 -78q-119 -87 -175 -159t-56 -132q0 -22 8 -40t27 -36t50 -36t77 -40z" />
    <glyph glyph-name="quotedblright" unicode="&#x201d;" horiz-adv-x="995" 
d="M585 1394q3 27 14.5 51.5t30.5 43t47 29.5t64 11q35 0 70 -15.5t62.5 -43t44.5 -66t17 -83.5q0 -72 -29 -135t-76.5 -118.5t-108.5 -103.5t-125 -90l-80 78q119 86 176.5 158t57.5 133q0 21 -8.5 39.5t-28 36t-51 36t-77.5 39.5zM94 1394q3 27 14.5 51.5t31 43t47 29.5
t63.5 11q35 0 70 -15.5t62.5 -43t45 -66t17.5 -83.5q0 -72 -29 -135t-77 -118.5t-109 -103.5t-125 -90l-80 78q119 86 176.5 158t57.5 133q0 21 -8.5 39.5t-27.5 36t-51 36t-78 39.5z" />
    <glyph glyph-name="quotedblbase" unicode="&#x201e;" horiz-adv-x="963" 
d="M585 165q3 27 14.5 51.5t30.5 43t47 29.5t64 11q35 0 70 -15.5t62.5 -43t44.5 -66t17 -83.5q0 -72 -29 -135t-76.5 -118.5t-108.5 -103.5t-125 -90l-80 78q119 86 176.5 158.5t57.5 132.5q0 21 -8.5 39.5t-28 36t-51 36t-77.5 39.5zM94 165q3 27 14.5 51.5t31 43t47 29.5
t63.5 11q35 0 70 -15.5t62.5 -43t45 -66t17.5 -83.5q0 -72 -29 -135t-77 -118.5t-109 -103.5t-125 -90l-80 78q119 86 176.5 158.5t57.5 132.5q0 21 -8.5 39.5t-27.5 36t-51 36t-78 39.5z" />
    <glyph glyph-name="dagger" unicode="&#x2020;" horiz-adv-x="1062" 
d="M80 885l-7 128h388v420h137v-420h390l-7 -128h-383v-1174h-137v1174h-381z" />
    <glyph glyph-name="daggerdbl" unicode="&#x2021;" horiz-adv-x="1062" 
d="M80 919l-7 129h388v385h137v-385h390l-7 -129h-383v-697h383l7 -128h-390v-383h-137v383h-388l7 128h381v697h-381z" />
    <glyph glyph-name="bullet" unicode="&#x2022;" horiz-adv-x="1029" 
d="M956 532q0 -25 -13.5 -70.5t-33 -93.5t-41.5 -90t-40 -60q-11 -12 -34.5 -26t-53 -28t-62 -27.5t-64 -24t-58 -17t-42.5 -6.5t-42.5 6.5t-57 17t-63 24t-62 27.5t-52 28t-33.5 26q-12 12 -26 35.5t-28.5 52.5t-28.5 62t-24.5 63.5t-17 57t-6.5 43.5q0 16 6.5 42.5
t17 57.5t24.5 63.5t28.5 62t28.5 52t26 34.5q12 11 35 25t52 28.5t62 28t64 23.5t57 16.5t42 6.5t42.5 -6.5t57.5 -16.5t63.5 -23.5t62 -28t52 -28.5t34.5 -25q12 -12 25.5 -34.5t28 -52t28 -62t23.5 -63.5t16.5 -57.5t6.5 -42.5z" />
    <glyph glyph-name="ellipsis" unicode="&#x2026;" horiz-adv-x="1541" 
d="M1438 115q0 -29 -10.5 -56t-30 -47.5t-46.5 -33t-60 -12.5q-32 0 -59 12.5t-47 33t-31.5 47.5t-11.5 56t11.5 55.5t31.5 46t47 31t59 11.5q33 0 60 -11.5t46.5 -31t30 -46t10.5 -55.5zM919 115q0 -29 -10.5 -56t-29.5 -47.5t-45.5 -33t-58.5 -12.5q-33 0 -60.5 12.5
t-47.5 33t-31.5 47.5t-11.5 56t11.5 55.5t31.5 46t47.5 31t60.5 11.5q32 0 58.5 -11.5t45.5 -31t29.5 -46t10.5 -55.5zM401 115q0 -29 -10.5 -56t-29.5 -47.5t-45.5 -33t-58.5 -12.5q-33 0 -60 12.5t-47 33t-31 47.5t-11 56t11 55.5t31 46t47 31t60 11.5q32 0 58.5 -11.5
t45.5 -31t29.5 -46t10.5 -55.5z" />
    <glyph glyph-name="perthousand" unicode="&#x2030;" horiz-adv-x="2568" 
d="M793 1105q0 -77 -26 -145.5t-75.5 -120t-120 -82t-158.5 -30.5t-158.5 30.5t-120 82t-76 120t-26.5 145.5q0 78 26.5 148t76 122t120 82.5t158.5 30.5t158.5 -30.5t120 -82.5t75.5 -122t26 -148zM351 -34h-145l1142 1499h145zM1665 326q0 -78 -26.5 -148t-76 -122
t-120 -82.5t-158.5 -30.5q-89 0 -159.5 30.5t-119.5 82.5t-75.5 122t-26.5 148q0 76 26.5 145t75.5 120.5t119.5 82t159.5 30.5q88 0 158.5 -30.5t120 -82t76 -120.5t26.5 -145zM669 1105q0 55 -17.5 103t-50.5 84t-80.5 56.5t-107.5 20.5t-108 -20.5t-81 -56.5t-50.5 -84
t-17.5 -103q0 -51 17.5 -98t50.5 -83t81 -57t108 -21t107.5 21t80.5 57t50.5 83t17.5 98zM1541 326q0 51 -17.5 98t-51 83t-81 57t-107.5 21t-108 -21t-81 -57t-50.5 -83t-17.5 -98q0 -55 17.5 -103t50.5 -84t81 -56.5t108 -20.5t107.5 20.5t81 56.5t51 84t17.5 103z
M2536 326q0 -78 -26.5 -148t-76 -122t-120 -82.5t-158.5 -30.5q-89 0 -159 30.5t-119.5 82.5t-75.5 122t-26 148q0 76 26 145t75.5 120.5t119.5 82t159 30.5q88 0 158.5 -30.5t120 -82t76 -120.5t26.5 -145zM2412 326q0 51 -17.5 98t-50.5 83t-81 57t-108 21t-107.5 -21
t-81 -57t-51 -83t-17.5 -98q0 -55 17.5 -103t51 -84t81 -56.5t107.5 -20.5t108 20.5t81 56.5t50.5 84t17.5 103z" />
    <glyph glyph-name="guilsinglleft" unicode="&#x2039;" horiz-adv-x="784" 
d="M669 57l-600 372v215l600 372l19 -138l-459 -339v-5l459 -339z" />
    <glyph glyph-name="guilsinglright" unicode="&#x203a;" horiz-adv-x="784" 
d="M115 57l-19 138l459 339v5l-459 339l19 138l600 -372v-215z" />
    <glyph glyph-name="fraction" unicode="&#x2044;" horiz-adv-x="1318" 
d="M158 -34h-142l1146 1499h140z" />
    <glyph glyph-name="zerosuperior" unicode="&#x2070;" horiz-adv-x="757" 
d="M708 1059q0 -106 -23 -190t-66 -142.5t-104.5 -90t-138.5 -31.5q-78 0 -139 31t-103 89.5t-64 142t-22 189.5q0 105 23 188.5t66 142t104.5 90t139.5 31.5q77 0 138 -30.5t103 -88.5t64 -141.5t22 -189.5zM559 1055q0 92 -14 156.5t-39 105.5t-58 60t-72 19t-71.5 -18.5
t-56.5 -59t-37.5 -105t-13.5 -156.5q0 -89 14 -152t39 -103t58.5 -58.5t72.5 -18.5t71.5 18t56 57.5t37 102t13.5 152.5z" />
    <glyph glyph-name="foursuperior" unicode="&#x2074;" horiz-adv-x="757" 
d="M601 841v-215h-136v215h-419l-14 97l399 559h170v-541h133l4 -115h-137zM465 1355l-284 -399h284v399z" />
    <glyph glyph-name="fivesuperior" unicode="&#x2075;" horiz-adv-x="757" 
d="M245 1140q20 2 44.5 5.5t59.5 3.5q72 0 132 -17.5t102.5 -51t66.5 -81t24 -107.5q0 -63 -23.5 -115.5t-68 -90.5t-107 -59.5t-140.5 -21.5q-36 0 -73.5 4t-72 11.5t-65.5 18.5t-55 24l23 126q21 -12 49 -23t59.5 -20t65 -14t66.5 -5q42 0 77.5 10t61 30.5t40 50.5
t14.5 69q0 68 -52.5 108.5t-151.5 40.5q-64 0 -116.5 -10t-85.5 -24l-25 23l62 465h502l5 -126h-386l-32 -224v0z" />
    <glyph glyph-name="sixsuperior" unicode="&#x2076;" horiz-adv-x="757" 
d="M55 972q0 91 33 177t99 158t164 125t229 79l37 -117q-80 -17 -148 -45.5t-121 -68t-90 -89.5t-54 -109l7 -2q45 38 105.5 62.5t128.5 24.5q56 0 104 -18.5t83.5 -53t55.5 -84t20 -110.5q0 -63 -22.5 -117t-64 -93.5t-101 -62.5t-133.5 -23q-83 0 -145.5 29t-104 79
t-62 116.5t-20.5 142.5zM204 931q0 -42 12 -80t36 -66.5t59.5 -45.5t82.5 -17q37 0 67.5 12.5t52 35t33.5 53.5t12 69q0 76 -42.5 117t-117.5 41q-29 0 -57 -6t-52.5 -15t-44.5 -21t-34 -24q-4 -12 -5.5 -25.5t-1.5 -27.5z" />
    <glyph glyph-name="sevensuperior" unicode="&#x2077;" horiz-adv-x="757" 
d="M55 1364l5 126h626l11 -112l-415 -752h-149l410 738h-488z" />
    <glyph glyph-name="eightsuperior" unicode="&#x2078;" horiz-adv-x="757" 
d="M706 858q0 -52 -20.5 -98t-62 -80.5t-103.5 -54.5t-144 -20q-81 0 -142 18.5t-102 51t-61.5 76t-20.5 93.5q0 42 16 76t42 60.5t59 46t67 32.5q-34 16 -64.5 35t-53.5 43.5t-36.5 54.5t-13.5 67q0 55 21 101t62 79.5t100 52.5t136 19q76 0 133.5 -18.5t95.5 -51t57 -76
t19 -92.5q0 -38 -14 -70t-37 -57.5t-52.5 -45.5t-61.5 -34q36 -17 69 -37t57.5 -45t39.5 -56t15 -70zM546 1261q0 32 -12.5 58t-34.5 44t-52.5 28t-65.5 10q-41 0 -71.5 -10.5t-51.5 -28.5t-31.5 -41.5t-10.5 -50.5q0 -30 16 -55.5t44 -46t66.5 -36.5t83.5 -27q56 24 88 64
t32 92zM559 846q0 33 -18 60.5t-48.5 49t-71.5 38.5t-86 29q-63 -25 -100.5 -66.5t-37.5 -96.5q0 -32 13.5 -58t38 -45t59 -29t75.5 -10q87 0 131.5 34t44.5 94z" />
    <glyph glyph-name="ninesuperior" unicode="&#x2079;" horiz-adv-x="757" 
d="M702 1146q0 -92 -33.5 -178.5t-99.5 -158.5t-165 -125.5t-230 -78.5l-34 117q161 35 268 113t142 199h-4q-47 -38 -107 -61.5t-129 -23.5q-55 0 -103 18.5t-83 53t-55.5 83.5t-20.5 109q0 64 22 118.5t63.5 94.5t100.5 62.5t133 22.5q83 0 146 -29t105 -78.5t63 -116
t21 -141.5zM550 1185q0 41 -12 79t-35.5 67t-59 46t-81.5 17q-76 0 -120.5 -47t-44.5 -123q0 -74 42.5 -117t118.5 -43q28 0 55.5 6t52 15t45 21t35.5 24q3 14 3.5 27.5t0.5 27.5z" />
    <glyph glyph-name="plussuperior" unicode="&#x207a;" horiz-adv-x="757" 
d="M452 1009v-241h-99v241h-238l2 98h236v239h99v-239h231l5 -98h-236z" />
    <glyph glyph-name="minussuperior" unicode="&#x207b;" horiz-adv-x="757" 
d="M115 1009l2 98h566l5 -98h-573z" />
    <glyph glyph-name="zeroinferior" unicode="&#x2080;" horiz-adv-x="757" 
d="M708 105q0 -106 -23 -190t-66 -142.5t-104.5 -90t-138.5 -31.5q-78 0 -139 31t-103 89.5t-64 142t-22 189.5q0 105 23 188.5t66 142t104.5 90t139.5 31.5q77 0 138 -30.5t103 -88.5t64 -141.5t22 -189.5zM559 101q0 92 -14 157t-39 106t-58 60t-72 19t-71.5 -18.5
t-56.5 -59t-37.5 -105.5t-13.5 -157q0 -89 14 -152t39 -103t58.5 -58.5t72.5 -18.5t71.5 18t56 57.5t37 102t13.5 152.5z" />
    <glyph glyph-name="oneinferior" unicode="&#x2081;" horiz-adv-x="757" 
d="M365 385l-232 -53l-5 127l386 89v-876h-149v713z" />
    <glyph glyph-name="twoinferior" unicode="&#x2082;" horiz-adv-x="757" 
d="M66 -328l-4 124q106 92 187.5 160.5t137 124.5t84.5 105.5t29 102.5q0 32 -12 58t-33.5 45t-51.5 29t-66 10q-59 0 -116 -25.5t-104 -63.5l-51 114q24 20 56.5 38t70 31.5t78.5 21.5t84 8q69 0 124 -19t93 -53t58.5 -81t20.5 -104q0 -60 -26 -113.5t-78.5 -111.5
t-131 -124.5t-183.5 -152.5q-2 0 16.5 -0.5t49.5 -0.5h70.5h81.5q98 0 224 1l5 -124h-613z" />
    <glyph glyph-name="threeinferior" unicode="&#x2083;" horiz-adv-x="757" 
d="M410 128q70 0 122 -17t86.5 -45.5t51 -66.5t16.5 -79q0 -62 -28 -111.5t-76 -84.5t-112.5 -54t-137.5 -19q-36 0 -73.5 4.5t-73 12.5t-67 19t-56.5 24l25 119q23 -10 51.5 -20t60 -18.5t65.5 -13.5t68 -5q40 0 77 8.5t64.5 26t44 44t16.5 61.5q0 59 -52.5 98t-155.5 39
q-35 -2 -73 -6t-67 -7v107q69 15 126.5 32t99 38t64 48t22.5 61q0 51 -39 80.5t-117 29.5q-56 0 -116 -22t-107 -60l-55 117q27 18 60 34t70 27.5t76.5 18.5t80.5 7q66 0 121 -14t94 -41t61 -66t22 -90q0 -78 -61.5 -132.5t-177.5 -83.5z" />
    <glyph glyph-name="fourinferior" unicode="&#x2084;" horiz-adv-x="757" 
d="M601 -112v-216h-136v216h-419l-14 96l399 559h170v-541h133l4 -114h-137zM465 401l-284 -399h284v399z" />
    <glyph glyph-name="fiveinferior" unicode="&#x2085;" horiz-adv-x="757" 
d="M245 186q20 2 44.5 5.5t59.5 3.5q72 0 132 -17.5t102.5 -50.5t66.5 -81t24 -108q0 -63 -23.5 -115.5t-68 -90.5t-107 -59.5t-140.5 -21.5q-36 0 -73.5 4t-72 11.5t-65.5 18.5t-55 24l23 126q21 -12 49 -23t59.5 -20t65 -14t66.5 -5q42 0 77.5 10t61 30.5t40 50.5t14.5 70
q0 67 -52.5 108t-151.5 41q-64 0 -116.5 -10.5t-85.5 -24.5l-25 23l62 466h502l5 -127h-386l-32 -224v0z" />
    <glyph glyph-name="sixinferior" unicode="&#x2086;" horiz-adv-x="757" 
d="M55 18q0 91 33 177t99 158t164 125t229 79l37 -117q-80 -16 -148 -44.5t-121 -68t-90 -89.5t-54 -110l7 -2q45 38 105.5 62.5t128.5 24.5q56 0 104 -18.5t83.5 -53t55.5 -84t20 -110.5q0 -63 -22.5 -117t-64 -93.5t-101 -62.5t-133.5 -23q-83 0 -145.5 29t-104 79
t-62 117t-20.5 142zM204 -23q0 -42 12 -80t36 -66.5t59.5 -45.5t82.5 -17q37 0 67.5 12.5t52 35t33.5 53.5t12 69q0 76 -42.5 117t-117.5 41q-29 0 -57 -6t-52.5 -15t-44.5 -21t-34 -24q-4 -12 -5.5 -25.5t-1.5 -27.5z" />
    <glyph glyph-name="seveninferior" unicode="&#x2087;" horiz-adv-x="757" 
d="M55 410l5 127h626l11 -113l-415 -752h-149l410 738h-488z" />
    <glyph glyph-name="eightinferior" unicode="&#x2088;" horiz-adv-x="757" 
d="M706 -96q0 -52 -20.5 -98t-62 -80.5t-103.5 -54.5t-144 -20q-81 0 -142 18.5t-102 51t-61.5 76t-20.5 93.5q0 42 16 76t42 60.5t59 46t67 32.5q-34 16 -64.5 35t-53.5 43.5t-36.5 54.5t-13.5 67q0 55 21 101.5t62 80t100 52t136 18.5q76 0 133.5 -18.5t95.5 -50.5
t57 -75.5t19 -93.5q0 -38 -14 -70t-37 -57.5t-52.5 -45.5t-61.5 -34q36 -17 69 -37t57.5 -45t39.5 -56t15 -70zM546 307q0 32 -12.5 58t-34.5 44t-52.5 28t-65.5 10q-41 0 -71.5 -10.5t-51.5 -28.5t-31.5 -41.5t-10.5 -50.5q0 -30 16 -55.5t44 -46t66.5 -36.5t83.5 -27
q56 24 88 64t32 92zM559 -108q0 34 -18 61t-48.5 49t-71.5 38.5t-86 28.5q-63 -24 -100.5 -66t-37.5 -97q0 -32 13.5 -58t38 -45t59 -29t75.5 -10q87 0 131.5 34t44.5 94z" />
    <glyph glyph-name="nineinferior" unicode="&#x2089;" horiz-adv-x="757" 
d="M702 193q0 -92 -33.5 -179t-99.5 -159t-165 -125.5t-230 -78.5l-34 117q161 35 268 113t142 199h-4q-47 -38 -107 -61.5t-129 -23.5q-55 0 -103 18.5t-83 53t-55.5 83.5t-20.5 109q0 64 22 118.5t63.5 94.5t100.5 62.5t133 22.5q83 0 146 -29t105 -78.5t63 -115.5
t21 -141zM550 232q0 41 -12 79t-35.5 66.5t-59 45.5t-81.5 17q-38 0 -68.5 -12.5t-52 -34.5t-33 -53.5t-11.5 -68.5q0 -75 42.5 -118t118.5 -43q28 0 55.5 6t52 15.5t45 21.5t35.5 24q3 14 3.5 27.5t0.5 27.5z" />
    <glyph glyph-name="Euro" unicode="&#x20ac;" 
d="M53 846l-7 126h190q25 132 75 225.5t118.5 153.5t152 88t175.5 28q209 0 350 -87l-45 -167q-66 43 -143 64t-162 21q-130 0 -213 -79t-118 -247h521l-7 -126h-530q-2 -28 -3 -58t-1 -61q0 -36 1.5 -70t5.5 -65h458l7 -127h-447q19 -86 50 -148t72.5 -102.5t92.5 -60
t108 -19.5q91 0 171 21.5t143 63.5l33 -170q-69 -42 -157 -63t-194 -21q-98 0 -183.5 26.5t-152.5 85.5t-114 154.5t-68 232.5h-186l7 127h165q-2 27 -3.5 56t-1.5 60q0 37 1.5 71t3.5 67h-165z" />
    <glyph glyph-name="trademark" unicode="&#x2122;" horiz-adv-x="2176" 
d="M1832 578l2 699h-25l-243 -674h-161l-213 672h-25l-11 -697h-133l16 857h261l183 -662h26l211 662h247l12 -857h-147zM562 1295v-717h-145v717h-318v140h807v-140h-344z" />
    <glyph glyph-name="minus" unicode="&#x2212;" 
d="M110 456l7 163h917l7 -163h-931z" />
    <glyph glyph-name="uni2215" unicode="&#x2215;" horiz-adv-x="1318" 
d="M158 -34h-142l1146 1499h140z" />
    <glyph glyph-name="approxequal" unicode="&#x2248;" 
d="M993 481q-11 -61 -36 -109.5t-59 -82t-75 -51.5t-85 -18q-45 0 -92.5 17.5t-91.5 38.5t-83.5 38.5t-69.5 17.5q-10 0 -24 -2t-29 -11.5t-29 -29.5t-23 -57h-142q11 61 35.5 109t58.5 82t75 52t85 18q45 0 93.5 -17.5t94 -38.5t84.5 -38.5t65 -17.5q16 0 31 3t28.5 13.5
t25.5 30.5t23 53h140zM993 844q-11 -61 -36 -109.5t-59 -82.5t-75 -52t-85 -18q-45 0 -92.5 17.5t-91.5 39t-83.5 39t-69.5 17.5q-10 0 -24 -2t-29 -12t-29 -30t-23 -57h-142q11 61 35.5 109.5t58.5 82t75 51.5t85 18q45 0 93.5 -17.5t94 -38.5t84.5 -38.5t65 -17.5
q16 0 31 3t28.5 13.5t25.5 30.5t23 54h140z" />
    <glyph glyph-name="notequal" unicode="&#x2260;" 
d="M433 248h-314l12 162h344l66 255h-410l-12 163h466l78 300h162l-78 -300h285l-12 -163h-316l-67 -255h383l12 -162h-436l-85 -324h-162z" />
    <glyph glyph-name="lessequal" unicode="&#x2264;" 
d="M986 204l-828 349v201l828 349v-168l-654 -272v-21l654 -273v-165zM174 0l7 156h800l7 -156h-814z" />
    <glyph glyph-name="greaterequal" unicode="&#x2265;" 
d="M160 369l654 273v21l-654 272v168l828 -349v-201l-828 -349v165zM158 0l7 156h800l7 -156h-814z" />
    <glyph glyph-name="pcircle" unicode="&#x24df;" horiz-adv-x="1669" 
d="M835 -37q-104 0 -200 26.5t-179 75.5t-151.5 117.5t-117.5 151.5t-75.5 179t-26.5 200t26.5 200t75.5 179.5t117.5 152t151.5 117.5t179 76t200 27t199.5 -27t179 -76t151.5 -117.5t117 -152t75.5 -179.5t26.5 -200t-26.5 -200t-75.5 -179t-117 -151.5t-151.5 -117.5
t-179 -75.5t-199.5 -26.5zM1516 713q0 141 -53.5 266t-146 219t-216.5 148.5t-265 54.5t-265 -54.5t-216.5 -148.5t-146 -219t-53.5 -266t53.5 -265.5t146 -218t216.5 -147.5t265 -54t265 54t216.5 147.5t146 218t53.5 265.5zM1190 837q0 -71 -23.5 -125t-67 -90t-106.5 -54
t-142 -18h-115v-257h-142v812h266q84 0 146 -20t103 -55.5t61 -85t20 -107.5zM1046 832q0 147 -195 147h-117v-305l126 2q94 2 140 42t46 114z" />
    <glyph glyph-name="commaaccent" unicode="&#xf6c3;" horiz-adv-x="903" 
d="M310 -229q2 19 11.5 39t26 36.5t39.5 26.5t53 10q34 0 64 -13t52 -36t34.5 -54.5t12.5 -68.5q0 -53 -18.5 -99t-51.5 -85.5t-78.5 -74.5t-99.5 -66l-68 59q50 33 79.5 61t45 52t20 45t4.5 39q0 21 -5 37.5t-19 31.5t-38.5 29t-63.5 31z" />
    <glyph glyph-name="J.alt" horiz-adv-x="851" 
d="M706 406q0 -218 -102 -329t-294 -111q-78 0 -148.5 22t-122.5 53l27 186q63 -42 121.5 -62.5t117.5 -20.5q107 0 158 62t51 202v1025h192v-1027v0z" />
    <glyph glyph-name="a.alt" horiz-adv-x="1206" 
d="M855 839q-47 38 -106 59t-128 21q-80 0 -142 -31t-104 -85t-64 -125.5t-22 -152.5q0 -87 21.5 -159t61.5 -123t98 -79.5t131 -28.5q74 0 137 29.5t117 76.5v598zM562 -34q-111 0 -198 42t-147 116.5t-91.5 175.5t-31.5 220q0 120 39.5 223t110 178.5t168.5 119t216 43.5
q75 0 146.5 -12t121.5 -26l147 38v-848q0 -33 3.5 -53t14 -31t31 -15t54.5 -4l-11 -158q-64 -5 -112.5 4.5t-83 29t-55.5 46.5t-29 57q-60 -71 -130 -108.5t-163 -37.5z" />
    <glyph glyph-name="g.alt" horiz-adv-x="1211" 
d="M1048 -9q0 -140 -32.5 -241.5t-95 -167t-152.5 -97t-204 -31.5q-107 0 -196.5 22.5t-170.5 64.5l48 175q73 -42 153.5 -63.5t165.5 -21.5q152 0 224 84.5t72 259.5v126q-29 -27 -61 -50.5t-68 -41.5t-77.5 -28.5t-87.5 -10.5q-111 0 -198.5 41.5t-148 115t-93 174
t-32.5 219.5q0 120 40 223t111.5 178.5t170.5 119t217 43.5q74 0 146 -12t122 -26l147 38v-1093zM860 839q-47 38 -106 59t-128 21q-80 0 -142.5 -31t-106 -85t-66 -125.5t-22.5 -152.5q0 -87 22 -158t63 -121.5t99.5 -78t131.5 -27.5q75 0 138 29t117 76v594z" />
    <glyph glyph-name="agrave.alt" horiz-adv-x="1206" 
d="M855 839q-47 38 -106 59t-128 21q-80 0 -142 -31t-104 -85t-64 -125.5t-22 -152.5q0 -87 21.5 -159t61.5 -123t98 -79.5t131 -28.5q74 0 137 29.5t117 76.5v598zM562 -34q-111 0 -198 42t-147 116.5t-91.5 175.5t-31.5 220q0 120 39.5 223t110 178.5t168.5 119t216 43.5
q75 0 146.5 -12t121.5 -26l147 38v-848q0 -33 3.5 -53t14 -31t31 -15t54.5 -4l-11 -158q-64 -5 -112.5 4.5t-83 29t-55.5 46.5t-29 57q-60 -71 -130 -108.5t-163 -37.5zM649 1192l-335 415h229l243 -415h-137z" />
    <glyph glyph-name="aacute.alt" horiz-adv-x="1206" 
d="M855 839q-47 38 -106 59t-128 21q-80 0 -142 -31t-104 -85t-64 -125.5t-22 -152.5q0 -87 21.5 -159t61.5 -123t98 -79.5t131 -28.5q74 0 137 29.5t117 76.5v598zM562 -34q-111 0 -198 42t-147 116.5t-91.5 175.5t-31.5 220q0 120 39.5 223t110 178.5t168.5 119t216 43.5
q75 0 146.5 -12t121.5 -26l147 38v-848q0 -33 3.5 -53t14 -31t31 -15t54.5 -4l-11 -158q-64 -5 -112.5 4.5t-83 29t-55.5 46.5t-29 57q-60 -71 -130 -108.5t-163 -37.5zM720 1192h-138l243 415h229z" />
    <glyph glyph-name="acircumflex.alt" horiz-adv-x="1206" 
d="M855 839q-47 38 -106 59t-128 21q-80 0 -142 -31t-104 -85t-64 -125.5t-22 -152.5q0 -87 21.5 -159t61.5 -123t98 -79.5t131 -28.5q74 0 137 29.5t117 76.5v598zM562 -34q-111 0 -198 42t-147 116.5t-91.5 175.5t-31.5 220q0 120 39.5 223t110 178.5t168.5 119t216 43.5
q75 0 146.5 -12t121.5 -26l147 38v-848q0 -33 3.5 -53t14 -31t31 -15t54.5 -4l-11 -158q-64 -5 -112.5 4.5t-83 29t-55.5 46.5t-29 57q-60 -71 -130 -108.5t-163 -37.5zM876 1192l-225 291h-2l-227 -291h-138l264 429h201l264 -429h-137z" />
    <glyph glyph-name="atilde.alt" horiz-adv-x="1206" 
d="M855 839q-47 38 -106 59t-128 21q-80 0 -142 -31t-104 -85t-64 -125.5t-22 -152.5q0 -87 21.5 -159t61.5 -123t98 -79.5t131 -28.5q74 0 137 29.5t117 76.5v598zM562 -34q-111 0 -198 42t-147 116.5t-91.5 175.5t-31.5 220q0 120 39.5 223t110 178.5t168.5 119t216 43.5
q75 0 146.5 -12t121.5 -26l147 38v-848q0 -33 3.5 -53t14 -31t31 -15t54.5 -4l-11 -158q-64 -5 -112.5 4.5t-83 29t-55.5 46.5t-29 57q-60 -71 -130 -108.5t-163 -37.5zM1039 1488q-16 -146 -67 -217.5t-156 -71.5q-53 0 -102.5 24.5t-94 54.5t-83.5 54.5t-71 24.5
q-31 0 -53 -31.5t-34 -110.5h-126q8 74 24 128.5t43 90.5t65 54t91 18t102.5 -25t94 -55t83 -55t70.5 -25t53 31.5t32 110.5h129v0z" />
    <glyph glyph-name="adieresis.alt" horiz-adv-x="1206" 
d="M855 839q-47 38 -106 59t-128 21q-80 0 -142 -31t-104 -85t-64 -125.5t-22 -152.5q0 -87 21.5 -159t61.5 -123t98 -79.5t131 -28.5q74 0 137 29.5t117 76.5v598zM562 -34q-111 0 -198 42t-147 116.5t-91.5 175.5t-31.5 220q0 120 39.5 223t110 178.5t168.5 119t216 43.5
q75 0 146.5 -12t121.5 -26l147 38v-848q0 -33 3.5 -53t14 -31t31 -15t54.5 -4l-11 -158q-64 -5 -112.5 4.5t-83 29t-55.5 46.5t-29 57q-60 -71 -130 -108.5t-163 -37.5zM1029 1346q0 -29 -10 -55.5t-28 -46.5t-43.5 -31.5t-56.5 -11.5t-56 11.5t-43 31.5t-28 46.5t-10 55.5
q0 28 10 54t28 45.5t43 31t56 11.5t56.5 -11.5t43.5 -31t28 -45.5t10 -54zM561 1346q0 -29 -10 -55.5t-28.5 -46.5t-44.5 -31.5t-57 -11.5q-30 0 -55 11.5t-43.5 31.5t-28.5 46.5t-10 55.5q0 28 10 54t28.5 45.5t43.5 31t55 11.5q31 0 57 -11.5t44.5 -31t28.5 -45.5t10 -54z
" />
    <glyph glyph-name="aring.alt" horiz-adv-x="1206" 
d="M855 839q-47 38 -106 59t-128 21q-80 0 -142 -31t-104 -85t-64 -125.5t-22 -152.5q0 -87 21.5 -159t61.5 -123t98 -79.5t131 -28.5q74 0 137 29.5t117 76.5v598zM562 -34q-111 0 -198 42t-147 116.5t-91.5 175.5t-31.5 220q0 120 39.5 223t110 178.5t168.5 119t216 43.5
q75 0 146.5 -12t121.5 -26l147 38v-848q0 -33 3.5 -53t14 -31t31 -15t54.5 -4l-11 -158q-64 -5 -112.5 4.5t-83 29t-55.5 46.5t-29 57q-60 -71 -130 -108.5t-163 -37.5zM929 1447q1 -52 -18.5 -97.5t-56.5 -79.5t-90 -53.5t-119 -19.5t-119 19.5t-90 53.5t-56.5 79.5
t-19.5 97.5q0 51 19.5 97t56.5 80.5t90 54.5t119 20t118.5 -20t89 -54.5t56 -80.5t20.5 -97zM810 1449q0 31 -11.5 58.5t-32.5 48t-51.5 32.5t-69.5 12q-38 0 -68 -12t-51 -32.5t-32.5 -48t-11.5 -58.5t11.5 -59t32.5 -49t51 -33.5t68 -12.5q39 0 69.5 12.5t51.5 33.5
t32.5 49t11.5 59z" />
    <glyph glyph-name="aringacute.alt" horiz-adv-x="1206" 
d="M603 1761h-138l243 415h229zM855 839q-47 38 -106 59t-128 21q-80 0 -142 -31t-104 -85t-64 -125.5t-22 -152.5q0 -87 21.5 -159t61.5 -123t98 -79.5t131 -28.5q74 0 137 29.5t117 76.5v598zM562 -34q-111 0 -198 42t-147 116.5t-91.5 175.5t-31.5 220q0 120 39.5 223
t110 178.5t168.5 119t216 43.5q75 0 146.5 -12t121.5 -26l147 38v-848q0 -33 3.5 -53t14 -31t31 -15t54.5 -4l-11 -158q-64 -5 -112.5 4.5t-83 29t-55.5 46.5t-29 57q-60 -71 -130 -108.5t-163 -37.5zM929 1447q1 -52 -18.5 -97.5t-56.5 -79.5t-90 -53.5t-119 -19.5
t-119 19.5t-90 53.5t-56.5 79.5t-19.5 97.5q0 51 19.5 97t56.5 80.5t90 54.5t119 20t118.5 -20t89 -54.5t56 -80.5t20.5 -97zM810 1449q0 31 -11.5 58.5t-32.5 48t-51.5 32.5t-69.5 12q-38 0 -68 -12t-51 -32.5t-32.5 -48t-11.5 -58.5t11.5 -59t32.5 -49t51 -33.5t68 -12.5
q39 0 69.5 12.5t51.5 33.5t32.5 49t11.5 59z" />
    <glyph glyph-name="amacron.alt" horiz-adv-x="1206" 
d="M855 839q-47 38 -106 59t-128 21q-80 0 -142 -31t-104 -85t-64 -125.5t-22 -152.5q0 -87 21.5 -159t61.5 -123t98 -79.5t131 -28.5q74 0 137 29.5t117 76.5v598zM562 -34q-111 0 -198 42t-147 116.5t-91.5 175.5t-31.5 220q0 120 39.5 223t110 178.5t168.5 119t216 43.5
q75 0 146.5 -12t121.5 -26l147 38v-848q0 -33 3.5 -53t14 -31t31 -15t54.5 -4l-11 -158q-64 -5 -112.5 4.5t-83 29t-55.5 46.5t-29 57q-60 -71 -130 -108.5t-163 -37.5zM348 1234l9 121h610l12 -121h-631z" />
    <glyph glyph-name="abreve.alt" horiz-adv-x="1206" 
d="M855 839q-47 38 -106 59t-128 21q-80 0 -142 -31t-104 -85t-64 -125.5t-22 -152.5q0 -87 21.5 -159t61.5 -123t98 -79.5t131 -28.5q74 0 137 29.5t117 76.5v598zM562 -34q-111 0 -198 42t-147 116.5t-91.5 175.5t-31.5 220q0 120 39.5 223t110 178.5t168.5 119t216 43.5
q75 0 146.5 -12t121.5 -26l147 38v-848q0 -33 3.5 -53t14 -31t31 -15t54.5 -4l-11 -158q-64 -5 -112.5 4.5t-83 29t-55.5 46.5t-29 57q-60 -71 -130 -108.5t-163 -37.5zM1034 1619q-12 -91 -39.5 -169.5t-72.5 -136t-108 -90.5t-146 -33q-84 0 -147 33t-108 90.5t-72.5 136
t-39.5 169.5h153q10 -57 28 -108t44 -89t61 -60.5t81 -22.5q45 0 80.5 22.5t62 60.5t44 89t26.5 108h153v0z" />
    <glyph glyph-name="aogonek.alt" horiz-adv-x="1206" 
d="M562 -34q-111 0 -198 42t-147 116.5t-91.5 175.5t-31.5 220q0 120 39.5 223t110 178.5t168.5 119t216 43.5q75 0 146.5 -12t121.5 -26l147 38v-848q0 -33 3.5 -53t14 -31t31 -15t54.5 -4l-11 -158q-58 0 -106 -13.5t-82.5 -38.5t-53.5 -60.5t-19 -80.5q0 -52 26 -82
t77 -30q31 0 62.5 10t54.5 27l41 -143q-36 -26 -86.5 -44t-119.5 -18q-54 0 -98.5 15.5t-76.5 44t-50 69.5t-18 92t18 97t49 84t72 69t88 52q-23 17 -38 40t-20 47q-60 -71 -130 -108.5t-163 -37.5zM855 839q-47 38 -106 59t-128 21q-80 0 -142 -31t-104 -85t-64 -125.5
t-22 -152.5q0 -87 21.5 -159t61.5 -123t98 -79.5t131 -28.5q74 0 137 29.5t117 76.5v598z" />
    <glyph glyph-name="gcircumflex.alt" horiz-adv-x="1211" 
d="M1048 -9q0 -140 -32.5 -241.5t-95 -167t-152.5 -97t-204 -31.5q-107 0 -196.5 22.5t-170.5 64.5l48 175q73 -42 153.5 -63.5t165.5 -21.5q152 0 224 84.5t72 259.5v126q-29 -27 -61 -50.5t-68 -41.5t-77.5 -28.5t-87.5 -10.5q-111 0 -198.5 41.5t-148 115t-93 174
t-32.5 219.5q0 120 40 223t111.5 178.5t170.5 119t217 43.5q74 0 146 -12t122 -26l147 38v-1093zM860 839q-47 38 -106 59t-128 21q-80 0 -142.5 -31t-106 -85t-66 -125.5t-22.5 -152.5q0 -87 22 -158t63 -121.5t99.5 -78t131.5 -27.5q75 0 138 29t117 76v594zM860 1192
l-225 291h-2l-227 -291h-138l264 429h201l264 -429h-137z" />
    <glyph glyph-name="gbreve.alt" horiz-adv-x="1211" 
d="M1048 -9q0 -140 -32.5 -241.5t-95 -167t-152.5 -97t-204 -31.5q-107 0 -196.5 22.5t-170.5 64.5l48 175q73 -42 153.5 -63.5t165.5 -21.5q152 0 224 84.5t72 259.5v126q-29 -27 -61 -50.5t-68 -41.5t-77.5 -28.5t-87.5 -10.5q-111 0 -198.5 41.5t-148 115t-93 174
t-32.5 219.5q0 120 40 223t111.5 178.5t170.5 119t217 43.5q74 0 146 -12t122 -26l147 38v-1093zM860 839q-47 38 -106 59t-128 21q-80 0 -142.5 -31t-106 -85t-66 -125.5t-22.5 -152.5q0 -87 22 -158t63 -121.5t99.5 -78t131.5 -27.5q75 0 138 29t117 76v594zM1020 1619
q-12 -91 -39.5 -169.5t-72.5 -136t-108 -90.5t-146 -33q-84 0 -147 33t-108 90.5t-72.5 136t-39.5 169.5h153q10 -57 28 -108t44 -89t61 -60.5t81 -22.5q45 0 80.5 22.5t62 60.5t44 89t26.5 108h153v0z" />
    <glyph glyph-name="gdotaccent.alt" horiz-adv-x="1211" 
d="M1048 -9q0 -140 -32.5 -241.5t-95 -167t-152.5 -97t-204 -31.5q-107 0 -196.5 22.5t-170.5 64.5l48 175q73 -42 153.5 -63.5t165.5 -21.5q152 0 224 84.5t72 259.5v126q-29 -27 -61 -50.5t-68 -41.5t-77.5 -28.5t-87.5 -10.5q-111 0 -198.5 41.5t-148 115t-93 174
t-32.5 219.5q0 120 40 223t111.5 178.5t170.5 119t217 43.5q74 0 146 -12t122 -26l147 38v-1093zM860 839q-47 38 -106 59t-128 21q-80 0 -142.5 -31t-106 -85t-66 -125.5t-22.5 -152.5q0 -87 22 -158t63 -121.5t99.5 -78t131.5 -27.5q75 0 138 29t117 76v594zM763 1341
q0 -27 -9.5 -52t-26.5 -44t-42 -30t-55 -11q-29 0 -53 11t-41 30t-26.5 44t-9.5 52q0 28 9.5 53.5t26.5 45t41 30.5t53 11q30 0 55 -11t42 -30.5t26.5 -45t9.5 -53.5z" />
    <glyph glyph-name="gcommaaccent.alt" horiz-adv-x="1211" 
d="M1048 -9q0 -140 -32.5 -241.5t-95 -167t-152.5 -97t-204 -31.5q-107 0 -196.5 22.5t-170.5 64.5l48 175q73 -42 153.5 -63.5t165.5 -21.5q152 0 224 84.5t72 259.5v126q-29 -27 -61 -50.5t-68 -41.5t-77.5 -28.5t-87.5 -10.5q-111 0 -198.5 41.5t-148 115t-93 174
t-32.5 219.5q0 120 40 223t111.5 178.5t170.5 119t217 43.5q74 0 146 -12t122 -26l147 38v-1093zM860 839q-47 38 -106 59t-128 21q-80 0 -142.5 -31t-106 -85t-66 -125.5t-22.5 -152.5q0 -87 22 -158t63 -121.5t99.5 -78t131.5 -27.5q75 0 138 29t117 76v594z
M770.019 1301.99q-1.99902 -18.999 -11.499 -38.998q-9.49902 -19.999 -25.998 -36.498t-39.498 -26.498q-22.998 -9.99902 -52.9961 -9.99902q-33.998 0 -63.9961 12.999q-29.999 12.999 -51.9971 35.998q-21.999 22.998 -34.498 54.4961t-12.499 68.4961
q0 52.9971 18.499 98.9941q18.498 45.9971 51.4961 85.4941q32.998 39.498 78.4951 74.4961q45.498 34.998 99.4941 65.9961l67.9961 -58.9971q-49.9971 -32.998 -79.4951 -60.9961t-44.9971 -51.9971q-15.499 -23.998 -19.999 -44.9971t-4.5 -38.9971q0 -20.999 5 -37.498
t18.999 -31.498t38.4971 -28.998q24.499 -13.999 63.4961 -30.998z" />
    <glyph glyph-name="Jcircumflex.alt" horiz-adv-x="851" 
d="M706 406q0 -218 -102 -329t-294 -111q-78 0 -148.5 22t-122.5 53l27 186q63 -42 121.5 -62.5t117.5 -20.5q107 0 158 62t51 202v1025h192v-1027v0zM835 1575l-225 291h-2l-227 -291h-138l264 429h201l264 -429h-137z" />
    <glyph glyph-name="dot" horiz-adv-x="504" 
d="M401 523q0 -29 -10.5 -56t-29.5 -47.5t-45.5 -33t-58.5 -12.5q-33 0 -60 12.5t-47 33t-31 47.5t-11 56t11 55.5t31 46t47 31t60 11.5q32 0 58.5 -11.5t45.5 -31t29.5 -46t10.5 -55.5z" />
    <glyph glyph-name="a.smallcap" horiz-adv-x="1133" 
d="M1071 0h-184l-96 268h-452l-94 -268h-188l404 1082h215zM566 915l-172 -489h344z" />
    <glyph glyph-name="b.smallcap" horiz-adv-x="1103" 
d="M793 557q95 -26 149.5 -93t54.5 -157q0 -69 -21.5 -125.5t-69 -97t-123 -62.5t-182.5 -22h-431v1082h422q100 0 171 -21t115 -59t64.5 -91.5t20.5 -117.5q0 -83 -45 -143t-125 -93zM780 777q0 73 -51 111t-154 38h-226v-312h217q112 0 163 43.5t51 119.5zM814 312
q0 43 -16 72.5t-46 48t-73.5 27t-98.5 8.5h-231v-312h240q116 0 170.5 40.5t54.5 115.5z" />
    <glyph glyph-name="c.smallcap" horiz-adv-x="1107" 
d="M949 862q-69 42 -139.5 64.5t-151.5 22.5q-83 0 -150 -28t-114 -80t-72.5 -126.5t-25.5 -168.5q0 -95 25.5 -171.5t72.5 -130t114.5 -82.5t151.5 -29q87 0 165.5 29t135.5 72l36 -174q-33 -20 -73.5 -35.5t-85 -26.5t-91 -17t-91.5 -6q-122 0 -222 39t-171 111.5
t-109.5 177t-38.5 236.5q0 129 39 234t110 179t171.5 114.5t222.5 40.5q47 0 94.5 -6t92.5 -17t86 -27t76 -37z" />
    <glyph glyph-name="d.smallcap" horiz-adv-x="1211" 
d="M1096 548q0 -125 -38.5 -226t-113.5 -172.5t-185 -110.5t-252 -39h-337v1082h348q136 0 243 -38t181.5 -108t114 -168.5t39.5 -219.5zM913 539q0 95 -28 167t-80.5 120t-129 72t-173.5 24h-151v-762h160q90 0 164.5 24t127 71.5t81.5 118.5t29 165z" />
    <glyph glyph-name="e.smallcap" horiz-adv-x="1002" 
d="M170 0v1082h710v-160h-531v-298h442v-163h-442v-301h531v-160h-710z" />
    <glyph glyph-name="f.smallcap" horiz-adv-x="956" 
d="M170 1082h694v-163h-515v-314h426v-165h-426v-440h-179v1082z" />
    <glyph glyph-name="g.smallcap" horiz-adv-x="1199" 
d="M293 546q0 -96 27 -173t76.5 -131t118.5 -82.5t154 -28.5q64 0 120.5 13.5t100.5 36.5v227h-278v163h450v-495q-43 -26 -92.5 -45t-101 -31.5t-103 -18.5t-98.5 -6q-122 0 -223.5 39t-174.5 111.5t-113.5 177t-40.5 236.5q0 130 40.5 235t113.5 179t174.5 114t223.5 40
q49 0 100.5 -6t100.5 -18t93.5 -29t79.5 -38l-60 -163q-67 45 -147.5 70.5t-164.5 25.5t-153.5 -28t-119 -80t-76.5 -126.5t-27 -168.5z" />
    <glyph glyph-name="h.smallcap" horiz-adv-x="1250" 
d="M899 0v463h-548v-463h-181v1082h181v-456h548v456h181v-1082h-181z" />
    <glyph glyph-name="i.smallcap" horiz-adv-x="525" 
d="M172 0v1082h181v-1082h-181z" />
    <glyph glyph-name="j.smallcap" horiz-adv-x="807" 
d="M660 344q0 -84 -20 -152.5t-62 -116.5t-106.5 -74t-152.5 -26q-78 0 -144 20t-113 49l23 167q24 -15 51.5 -29.5t56 -25t56.5 -17t54 -6.5q93 0 134.5 55t41.5 167v727h181v-738v0z" />
    <glyph glyph-name="j.smallcap.alt" horiz-adv-x="747" 
d="M601 323q0 -174 -81.5 -261t-235.5 -87q-66 0 -124 17t-98 45l23 165q97 -67 186 -67q73 0 111 44.5t38 146.5v756h181v-759v0z" />
    <glyph glyph-name="k.smallcap" horiz-adv-x="1052" 
d="M353 575l429 507h222l-479 -532l484 -550h-225l-431 504h-2v-504h-181v1082h181v-507h2z" />
    <glyph glyph-name="l.smallcap" horiz-adv-x="931" 
d="M170 0v1082h181v-919h513v-163h-694z" />
    <glyph glyph-name="m.smallcap" horiz-adv-x="1449" 
d="M1128 0l-14 851l-295 -851h-191l-300 853l-12 -853h-178l34 1082h252l303 -873l302 873h248l34 -1082h-183z" />
    <glyph glyph-name="n.smallcap" horiz-adv-x="1252" 
d="M910 1082h174v-1093h-194l-551 830l5 -819h-174v1082h199l546 -818z" />
    <glyph glyph-name="o.smallcap" horiz-adv-x="1330" 
d="M1215 546q0 -124 -41 -228.5t-114.5 -180.5t-174 -119t-220.5 -43t-220.5 39t-174 112t-114.5 177.5t-41 235.5q0 123 41 227t114 180t174 118.5t221 42.5q118 0 219 -38.5t174.5 -111.5t115 -177t41.5 -234zM1032 539q0 94 -27 170t-75.5 130t-117 83.5t-152.5 29.5
q-81 0 -148 -29.5t-115 -82.5t-74.5 -128t-26.5 -166q0 -95 26.5 -171.5t75.5 -130.5t117.5 -83.5t151.5 -29.5q82 0 149 29t115 82.5t74.5 129t26.5 167.5z" />
    <glyph glyph-name="p.smallcap" horiz-adv-x="1055" 
d="M956 727q0 -95 -31 -165.5t-89.5 -118t-142 -71t-189.5 -23.5h-153v-349h-181v1082h350q111 0 193 -26.5t136 -74t80.5 -112.5t26.5 -142zM773 720q0 202 -266 202h-158v-418l167 5q257 7 257 211z" />
    <glyph glyph-name="q.smallcap" horiz-adv-x="1330" 
d="M1243 -117l-74 -154l-465 246q-9 3 -20 1.5t-19 -1.5q-120 0 -220.5 39t-174 112t-114.5 177.5t-41 235.5q0 123 41 227t114 180t174 118.5t221 42.5q118 0 219 -38.5t174.5 -111.5t115 -177t41.5 -234q0 -85 -21 -162t-59.5 -142t-92.5 -116t-120 -85zM1032 539
q0 94 -27 170t-75.5 130t-117 83.5t-152.5 29.5q-81 0 -148 -29.5t-115 -82.5t-74.5 -128t-26.5 -166q0 -95 26.5 -171.5t75.5 -130.5t117.5 -83.5t151.5 -29.5q82 0 149 29t115 82.5t74.5 129t26.5 167.5z" />
    <glyph glyph-name="r.smallcap" horiz-adv-x="1121" 
d="M351 0h-181v1082h380q101 0 179 -23t131 -66.5t80.5 -106t27.5 -141.5q0 -119 -56.5 -198t-154.5 -118l268 -429h-209l-238 390l-227 -14v-376zM534 532q66 1 113.5 15.5t78 40.5t44.5 63t14 83q0 98 -62 143t-190 45h-183v-392z" />
    <glyph glyph-name="s.smallcap" horiz-adv-x="984" 
d="M475 131q47 0 87 12t69 33t45 50.5t16 64.5q0 38 -15 64.5t-46 47t-78 37.5t-110 35q-58 15 -117 37.5t-106.5 59.5t-77.5 91.5t-30 134.5q0 70 26.5 127t75.5 97.5t118.5 62.5t155.5 22q104 0 193 -23.5t167 -70.5l-52 -155q-69 43 -150 67t-155 24q-53 0 -90.5 -11
t-62 -30.5t-36 -45.5t-11.5 -55q0 -37 17 -63t50 -46t80.5 -35.5t107.5 -31.5q59 -17 117 -41t103.5 -61.5t74 -92t28.5 -131.5q0 -72 -28.5 -133t-80.5 -104.5t-125 -68t-163 -24.5q-102 0 -200.5 27t-177.5 74l48 158q72 -45 154 -74t179 -29z" />
    <glyph glyph-name="t.smallcap" horiz-adv-x="1064" 
d="M624 919v-919h-184v919h-371v163h926v-163h-371z" />
    <glyph glyph-name="u.smallcap" horiz-adv-x="1165" 
d="M1020 424q0 -107 -28.5 -190t-84 -141t-137 -88t-188.5 -30q-103 0 -184.5 29t-137.5 84t-86 135.5t-30 182.5v676h182v-651q0 -140 63.5 -216.5t197.5 -76.5q120 0 186 69.5t66 214.5v660h181v-658v0z" />
    <glyph glyph-name="v.smallcap" horiz-adv-x="1112" 
d="M663 0h-218l-388 1082h191l307 -899l316 899h181z" />
    <glyph glyph-name="w.smallcap" horiz-adv-x="1690" 
d="M587 0h-181l-303 1082h190l211 -846l241 846h207l243 -846l210 846h182l-303 -1082h-186l-252 864z" />
    <glyph glyph-name="x.smallcap" horiz-adv-x="1103" 
d="M266 0h-209l388 541l-376 541h218l263 -406l273 406h211l-376 -529l385 -553h-218l-277 424z" />
    <glyph glyph-name="y.smallcap" horiz-adv-x="1046" 
d="M614 422v-422h-181v424l-376 658h198l270 -486l266 486h199z" />
    <glyph glyph-name="z.smallcap" horiz-adv-x="1013" 
d="M83 0v131l596 788h-587v163h811v-133l-591 -786h589v-163h-818z" />
    <glyph glyph-name="fi.smallcap" horiz-adv-x="1481" 
d="M1128 0v1082h181v-1082h-181zM170 1082h694v-163h-515v-314h426v-165h-426v-440h-179v1082z" />
    <glyph glyph-name="fl.smallcap" horiz-adv-x="1887" 
d="M1126 0v1082h181v-919h513v-163h-694zM170 1082h694v-163h-515v-314h426v-165h-426v-440h-179v1082z" />
    <glyph glyph-name="ff.smallcap" horiz-adv-x="1912" 
d="M1126 1082h694v-163h-515v-314h426v-165h-426v-440h-179v1082zM170 1082h694v-163h-515v-314h426v-165h-426v-440h-179v1082z" />
    <glyph glyph-name="ffi.smallcap" horiz-adv-x="2437" 
d="M2084 0v1082h181v-1082h-181zM1126 1082h694v-163h-515v-314h426v-165h-426v-440h-179v1082zM170 1082h694v-163h-515v-314h426v-165h-426v-440h-179v1082z" />
    <glyph glyph-name="ffl.smallcap" horiz-adv-x="2843" 
d="M2082 0v1082h181v-919h514v-163h-695zM1126 1082h694v-163h-515v-314h426v-165h-426v-440h-179v1082zM170 1082h694v-163h-515v-314h426v-165h-426v-440h-179v1082z" />
    <glyph glyph-name="germandbls.smallcap" horiz-adv-x="1967" 
d="M1463 131q47 0 87 12t69 33t45.5 50.5t16.5 64.5q0 38 -15.5 64.5t-46.5 47t-78 37.5t-110 35q-58 15 -116.5 37.5t-106 59.5t-77.5 91.5t-30 134.5q0 70 26.5 127t75.5 97.5t118.5 62.5t155.5 22q103 0 192.5 -23.5t167.5 -70.5l-53 -155q-69 43 -150 67t-155 24
q-53 0 -90.5 -11t-62 -30.5t-36 -45.5t-11.5 -55q0 -37 17 -63t50 -46t80.5 -35.5t107.5 -31.5q59 -17 117 -41t103.5 -61.5t74 -92t28.5 -131.5q0 -72 -28.5 -133t-80.5 -104.5t-125 -68t-162 -24.5q-103 0 -201 27t-178 74l48 158q73 -45 154.5 -74t178.5 -29zM479 131
q47 0 87 12t69 33t45.5 50.5t16.5 64.5q0 38 -15 64.5t-46 47t-78 37.5t-111 35q-58 15 -116.5 37.5t-106 59.5t-77.5 91.5t-30 134.5q0 70 26.5 127t75.5 97.5t118.5 62.5t155.5 22q104 0 193 -23.5t167 -70.5l-53 -155q-69 43 -149.5 67t-155.5 24q-53 0 -90.5 -11
t-61.5 -30.5t-35.5 -45.5t-11.5 -55q0 -37 17 -63t50 -46t80 -35.5t107 -31.5q59 -17 117 -41t104 -61.5t74.5 -92t28.5 -131.5q0 -72 -28.5 -133t-80.5 -104.5t-125.5 -68t-162.5 -24.5q-102 0 -200.5 27t-177.5 74l48 158q72 -45 153.5 -74t178.5 -29z" />
    <glyph glyph-name="agrave.smallcap" horiz-adv-x="1119" 
d="M1071 0h-184l-96 268h-452l-94 -268h-188l404 1082h215zM566 915l-172 -489h344zM507 1192l-335 415h229l243 -415h-137z" />
    <glyph glyph-name="aacute.smallcap" horiz-adv-x="1119" 
d="M1071 0h-184l-96 268h-452l-94 -268h-188l404 1082h215zM566 915l-172 -489h344zM612 1192h-137l243 415h229z" />
    <glyph glyph-name="acircumflex.smallcap" horiz-adv-x="1119" 
d="M1071 0h-184l-96 268h-452l-94 -268h-188l404 1082h215zM566 915l-172 -489h344zM784 1192l-225 291h-2l-227 -291h-137l263 429h202l264 -429h-138z" />
    <glyph glyph-name="atilde.smallcap" horiz-adv-x="1119" 
d="M1071 0h-184l-96 268h-452l-94 -268h-188l404 1082h215zM566 915l-172 -489h344zM949 1488q-15 -146 -66 -217.5t-156 -71.5q-53 0 -102.5 24.5t-94 54.5t-83.5 54.5t-71 24.5q-31 0 -53 -31.5t-34 -110.5h-126q15 148 66 219.5t156 71.5q53 0 102.5 -25t94 -55t83.5 -55
t71 -25q31 0 52.5 31.5t32.5 110.5h128z" />
    <glyph glyph-name="adieresis.smallcap" horiz-adv-x="1119" 
d="M1071 0h-184l-96 268h-452l-94 -268h-188l404 1082h215zM566 915l-172 -489h344zM929 1346q0 -29 -10 -55.5t-28 -46.5t-43.5 -31.5t-56.5 -11.5t-56.5 11.5t-43.5 31.5t-28 46.5t-10 55.5q0 28 10 54t28 45.5t43.5 31t56.5 11.5t56.5 -11.5t43.5 -31t28 -45.5t10 -54z
M461 1346q0 -29 -10 -55.5t-28.5 -46.5t-44.5 -31.5t-57 -11.5q-30 0 -55.5 11.5t-43.5 31.5t-28.5 46.5t-10.5 55.5q0 28 10.5 54t28.5 45.5t43.5 31t55.5 11.5q31 0 57 -11.5t44.5 -31t28.5 -45.5t10 -54z" />
    <glyph glyph-name="aring.smallcap" horiz-adv-x="1119" 
d="M426 1011q-71 29 -110 88.5t-39 134.5q0 51 19.5 96.5t55.5 79.5t88.5 53.5t118.5 19.5t118 -19.5t88 -53.5t55.5 -79.5t20.5 -96.5q2 -73 -37 -131.5t-112 -91.5l372 -1011h-184l-96 268h-452l-94 -268h-188zM725 1236q0 31 -11.5 58.5t-32.5 48t-52 32.5t-70 12
t-69.5 -12t-51.5 -32.5t-32.5 -48t-11.5 -58.5t11.5 -59t32.5 -49t51.5 -33.5t69.5 -12.5t70 12.5t52 33.5t32.5 49t11.5 59zM559 915l-172 -489h344z" />
    <glyph glyph-name="aringacute.smallcap" horiz-adv-x="1119" 
d="M426 1011q-71 29 -110 88.5t-39 134.5q0 51 19.5 96.5t55.5 79.5t88.5 53.5t118.5 19.5t118 -19.5t88 -53.5t55.5 -79.5t20.5 -96.5q2 -73 -37 -131.5t-112 -91.5l372 -1011h-184l-96 268h-452l-94 -268h-188zM725 1236q0 31 -11.5 58.5t-32.5 48t-52 32.5t-70 12
t-69.5 -12t-51.5 -32.5t-32.5 -48t-11.5 -58.5t11.5 -59t32.5 -49t51.5 -33.5t69.5 -12.5t70 12.5t52 33.5t32.5 49t11.5 59zM559 915l-172 -489h344zM543 1536h-137l243 415h229z" />
    <glyph glyph-name="amacron.smallcap" horiz-adv-x="1133" 
d="M1071 0h-184l-96 268h-452l-94 -268h-188l404 1082h215zM566 915l-172 -489h344zM252 1234l9 121h610l12 -121h-631z" />
    <glyph glyph-name="abreve.smallcap" horiz-adv-x="1133" 
d="M1071 0h-184l-96 268h-452l-94 -268h-188l404 1082h215zM566 915l-172 -489h344zM933 1619q-12 -91 -39.5 -169.5t-72.5 -136t-108 -90.5t-147 -33q-83 0 -146 33t-108 90.5t-73 136t-40 169.5h154q10 -57 28 -108t44 -89t61 -60.5t80 -22.5q46 0 81.5 22.5t61.5 60.5
t43.5 89t27.5 108h153z" />
    <glyph glyph-name="aogonek.smallcap" horiz-adv-x="1133" 
d="M1071 0q-40 -17 -72.5 -41.5t-56 -54t-36 -61t-12.5 -61.5q0 -52 26.5 -82t76.5 -30q32 0 63 10t54 27l42 -143q-37 -26 -87.5 -44t-119.5 -18q-53 0 -98 15.5t-77 44t-50 69.5t-18 92q0 45 14 85t38 75t57 64.5t72 52.5l-96 268h-452l-94 -268h-188l404 1082h215z
M566 915l-172 -489h344z" />
    <glyph glyph-name="ae.smallcap" horiz-adv-x="1587" 
d="M250 0h-200l594 1082h821v-160h-534v-298h445v-163h-445v-301h534v-160h-713v268h-358zM752 429v504l-275 -504h275z" />
    <glyph glyph-name="aeacute.smallcap" horiz-adv-x="1587" 
d="M250 0h-200l594 1082h821v-160h-534v-298h445v-163h-445v-301h534v-160h-713v268h-358zM752 429v504l-275 -504h275zM945 1192h-138l243 415h229z" />
    <glyph glyph-name="ccedilla.smallcap" horiz-adv-x="1123" 
d="M571 -21q-104 13 -188.5 57.5t-144 116t-91.5 169t-32 217.5q0 129 39 234t110 179t171.5 114.5t222.5 40.5q47 0 94.5 -6t92.5 -17t86 -27t76 -37l-58 -158q-69 42 -139.5 64.5t-151.5 22.5q-83 0 -150 -28t-114 -80t-72.5 -126.5t-25.5 -168.5q0 -95 25.5 -171.5
t72.5 -130t114.5 -82.5t151.5 -29q87 0 165.5 29t135.5 72l36 -174q-59 -35 -136.5 -56.5t-158.5 -26.5l-136 -133q135 0 208.5 -50.5t73.5 -137.5q0 -48 -21 -89t-66 -73.5t-116.5 -55.5t-172.5 -36l-13 119q127 7 185 40.5t58 83.5q0 53 -66.5 76.5t-209.5 1.5l-18 96
l163 160v0z" />
    <glyph glyph-name="cacute.smallcap" horiz-adv-x="1107" 
d="M949 862q-69 42 -139.5 64.5t-151.5 22.5q-83 0 -150 -28t-114 -80t-72.5 -126.5t-25.5 -168.5q0 -95 25.5 -171.5t72.5 -130t114.5 -82.5t151.5 -29q87 0 165.5 29t135.5 72l36 -174q-33 -20 -73.5 -35.5t-85 -26.5t-91 -17t-91.5 -6q-122 0 -222 39t-171 111.5
t-109.5 177t-38.5 236.5q0 129 39 234t110 179t171.5 114.5t222.5 40.5q47 0 94.5 -6t92.5 -17t86 -27t76 -37zM635 1192h-137l243 415h229z" />
    <glyph glyph-name="ccircumflex.smallcap" horiz-adv-x="1107" 
d="M949 862q-69 42 -139.5 64.5t-151.5 22.5q-83 0 -150 -28t-114 -80t-72.5 -126.5t-25.5 -168.5q0 -95 25.5 -171.5t72.5 -130t114.5 -82.5t151.5 -29q87 0 165.5 29t135.5 72l36 -174q-33 -20 -73.5 -35.5t-85 -26.5t-91 -17t-91.5 -6q-122 0 -222 39t-171 111.5
t-109.5 177t-38.5 236.5q0 129 39 234t110 179t171.5 114.5t222.5 40.5q47 0 94.5 -6t92.5 -17t86 -27t76 -37zM860 1192l-225 291h-2l-227 -291h-138l264 429h202l263 -429h-137z" />
    <glyph glyph-name="cdotaccent.smallcap" horiz-adv-x="1107" 
d="M949 862q-69 42 -139.5 64.5t-151.5 22.5q-83 0 -150 -28t-114 -80t-72.5 -126.5t-25.5 -168.5q0 -95 25.5 -171.5t72.5 -130t114.5 -82.5t151.5 -29q87 0 165.5 29t135.5 72l36 -174q-33 -20 -73.5 -35.5t-85 -26.5t-91 -17t-91.5 -6q-122 0 -222 39t-171 111.5
t-109.5 177t-38.5 236.5q0 129 39 234t110 179t171.5 114.5t222.5 40.5q47 0 94.5 -6t92.5 -17t86 -27t76 -37zM768 1341q0 -27 -9.5 -52t-27 -44t-42 -30t-54.5 -11q-29 0 -53.5 11t-41.5 30t-26.5 44t-9.5 52q0 28 9.5 53.5t26.5 45t41.5 30.5t53.5 11q30 0 54.5 -11
t42 -30.5t27 -45t9.5 -53.5z" />
    <glyph glyph-name="ccaron.smallcap" horiz-adv-x="1107" 
d="M949 862q-69 42 -139.5 64.5t-151.5 22.5q-83 0 -150 -28t-114 -80t-72.5 -126.5t-25.5 -168.5q0 -95 25.5 -171.5t72.5 -130t114.5 -82.5t151.5 -29q87 0 165.5 29t135.5 72l36 -174q-33 -20 -73.5 -35.5t-85 -26.5t-91 -17t-91.5 -6q-122 0 -222 39t-171 111.5
t-109.5 177t-38.5 236.5q0 129 39 234t110 179t171.5 114.5t222.5 40.5q47 0 94.5 -6t92.5 -17t86 -27t76 -37zM752 1192h-202l-263 429h137l225 -291h2l227 291h138z" />
    <glyph glyph-name="dcaron.smallcap" horiz-adv-x="1211" 
d="M635 1192h-202l-263 429h137l225 -291h2l227 291h138zM1096 548q0 -125 -38.5 -226t-113.5 -172.5t-185 -110.5t-252 -39h-337v1082h348q136 0 243 -38t181.5 -108t114 -168.5t39.5 -219.5zM913 539q0 95 -28 167t-80.5 120t-129 72t-173.5 24h-151v-762h160
q90 0 164.5 24t127 71.5t81.5 118.5t29 165z" />
    <glyph glyph-name="eth.smallcap" horiz-adv-x="1300" 
d="M1185 548q0 -125 -39 -226t-114 -172.5t-184.5 -110.5t-251.5 -39h-339v463h-179v165h179v454h348q137 0 244.5 -38t182 -108t114 -168.5t39.5 -219.5zM1002 539q0 95 -27.5 167t-80.5 120t-130 72t-175 24h-151v-294h298v-165h-298v-303h160q91 0 165.5 24t127.5 71.5
t82 118.5t29 165z" />
    <glyph glyph-name="dcroat.smallcap" horiz-adv-x="1300" 
d="M1185 548q0 -125 -39 -226t-114 -172.5t-184.5 -110.5t-251.5 -39h-339v463h-179v165h179v454h348q137 0 244.5 -38t182 -108t114 -168.5t39.5 -219.5zM1002 539q0 95 -27.5 167t-80.5 120t-130 72t-175 24h-151v-294h298v-165h-298v-303h160q91 0 165.5 24t127.5 71.5
t82 118.5t29 165z" />
    <glyph glyph-name="egrave.smallcap" horiz-adv-x="1002" 
d="M170 0v1082h710v-160h-531v-298h442v-163h-442v-301h531v-160h-710zM472 1192l-334 415h229l243 -415h-138z" />
    <glyph glyph-name="eacute.smallcap" horiz-adv-x="1002" 
d="M170 0v1082h710v-160h-531v-298h442v-163h-442v-301h531v-160h-710zM578 1192h-138l243 415h230z" />
    <glyph glyph-name="ecircumflex.smallcap" horiz-adv-x="1002" 
d="M170 0v1082h710v-160h-531v-298h442v-163h-442v-301h531v-160h-710zM752 1192l-225 291h-2l-227 -291h-138l264 429h202l264 -429h-138z" />
    <glyph glyph-name="edieresis.smallcap" horiz-adv-x="1002" 
d="M170 0v1082h710v-160h-531v-298h442v-163h-442v-301h531v-160h-710zM903 1346q0 -29 -10 -55.5t-28 -46.5t-43 -31.5t-56 -11.5t-56.5 11.5t-43.5 31.5t-28 46.5t-10 55.5q0 28 10 54t28 45.5t43.5 31t56.5 11.5t56 -11.5t43 -31t28 -45.5t10 -54zM436 1346
q0 -29 -10.5 -55.5t-29 -46.5t-44 -31.5t-56.5 -11.5q-30 0 -55.5 11.5t-43.5 31.5t-28.5 46.5t-10.5 55.5q0 28 10.5 54t28.5 45.5t43.5 31t55.5 11.5q31 0 56.5 -11.5t44 -31t29 -45.5t10.5 -54z" />
    <glyph glyph-name="emacron.smallcap" horiz-adv-x="1002" 
d="M170 0v1082h710v-160h-531v-298h442v-163h-442v-301h531v-160h-710zM211 1234l9 121h610l11 -121h-630z" />
    <glyph glyph-name="ebreve.smallcap" horiz-adv-x="1002" 
d="M170 0v1082h710v-160h-531v-298h442v-163h-442v-301h531v-160h-710zM901 1619q-12 -91 -39.5 -169.5t-72.5 -136t-108 -90.5t-147 -33q-83 0 -146.5 33t-108.5 90.5t-72.5 136t-39.5 169.5h154q10 -57 28 -108t44 -89t61 -60.5t80 -22.5q46 0 81.5 22.5t61.5 60.5
t43.5 89t26.5 108h154z" />
    <glyph glyph-name="edotaccent.smallcap" horiz-adv-x="1002" 
d="M170 0v1082h710v-160h-531v-298h442v-163h-442v-301h531v-160h-710zM674 1341q0 -27 -9.5 -52t-27 -44t-42 -30t-54.5 -11q-29 0 -53.5 11t-41.5 30t-26.5 44t-9.5 52q0 28 9.5 53.5t26.5 45t41.5 30.5t53.5 11q30 0 54.5 -11t42 -30.5t27 -45t9.5 -53.5z" />
    <glyph glyph-name="eogonek.smallcap" horiz-adv-x="1002" 
d="M791 0q-81 -57 -124 -114.5t-43 -126.5q0 -52 26 -82t77 -30q31 0 62.5 10t54.5 27l41 -143q-36 -26 -86.5 -43.5t-119.5 -17.5q-53 0 -98 15t-77 43.5t-50 69.5t-18 92t18 95.5t48.5 82.5t71.5 68.5t86 53.5h-490v1082h710v-160h-531v-298h442v-163h-442v-301h531v-160
h-89z" />
    <glyph glyph-name="ecaron.smallcap" horiz-adv-x="1002" 
d="M170 0v1082h710v-160h-531v-298h442v-163h-442v-301h531v-160h-710zM644 1192h-201l-264 429h137l225 -291h2l227 291h138z" />
    <glyph glyph-name="gcircumflex.smallcap" horiz-adv-x="1199" 
d="M293 546q0 -96 27 -173t76.5 -131t118.5 -82.5t154 -28.5q64 0 120.5 13.5t100.5 36.5v227h-278v163h450v-495q-43 -26 -92.5 -45t-101 -31.5t-103 -18.5t-98.5 -6q-122 0 -223.5 39t-174.5 111.5t-113.5 177t-40.5 236.5q0 130 40.5 235t113.5 179t174.5 114t223.5 40
q49 0 100.5 -6t100.5 -18t93.5 -29t79.5 -38l-60 -163q-67 45 -147.5 70.5t-164.5 25.5t-153.5 -28t-119 -80t-76.5 -126.5t-27 -168.5zM855 1192l-224 291h-3l-227 -291h-137l263 429h202l264 -429h-138z" />
    <glyph glyph-name="gbreve.smallcap" horiz-adv-x="1199" 
d="M293 546q0 -96 27 -173t76.5 -131t118.5 -82.5t154 -28.5q64 0 120.5 13.5t100.5 36.5v227h-278v163h450v-495q-43 -26 -92.5 -45t-101 -31.5t-103 -18.5t-98.5 -6q-122 0 -223.5 39t-174.5 111.5t-113.5 177t-40.5 236.5q0 130 40.5 235t113.5 179t174.5 114t223.5 40
q49 0 100.5 -6t100.5 -18t93.5 -29t79.5 -38l-60 -163q-67 45 -147.5 70.5t-164.5 25.5t-153.5 -28t-119 -80t-76.5 -126.5t-27 -168.5zM995 1619q-12 -91 -39.5 -169.5t-72.5 -136t-108 -90.5t-147 -33q-83 0 -146.5 33t-108.5 90.5t-72.5 136t-39.5 169.5h154
q10 -57 28 -108t44 -89t61 -60.5t80 -22.5q46 0 81.5 22.5t61.5 60.5t43.5 89t26.5 108h154z" />
    <glyph glyph-name="gdotaccent.smallcap" horiz-adv-x="1199" 
d="M293 546q0 -96 27 -173t76.5 -131t118.5 -82.5t154 -28.5q64 0 120.5 13.5t100.5 36.5v227h-278v163h450v-495q-43 -26 -92.5 -45t-101 -31.5t-103 -18.5t-98.5 -6q-122 0 -223.5 39t-174.5 111.5t-113.5 177t-40.5 236.5q0 130 40.5 235t113.5 179t174.5 114t223.5 40
q49 0 100.5 -6t100.5 -18t93.5 -29t79.5 -38l-60 -163q-67 45 -147.5 70.5t-164.5 25.5t-153.5 -28t-119 -80t-76.5 -126.5t-27 -168.5zM759 1341q0 -27 -9.5 -52t-27 -44t-42 -30t-54.5 -11q-29 0 -53.5 11t-41.5 30t-26.5 44t-9.5 52q0 28 9.5 53.5t26.5 45t41.5 30.5
t53.5 11q30 0 54.5 -11t42 -30.5t27 -45t9.5 -53.5z" />
    <glyph glyph-name="gcommaaccent.smallcap" horiz-adv-x="1199" 
d="M293 546q0 -96 27 -173t76.5 -131t118.5 -82.5t154 -28.5q64 0 120.5 13.5t100.5 36.5v227h-278v163h450v-495q-43 -26 -92.5 -45t-101 -31.5t-103 -18.5t-98.5 -6q-122 0 -223.5 39t-174.5 111.5t-113.5 177t-40.5 236.5q0 130 40.5 235t113.5 179t174.5 114t223.5 40
q49 0 100.5 -6t100.5 -18t93.5 -29t79.5 -38l-60 -163q-67 45 -147.5 70.5t-164.5 25.5t-153.5 -28t-119 -80t-76.5 -126.5t-27 -168.5zM486 -232q3 20 12.5 40t26 36.5t39.5 26.5t53 10q34 0 64 -13t52 -36t34.5 -54.5t12.5 -68.5q0 -53 -19 -99t-52 -85.5t-78.5 -74.5
t-98.5 -67l-69 60q50 33 79.5 61t45 52t20 45t4.5 39q0 21 -5 37.5t-19 31t-38.5 29t-63.5 30.5z" />
    <glyph glyph-name="hcircumflex.smallcap" horiz-adv-x="1250" 
d="M899 0v463h-548v-463h-181v1082h181v-456h548v456h181v-1082h-181zM858 1197l-225 291h-2l-227 -291h-138l264 429h201l264 -429h-137z" />
    <glyph glyph-name="hbar.smallcap" horiz-adv-x="1250" 
d="M899 0v463h-548v-463h-181v777h-175l10 122h165v183h181v-183h548v183h181v-183h160l12 -122h-172v-777h-181zM899 626v151h-548v-151h548z" />
    <glyph glyph-name="igrave.smallcap" horiz-adv-x="525" 
d="M172 0v1082h181v-1082h-181zM225 1192l-335 415h229l243 -415h-137z" />
    <glyph glyph-name="iacute.smallcap" horiz-adv-x="525" 
d="M172 0v1082h181v-1082h-181zM305 1192h-138l243 415h230z" />
    <glyph glyph-name="icircumflex.smallcap" horiz-adv-x="525" 
d="M172 0v1082h181v-1082h-181zM488 1192l-224 291h-3l-227 -291h-137l263 429h202l264 -429h-138z" />
    <glyph glyph-name="idieresis.smallcap" horiz-adv-x="525" 
d="M172 0v1082h181v-1082h-181zM633 1346q0 -29 -10 -55.5t-28 -46.5t-43.5 -31.5t-56.5 -11.5t-56 11.5t-43 31.5t-28 46.5t-10 55.5q0 28 10 54t28 45.5t43 31t56 11.5t56.5 -11.5t43.5 -31t28 -45.5t10 -54zM165 1346q0 -29 -10 -55.5t-28.5 -46.5t-44.5 -31.5t-57 -11.5
q-30 0 -55 11.5t-43.5 31.5t-28.5 46.5t-10 55.5q0 28 10 54t28.5 45.5t43.5 31t55 11.5q31 0 57 -11.5t44.5 -31t28.5 -45.5t10 -54z" />
    <glyph glyph-name="imacron.smallcap" horiz-adv-x="525" 
d="M172 0v1082h181v-1082h-181zM-48 1234l9 121h610l11 -121h-630z" />
    <glyph glyph-name="ibreve.smallcap" horiz-adv-x="525" 
d="M172 0v1082h181v-1082h-181zM635 1619q-12 -91 -39.5 -169.5t-72.5 -136t-108 -90.5t-147 -33q-83 0 -146 33t-108 90.5t-73 136t-40 169.5h154q10 -57 28 -108t44 -89t61 -60.5t80 -22.5q46 0 81.5 22.5t61.5 60.5t43.5 89t26.5 108h154z" />
    <glyph glyph-name="iogonek.smallcap" horiz-adv-x="525" 
d="M353 0q-66 -52 -101.5 -105t-35.5 -113q0 -52 26 -82t77 -30q31 0 62.5 10t54.5 27l41 -143q-36 -26 -86.5 -44t-119.5 -18q-54 0 -98.5 15.5t-76.5 44t-50 69.5t-18 92q0 45 14 85.5t38.5 75t57.5 64t71 52.5h-37v1082h181v-1082v0z" />
    <glyph glyph-name="idotaccent.smallcap" horiz-adv-x="525" 
d="M172 0v1082h181v-1082h-181zM399 1373q0 -27 -9.5 -52t-26.5 -44t-42 -30t-55 -11q-29 0 -53 11t-41 30t-26.5 44t-9.5 52q0 28 9.5 53.5t26.5 45t41 30.5t53 11q30 0 55 -11t42 -30.5t26.5 -45t9.5 -53.5z" />
    <glyph glyph-name="dotlessi.smallcap" horiz-adv-x="525" 
d="M172 0v1082h181v-1082h-181z" />
    <glyph glyph-name="jcircumflex.smallcap" horiz-adv-x="807" 
d="M660 344q0 -84 -20 -152.5t-62 -116.5t-106.5 -74t-152.5 -26q-78 0 -144 20t-113 49l23 167q24 -15 51.5 -29.5t56 -25t56.5 -17t54 -6.5q93 0 134.5 55t41.5 167v727h181v-738zM800 1190l-225 291h-2l-227 -291h-137l263 429h202l264 -429h-138z" />
    <glyph glyph-name="jcircumflex.smallcap.alt" horiz-adv-x="807" 
d="M660 344q0 -84 -20 -152.5t-62 -116.5t-106.5 -74t-152.5 -26q-78 0 -144 20t-113 49l23 167q24 -15 51.5 -29.5t56 -25t56.5 -17t54 -6.5q93 0 134.5 55t41.5 167v727h181v-738zM800 1190l-225 291h-2l-227 -291h-137l263 429h202l264 -429h-138z" />
    <glyph glyph-name="dotlessj.smallcap" horiz-adv-x="807" 
d="M660 344q0 -84 -20 -152.5t-62 -116.5t-106.5 -74t-152.5 -26q-78 0 -144 20t-113 49l23 167q24 -15 51.5 -29.5t56 -25t56.5 -17t54 -6.5q93 0 134.5 55t41.5 167v727h181v-738v0z" />
    <glyph glyph-name="kcommaaccent.smallcap" horiz-adv-x="1052" 
d="M353 575l429 507h222l-479 -532l484 -550h-225l-431 504h-2v-504h-181v1082h181v-507h2zM369 -229q3 19 12.5 39t26 36.5t39.5 26.5t53 10q34 0 64 -13t52 -36t34.5 -54.5t12.5 -68.5q0 -53 -19 -99t-52 -85.5t-78.5 -74.5t-98.5 -66l-69 59q50 33 79.5 61t45 52t20 45
t4.5 39q0 21 -5 37.5t-19 31.5t-38.5 29t-63.5 31z" />
    <glyph glyph-name="lacute.smallcap" horiz-adv-x="931" 
d="M170 0v1082h181v-919h513v-163h-694zM310 1188h-138l243 415h229z" />
    <glyph glyph-name="lcommaaccent.smallcap" horiz-adv-x="931" 
d="M170 0v1082h181v-919h513v-163h-694zM371 -229q3 19 12.5 39t26 36.5t39.5 26.5t53 10q34 0 64 -13t52 -36t34.5 -54.5t12.5 -68.5q0 -53 -19 -99t-52 -85.5t-78.5 -74.5t-98.5 -66l-68 59q49 33 78.5 61t45.5 52t20.5 45t4.5 39q0 21 -5 37.5t-19.5 31.5t-39 29
t-63.5 31z" />
    <glyph glyph-name="lcaron.smallcap" horiz-adv-x="1435" 
d="M170 0v1082h181v-919h513v-163h-694zM1004 974q3 28 14.5 52.5t31 43t47 29.5t63.5 11q35 0 70 -15.5t62.5 -43.5t45 -66t17.5 -84q0 -71 -29 -134t-77 -118.5t-109 -104t-124 -90.5l-81 78q120 87 177 159t57 132q0 21 -8.5 39.5t-27.5 36t-51 36t-78 39.5z" />
    <glyph glyph-name="ldotaccent.smallcap" horiz-adv-x="1328" 
d="M1293 553q0 -29 -10.5 -56t-29.5 -47.5t-45.5 -33t-58.5 -12.5q-33 0 -60 12.5t-47 33t-31 47.5t-11 56t11 55.5t31 46t47 31t60 11.5q32 0 58.5 -11.5t45.5 -31t29.5 -46t10.5 -55.5zM170 0v1082h181v-919h513v-163h-694z" />
    <glyph glyph-name="lslash.smallcap" horiz-adv-x="977" 
d="M397 163h513v-163h-694v399l-7.5 -1.5t-20 -4.5t-28.5 -7.5t-32 -8.5q-39 -11 -87 -24v167q48 13 87 24q16 4 32 8.5t28.5 7.5t20 4.5l7.5 1.5v516h181v-465l270 73v-167l-270 -74v-286z" />
    <glyph glyph-name="ntilde.smallcap" horiz-adv-x="1252" 
d="M910 1082h174v-1093h-194l-551 830l5 -819h-174v1082h199l546 -818zM1016 1488q-16 -146 -67 -217.5t-156 -71.5q-53 0 -102.5 24.5t-94 54.5t-83.5 54.5t-70 24.5q-32 0 -54 -31.5t-34 -110.5h-126q8 74 24 128.5t43 90.5t65 54t91 18t102.5 -25t94 -55t83 -55t70.5 -25
t53.5 31.5t31.5 110.5h129z" />
    <glyph glyph-name="nacute.smallcap" horiz-adv-x="1252" 
d="M910 1082h174v-1093h-194l-551 830l5 -819h-174v1082h199l546 -818zM663 1192h-138l243 415h229z" />
    <glyph glyph-name="ncommaaccent.smallcap" horiz-adv-x="1252" 
d="M910 1082h174v-1093h-194l-551 830l5 -819h-174v1082h199l546 -818zM445 -229q3 19 12 39t25.5 36.5t39.5 26.5t53 10q34 0 64 -13t52 -36t34.5 -54.5t12.5 -68.5q0 -53 -18.5 -99t-51.5 -85.5t-78.5 -74.5t-98.5 -66l-69 59q50 33 79.5 61t45 52t20 45t4.5 39
q0 21 -5 37.5t-19 31.5t-38.5 29t-63.5 31z" />
    <glyph glyph-name="ncaron.smallcap" horiz-adv-x="1252" 
d="M910 1082h174v-1093h-194l-551 830l5 -819h-174v1082h199l546 -818zM759 1192h-202l-264 429h138l225 -291h2l227 291h138z" />
    <glyph glyph-name="ograve.smallcap" horiz-adv-x="1330" 
d="M1215 546q0 -124 -41 -228.5t-114.5 -180.5t-174 -119t-220.5 -43t-220.5 39t-174 112t-114.5 177.5t-41 235.5q0 123 41 227t114 180t174 118.5t221 42.5q118 0 219 -38.5t174.5 -111.5t115 -177t41.5 -234zM1032 539q0 94 -27 170t-75.5 130t-117 83.5t-152.5 29.5
q-81 0 -148 -29.5t-115 -82.5t-74.5 -128t-26.5 -166q0 -95 26.5 -171.5t75.5 -130.5t117.5 -83.5t151.5 -29.5q82 0 149 29t115 82.5t74.5 129t26.5 167.5zM633 1192l-335 415h229l243 -415h-137z" />
    <glyph glyph-name="oacute.smallcap" horiz-adv-x="1330" 
d="M1215 546q0 -124 -41 -228.5t-114.5 -180.5t-174 -119t-220.5 -43t-220.5 39t-174 112t-114.5 177.5t-41 235.5q0 123 41 227t114 180t174 118.5t221 42.5q118 0 219 -38.5t174.5 -111.5t115 -177t41.5 -234zM1032 539q0 94 -27 170t-75.5 130t-117 83.5t-152.5 29.5
q-81 0 -148 -29.5t-115 -82.5t-74.5 -128t-26.5 -166q0 -95 26.5 -171.5t75.5 -130.5t117.5 -83.5t151.5 -29.5q82 0 149 29t115 82.5t74.5 129t26.5 167.5zM697 1192h-138l243 415h230z" />
    <glyph glyph-name="ocircumflex.smallcap" horiz-adv-x="1330" 
d="M1215 546q0 -124 -41 -228.5t-114.5 -180.5t-174 -119t-220.5 -43t-220.5 39t-174 112t-114.5 177.5t-41 235.5q0 123 41 227t114 180t174 118.5t221 42.5q118 0 219 -38.5t174.5 -111.5t115 -177t41.5 -234zM1032 539q0 94 -27 170t-75.5 130t-117 83.5t-152.5 29.5
q-81 0 -148 -29.5t-115 -82.5t-74.5 -128t-26.5 -166q0 -95 26.5 -171.5t75.5 -130.5t117.5 -83.5t151.5 -29.5q82 0 149 29t115 82.5t74.5 129t26.5 167.5zM892 1192l-225 291h-2l-227 -291h-138l264 429h202l263 -429h-137z" />
    <glyph glyph-name="otilde.smallcap" horiz-adv-x="1330" 
d="M1215 546q0 -124 -41 -228.5t-114.5 -180.5t-174 -119t-220.5 -43t-220.5 39t-174 112t-114.5 177.5t-41 235.5q0 123 41 227t114 180t174 118.5t221 42.5q118 0 219 -38.5t174.5 -111.5t115 -177t41.5 -234zM1032 539q0 94 -27 170t-75.5 130t-117 83.5t-152.5 29.5
q-81 0 -148 -29.5t-115 -82.5t-74.5 -128t-26.5 -166q0 -95 26.5 -171.5t75.5 -130.5t117.5 -83.5t151.5 -29.5q82 0 149 29t115 82.5t74.5 129t26.5 167.5zM1057 1488q-16 -146 -67 -217.5t-155 -71.5q-54 0 -103.5 24.5t-94 54.5t-83 54.5t-70.5 24.5q-31 0 -53 -31.5
t-34 -110.5h-126q15 148 66 219.5t156 71.5q53 0 102.5 -25t94 -55t83.5 -55t71 -25q31 0 52.5 31.5t32.5 110.5h128z" />
    <glyph glyph-name="odieresis.smallcap" horiz-adv-x="1330" 
d="M1215 546q0 -124 -41 -228.5t-114.5 -180.5t-174 -119t-220.5 -43t-220.5 39t-174 112t-114.5 177.5t-41 235.5q0 123 41 227t114 180t174 118.5t221 42.5q118 0 219 -38.5t174.5 -111.5t115 -177t41.5 -234zM1032 539q0 94 -27 170t-75.5 130t-117 83.5t-152.5 29.5
q-81 0 -148 -29.5t-115 -82.5t-74.5 -128t-26.5 -166q0 -95 26.5 -171.5t75.5 -130.5t117.5 -83.5t151.5 -29.5q82 0 149 29t115 82.5t74.5 129t26.5 167.5zM1036 1346q0 -29 -10 -55.5t-28 -46.5t-43 -31.5t-56 -11.5t-56.5 11.5t-43.5 31.5t-28 46.5t-10 55.5q0 28 10 54
t28 45.5t43.5 31t56.5 11.5t56 -11.5t43 -31t28 -45.5t10 -54zM569 1346q0 -29 -10.5 -55.5t-29 -46.5t-44 -31.5t-56.5 -11.5q-30 0 -55.5 11.5t-43.5 31.5t-28.5 46.5t-10.5 55.5q0 28 10.5 54t28.5 45.5t43.5 31t55.5 11.5q31 0 56.5 -11.5t44 -31t29 -45.5t10.5 -54z
" />
    <glyph glyph-name="omacron.smallcap" horiz-adv-x="1330" 
d="M1215 546q0 -124 -41 -228.5t-114.5 -180.5t-174 -119t-220.5 -43t-220.5 39t-174 112t-114.5 177.5t-41 235.5q0 123 41 227t114 180t174 118.5t221 42.5q118 0 219 -38.5t174.5 -111.5t115 -177t41.5 -234zM1032 539q0 94 -27 170t-75.5 130t-117 83.5t-152.5 29.5
q-81 0 -148 -29.5t-115 -82.5t-74.5 -128t-26.5 -166q0 -95 26.5 -171.5t75.5 -130.5t117.5 -83.5t151.5 -29.5q82 0 149 29t115 82.5t74.5 129t26.5 167.5zM349 1234l9 121h610l11 -121h-630z" />
    <glyph glyph-name="obreve.smallcap" horiz-adv-x="1330" 
d="M1215 546q0 -124 -41 -228.5t-114.5 -180.5t-174 -119t-220.5 -43t-220.5 39t-174 112t-114.5 177.5t-41 235.5q0 123 41 227t114 180t174 118.5t221 42.5q118 0 219 -38.5t174.5 -111.5t115 -177t41.5 -234zM1032 539q0 94 -27 170t-75.5 130t-117 83.5t-152.5 29.5
q-81 0 -148 -29.5t-115 -82.5t-74.5 -128t-26.5 -166q0 -95 26.5 -171.5t75.5 -130.5t117.5 -83.5t151.5 -29.5q82 0 149 29t115 82.5t74.5 129t26.5 167.5zM1057 1619q-12 -91 -39.5 -169.5t-72.5 -136t-108 -90.5t-147 -33q-83 0 -146.5 33t-108.5 90.5t-72.5 136
t-39.5 169.5h154q10 -57 27.5 -108t43.5 -89t61.5 -60.5t80.5 -22.5q46 0 81.5 22.5t61.5 60.5t43.5 89t26.5 108h154z" />
    <glyph glyph-name="ohungarumlaut.smallcap" horiz-adv-x="1330" 
d="M1215 546q0 -124 -41 -228.5t-114.5 -180.5t-174 -119t-220.5 -43t-220.5 39t-174 112t-114.5 177.5t-41 235.5q0 123 41 227t114 180t174 118.5t221 42.5q118 0 219 -38.5t174.5 -111.5t115 -177t41.5 -234zM1032 539q0 94 -27 170t-75.5 130t-117 83.5t-152.5 29.5
q-81 0 -148 -29.5t-115 -82.5t-74.5 -128t-26.5 -166q0 -95 26.5 -171.5t75.5 -130.5t117.5 -83.5t151.5 -29.5q82 0 149 29t115 82.5t74.5 129t26.5 167.5zM894 1192h-163l308 406h192zM520 1192h-160l254 406h191z" />
    <glyph glyph-name="oslash.smallcap" horiz-adv-x="1330" 
d="M509 163q70 -32 158 -32q82 0 149 29t115 82.5t74.5 129t26.5 167.5q0 102 -31.5 182.5t-90.5 136.5zM821 919q-36 16 -76 24.5t-85 8.5q-81 0 -148 -29.5t-115 -82.5t-74.5 -128t-26.5 -166q0 -104 31 -185t90 -136zM330 76q-100 71 -157.5 188t-57.5 275q0 123 41 227
t114 180t174 118.5t221 42.5q66 0 125 -11.5t113 -33.5l37 64h126l-69 -117q103 -71 160.5 -188.5t57.5 -274.5q0 -124 -41 -228.5t-114.5 -180.5t-174 -119t-220.5 -43q-129 0 -239 46l-36 -65h-129z" />
    <glyph glyph-name="oslashacute.smallcap" horiz-adv-x="1330" 
d="M509 163q70 -32 158 -32q82 0 149 29t115 82.5t74.5 129t26.5 167.5q0 102 -31.5 182.5t-90.5 136.5zM821 919q-36 16 -76 24.5t-85 8.5q-81 0 -148 -29.5t-115 -82.5t-74.5 -128t-26.5 -166q0 -104 31 -185t90 -136zM330 76q-100 71 -157.5 188t-57.5 275q0 123 41 227
t114 180t174 118.5t221 42.5q66 0 125 -11.5t113 -33.5l37 64h126l-69 -117q103 -71 160.5 -188.5t57.5 -274.5q0 -124 -41 -228.5t-114.5 -180.5t-174 -119t-220.5 -43q-129 0 -239 46l-36 -65h-129zM688 1190h-138l243 415h230z" />
    <glyph glyph-name="oe.smallcap" horiz-adv-x="1699" 
d="M1577 922h-534v-298h445v-163h-445v-301h534v-160h-882q-137 0 -244.5 38t-182 108t-114 168.5t-39.5 219.5q0 125 38 226t112.5 172.5t184 110.5t252.5 39h875v-160zM298 543q0 -95 27.5 -167t80 -120t129 -72t173.5 -24h154v762h-160q-90 0 -164.5 -24t-128 -71.5
t-82.5 -118.5t-29 -165z" />
    <glyph glyph-name="thorn.smallcap" horiz-adv-x="1055" 
d="M956 546q0 -94 -31 -165t-89.5 -118.5t-142 -71.5t-189.5 -24h-153v-167h-181v1082h181v-181h169q111 0 193 -26t136 -73.5t80.5 -112.5t26.5 -143zM773 539q0 202 -266 202h-158v-418l167 5q130 3 193.5 57t63.5 154z" />
    <glyph glyph-name="racute.smallcap" horiz-adv-x="1121" 
d="M351 0h-181v1082h380q101 0 179 -23t131 -66.5t80.5 -106t27.5 -141.5q0 -119 -56.5 -198t-154.5 -118l268 -429h-209l-238 390l-227 -14v-376zM534 532q66 1 113.5 15.5t78 40.5t44.5 63t14 83q0 98 -62 143t-190 45h-183v-392zM525 1192h-138l244 415h229z" />
    <glyph glyph-name="rcommaaccent.smallcap" horiz-adv-x="1121" 
d="M351 0h-181v1082h380q101 0 179 -23t131 -66.5t80.5 -106t27.5 -141.5q0 -119 -56.5 -198t-154.5 -118l268 -429h-209l-238 390l-227 -14v-376zM534 532q66 1 113.5 15.5t78 40.5t44.5 63t14 83q0 98 -62 143t-190 45h-183v-392zM397 -229q3 19 12 39t25.5 36.5
t39.5 26.5t53 10q34 0 64 -13t52 -36t34.5 -54.5t12.5 -68.5q0 -53 -18.5 -99t-51.5 -85.5t-78.5 -74.5t-98.5 -66l-69 59q50 33 79.5 61t45 52t20 45t4.5 39q0 21 -5 37.5t-19 31.5t-38.5 29t-63.5 31z" />
    <glyph glyph-name="rcaron.smallcap" horiz-adv-x="1121" 
d="M351 0h-181v1082h380q101 0 179 -23t131 -66.5t80.5 -106t27.5 -141.5q0 -119 -56.5 -198t-154.5 -118l268 -429h-209l-238 390l-227 -14v-376zM534 532q66 1 113.5 15.5t78 40.5t44.5 63t14 83q0 98 -62 143t-190 45h-183v-392zM617 1192h-202l-264 429h138l225 -291h2
l227 291h137z" />
    <glyph glyph-name="sacute.smallcap" horiz-adv-x="984" 
d="M475 131q47 0 87 12t69 33t45 50.5t16 64.5q0 38 -15 64.5t-46 47t-78 37.5t-110 35q-58 15 -117 37.5t-106.5 59.5t-77.5 91.5t-30 134.5q0 70 26.5 127t75.5 97.5t118.5 62.5t155.5 22q104 0 193 -23.5t167 -70.5l-52 -155q-69 43 -150 67t-155 24q-53 0 -90.5 -11
t-62 -30.5t-36 -45.5t-11.5 -55q0 -37 17 -63t50 -46t80.5 -35.5t107.5 -31.5q59 -17 117 -41t103.5 -61.5t74 -92t28.5 -131.5q0 -72 -28.5 -133t-80.5 -104.5t-125 -68t-163 -24.5q-102 0 -200.5 27t-177.5 74l48 158q72 -45 154 -74t179 -29zM500 1192h-138l243 415h230z
" />
    </font>
</defs>
</svg>
